<svg width="143" height="133" viewBox="0 0 143 133" fill="none" xmlns="http://www.w3.org/2000/svg">
<path d="M109.8 11.1387C110.032 11.5083 110.032 11.5083 110.156 11.8037C110.255 11.7999 110.354 11.796 110.457 11.7921C115.38 11.6884 120.01 13.632 123.574 16.7244C127.204 20.0244 129.434 24.3631 129.552 29.1365C129.564 29.9913 129.563 30.8459 129.559 31.7008C129.558 32.2726 129.559 32.8443 129.56 33.4162C129.565 35.0402 129.568 36.6641 129.562 38.2881C129.559 39.2858 129.562 40.2834 129.567 41.281C129.568 41.6595 129.567 42.038 129.564 42.4164C129.561 42.9452 129.563 43.4735 129.568 44.0023C129.565 44.1571 129.562 44.3118 129.559 44.4713C129.576 45.4691 129.812 46.0159 130.512 46.7728C130.834 47.1233 131.005 47.4797 131.176 47.9112C131.23 48.0438 131.285 48.1765 131.341 48.3132C131.962 50.1398 131.74 51.9514 130.943 53.6987C129.939 55.3843 128.593 56.4809 126.679 57.19C126.207 57.3128 125.734 57.4184 125.257 57.5225C125.212 57.7019 125.166 57.8812 125.119 58.0661C124.091 61.909 122.144 64.9884 119.217 67.83C119.1 67.9494 118.984 68.0687 118.864 68.1917C117.249 69.8031 115.134 71.0606 112.998 71.9862C112.881 71.9862 112.764 71.9862 112.643 71.9862C112.643 73.4127 112.643 74.8391 112.643 76.3087C113.171 76.3636 113.698 76.4185 114.242 76.475C114.6 76.5367 114.956 76.6042 115.311 76.6791C115.505 76.7197 115.699 76.7602 115.899 76.802C116.104 76.8458 116.309 76.8896 116.52 76.9348C116.736 76.9805 116.952 77.0263 117.175 77.0735C117.747 77.1949 118.319 77.3173 118.891 77.4398C119.465 77.5622 120.039 77.6824 120.613 77.803C126.315 79.0121 126.315 79.0121 128.733 80.2364C128.875 80.3074 129.016 80.3783 129.162 80.4514C133.624 82.7562 136.899 86.5577 138.638 91.0115C138.679 91.1143 138.72 91.2171 138.762 91.3231C139.567 93.5138 139.727 95.7153 139.709 98.0066C139.709 98.2916 139.709 98.5766 139.709 98.8615C139.71 99.6161 139.706 100.371 139.703 101.125C139.7 101.836 139.7 102.548 139.699 103.259C139.696 105.331 139.689 107.403 139.682 109.476C139.671 114.112 139.66 118.747 139.649 123.524C126.515 123.524 113.382 123.524 99.8507 123.524C99.8507 122.591 99.8507 121.658 99.8507 120.697C107.238 120.697 114.626 120.697 122.237 120.697C122.237 113.565 122.237 106.433 122.237 99.085C123.175 99.085 124.113 99.085 125.08 99.085C125.08 106.217 125.08 113.349 125.08 120.697C128.949 120.697 132.819 120.697 136.806 120.697C136.79 116.461 136.79 116.461 136.769 112.224C136.759 110.494 136.75 108.764 136.744 107.034C136.74 105.773 136.734 104.513 136.726 103.252C136.722 102.586 136.719 101.92 136.718 101.254C136.707 95.7661 136.28 90.7276 132.187 86.45C132.045 86.3015 131.903 86.153 131.756 86C128.732 83.0072 125.053 81.7726 120.853 80.8809C120.403 80.7852 119.953 80.6888 119.504 80.5922C117.218 80.1016 114.931 79.6165 112.643 79.135C112.644 79.2827 112.645 79.4305 112.646 79.5827C112.657 80.9769 112.665 82.3711 112.671 83.7654C112.673 84.4821 112.677 85.1989 112.683 85.9156C112.689 86.6077 112.692 87.2997 112.693 87.9917C112.694 88.2554 112.696 88.5191 112.699 88.7827C112.703 89.1528 112.704 89.5228 112.703 89.893C112.705 90.1034 112.706 90.3138 112.707 90.5306C112.618 91.3296 112.375 91.8961 111.71 92.4142C111.086 92.6531 110.647 92.6684 109.978 92.6012C109.067 92.2243 108.648 91.5935 108.112 90.8452C107.926 90.591 107.739 90.3368 107.552 90.0828C107.455 89.9509 107.358 89.8189 107.259 89.6829C106.661 88.8764 106.04 88.0856 105.423 87.2923C104.912 86.6325 104.414 85.968 103.937 85.2862C103.203 85.9299 102.64 86.6208 102.072 87.3955C101.885 87.6461 101.698 87.8966 101.511 88.1469C101.367 88.3416 101.367 88.3416 101.219 88.5402C100.706 89.2259 100.184 89.9061 99.6619 90.5855C99.5159 90.7766 99.5159 90.7766 99.3669 90.9717C99.2753 91.0907 99.1837 91.2097 99.0893 91.3323C99.0089 91.4371 98.9285 91.5418 98.8457 91.6498C98.2266 92.3927 98.2266 92.3927 97.7033 92.5376C97.0342 92.6081 96.5965 92.6482 95.9641 92.4038C95.3656 91.9261 95.0778 91.644 94.9895 90.8905C94.9907 90.6734 94.9918 90.4563 94.9931 90.2327C94.993 90.1126 94.9929 89.9925 94.9928 89.8688C94.9932 89.4729 94.9973 89.0772 95.0015 88.6814C95.0025 88.4065 95.0033 88.1316 95.0038 87.8568C95.0058 87.1341 95.0111 86.4115 95.017 85.6889C95.0224 84.9511 95.0249 84.2134 95.0275 83.4757C95.0333 82.0288 95.0424 80.5819 95.0536 79.135C94.6432 79.1899 94.2327 79.2447 93.8099 79.3012C93.8107 79.4214 93.8115 79.5416 93.8123 79.6654C93.8194 80.8073 93.8248 81.9491 93.8283 83.091C93.8301 83.6778 93.8326 84.2646 93.8367 84.8514C93.8413 85.5287 93.843 86.2059 93.8446 86.8832C93.8464 87.0902 93.8482 87.2972 93.8501 87.5105C93.8506 90.9353 92.9879 93.6177 90.4564 96.1444C88.7149 97.7038 86.2781 98.7675 83.8604 98.7733C83.4206 98.763 83.4206 98.763 82.972 98.7525C82.972 97.8747 82.972 96.9969 82.972 96.0925C83.4117 95.9965 83.8515 95.9005 84.3045 95.8016C86.5735 95.2758 88.3162 94.362 89.6235 92.4558C90.4834 91.1156 90.6919 89.5737 90.6808 88.0403C90.6822 87.7962 90.6822 87.7962 90.6836 87.5472C90.6859 87.0147 90.6844 86.4824 90.6826 85.95C90.683 85.5754 90.6835 85.2009 90.6842 84.8263C90.6849 84.043 90.6838 83.2596 90.6813 82.4762C90.6783 81.4797 90.68 80.4832 90.6832 79.4866C90.6852 78.7132 90.6845 77.9399 90.6831 77.1665C90.6828 76.7995 90.6832 76.4324 90.6845 76.0654C90.6995 70.4133 89.1854 65.4999 84.934 61.3437C81.2649 57.8935 76.3349 56.0943 71.1681 55.9847C65.7679 55.9865 60.9216 58.0615 57.0877 61.5437C52.6497 65.7212 51.4362 71.1922 51.4474 76.8731C51.4466 77.2401 51.4456 77.6071 51.4445 77.9741C51.443 78.7377 51.4434 79.5012 51.4452 80.2648C51.4472 81.2381 51.4436 82.2113 51.4384 83.1846C51.4352 83.9404 51.4352 84.6962 51.4362 85.452C51.4363 85.8108 51.4352 86.1695 51.433 86.5283C51.4184 89.2724 51.5396 91.6893 53.6627 93.7903C55.4265 95.3534 57.1864 95.741 59.5196 96.0925C59.5196 96.9703 59.5196 97.8481 59.5196 98.7525C56.6448 98.8707 54.2052 98.1489 52.013 96.373C49.7818 94.3945 48.4286 91.9642 48.3109 89.0607C48.306 88.6476 48.3063 88.2347 48.309 87.8216C48.3094 87.5974 48.3094 87.5974 48.3098 87.3688C48.3108 86.8963 48.313 86.4238 48.3152 85.9512C48.3161 85.6289 48.317 85.3066 48.3177 84.9843C48.3196 84.1983 48.3227 83.4123 48.3264 82.6263C48.2243 82.6078 48.1222 82.5894 48.0171 82.5705C47.55 82.4858 47.0831 82.4002 46.6163 82.3145C46.3755 82.2711 46.3755 82.2711 46.1298 82.2269C45.8944 82.1835 45.8944 82.1835 45.6544 82.1392C45.5111 82.1131 45.3678 82.087 45.2202 82.06C44.707 81.9467 44.2072 81.7848 43.7069 81.6287C43.7069 79.9829 43.7069 78.337 43.7069 76.6413C43.2965 76.751 42.8861 76.8607 42.4632 76.9737C41.2694 77.1702 40.0875 77.1709 38.8799 77.1708C38.5135 77.1712 38.1471 77.1742 37.7807 77.1773C37.5417 77.1778 37.3027 77.1782 37.0637 77.1783C36.8511 77.179 36.6386 77.1797 36.4195 77.1804C35.5239 77.1293 34.6402 76.9577 33.7574 76.8075C33.6988 78.3985 33.6402 79.9895 33.5797 81.6287C31.9093 82.0662 30.2324 82.4443 28.5391 82.7964C28.3235 82.8414 28.1079 82.8864 27.8858 82.9328C26.9849 83.1206 26.084 83.3082 25.1824 83.4929C20.7464 84.4037 16.9745 85.3685 13.6807 88.445C13.5179 88.5945 13.5179 88.5945 13.3517 88.747C11.9318 90.1515 10.9196 91.9032 10.2272 93.713C10.1855 93.8214 10.1438 93.9297 10.1009 94.0413C9.46595 95.8193 9.36333 97.6226 9.35997 99.4836C9.3583 99.7202 9.35647 99.9568 9.35451 100.193C9.34971 100.821 9.34694 101.448 9.34463 102.076C9.34213 102.667 9.33777 103.258 9.33356 103.849C9.32237 105.572 9.31415 107.295 9.30558 109.018C9.28359 112.873 9.26161 116.727 9.23895 120.697C19.558 120.697 29.8771 120.697 40.5089 120.697C40.5089 121.63 40.5089 122.563 40.5089 123.524C29.1931 123.524 17.8773 123.524 6.21856 123.524C6.20757 119.344 6.19658 115.164 6.18525 110.858C6.1804 109.544 6.17555 108.231 6.17055 106.877C6.16814 105.257 6.16814 105.257 6.16769 104.496C6.1672 103.971 6.16523 103.446 6.16229 102.921C6.14666 99.9949 6.17349 97.151 6.75157 94.2637C6.96329 93.3803 6.96329 93.3803 6.60167 92.5837C6.4473 92.4106 6.2898 92.2399 6.12973 92.0713C5.96322 91.8817 5.79759 91.6914 5.63281 91.5005C5.5507 91.406 5.4686 91.3115 5.384 91.2142C4.44402 90.0956 3.83191 88.8492 3.32032 87.5202C3.27721 87.4085 3.23409 87.2968 3.18967 87.1817C2.0333 83.9999 2.10175 80.3228 3.19817 77.14C3.25841 76.9557 3.31864 76.7714 3.3807 76.5815C4.37227 73.8739 6.2567 71.4793 8.66153 69.7315C9.74152 68.9356 10.5714 67.953 10.838 66.6662C10.8554 66.2784 10.8624 65.8901 10.8637 65.5019C10.8643 65.3846 10.865 65.2674 10.8656 65.1466C10.8675 64.7536 10.8682 64.3605 10.8688 63.9675C10.8699 63.6856 10.8711 63.4038 10.8724 63.1219C10.875 62.5144 10.8771 61.9069 10.8788 61.2994C10.8816 60.3361 10.8858 59.3729 10.8903 58.4097C10.903 55.6705 10.9136 52.9312 10.9227 50.1919C10.9278 48.6793 10.934 47.1668 10.9416 45.6542C10.9464 44.6996 10.9496 43.745 10.9516 42.7904C10.9532 42.1917 10.9563 41.5931 10.9598 40.9944C10.9611 40.7201 10.9619 40.4457 10.9619 40.1714C10.9632 37.715 11.1162 35.2487 11.7485 32.8552C11.7862 32.7113 11.8238 32.5675 11.8625 32.4193C13.6879 25.7909 18.4289 20.1743 24.674 16.6828C31.0857 13.212 38.6687 12.3847 45.8163 14.1229C49.5799 15.0888 53.0124 16.7174 55.9662 19.1187C56.1134 19.2383 56.2607 19.3579 56.4124 19.4811C56.8619 19.8534 57.3039 20.2319 57.7429 20.615C57.8764 20.7309 58.0099 20.8469 58.1475 20.9663C62.779 25.1325 65.8389 31.4103 66.1092 37.4267C66.1149 37.7829 66.1154 38.1388 66.1135 38.495C66.1135 38.6282 66.1136 38.7614 66.1136 38.8986C66.1135 39.3331 66.1121 39.7675 66.1107 40.202C66.1104 40.5055 66.1101 40.809 66.1099 41.1125C66.1093 41.907 66.1075 42.7015 66.1056 43.496C66.1037 44.3085 66.1029 45.1209 66.102 45.9334C66.1001 47.5243 66.097 49.1153 66.0934 50.7062C65.0966 50.7062 64.0999 50.7062 63.073 50.7062C63.0691 50.0939 63.0691 50.0939 63.0651 49.4692C63.0561 48.1095 63.0443 46.7499 63.0311 45.3903C63.0232 44.5672 63.0162 43.7441 63.0114 42.9209C63.0067 42.1243 62.9995 41.3277 62.9907 40.5311C62.9877 40.2295 62.9857 39.9279 62.9846 39.6263C62.9581 33.1501 60.4033 27.4356 55.6108 22.7762C55.4593 22.6187 55.4593 22.6187 55.3048 22.458C51.1295 18.2414 44.6982 16.3455 38.7322 16.1262C32.3974 16.0141 26.2036 18.4686 21.6202 22.5004C17.1474 26.552 14.3418 32.1825 14.1528 38.0338C14.1417 38.6789 14.1426 39.3237 14.1454 39.9688C14.1446 40.2595 14.1436 40.5502 14.1425 40.8409C14.1404 41.4595 14.1399 42.0781 14.1407 42.6968C14.142 43.6766 14.1391 44.6565 14.1357 45.6363C14.1285 47.8908 14.1264 50.1453 14.1244 52.3998C14.1225 54.4721 14.1195 56.5443 14.1123 58.6166C14.1091 59.5892 14.1084 60.5617 14.1096 61.5343C14.1099 62.1398 14.108 62.7453 14.1055 63.3508C14.1048 63.6299 14.105 63.909 14.1062 64.1882C14.1164 66.8012 13.6988 69.1652 11.7409 71.1569C11.3157 71.5369 10.8663 71.8739 10.4049 72.2148C7.57932 74.3307 6.00622 77.4715 5.55785 80.7917C5.2214 84.1891 6.26328 87.328 8.3506 90.1075C8.8057 89.5856 9.22729 89.0565 9.62761 88.4969C11.6612 85.7682 14.4463 83.5415 17.7671 82.2937C17.943 82.2937 18.1189 82.2937 18.3001 82.2937C18.2751 82.2037 18.25 82.1136 18.2242 82.0208C18.1066 81.5927 17.9924 81.164 17.8782 80.7352C17.8388 80.5937 17.7994 80.4523 17.7588 80.3065C16.9427 77.2071 17.0027 74.0521 17.0087 70.8833C17.0096 70.2463 17.0088 69.6093 17.0082 68.9722C17.0076 67.9041 17.0084 66.836 17.0101 65.7679C17.012 64.5393 17.0114 63.3107 17.0095 62.0821C17.0078 61.0194 17.0076 59.9567 17.0085 58.894C17.0091 58.2627 17.0092 57.6314 17.008 57.0001C17.007 56.4067 17.0077 55.8134 17.0097 55.22C17.0104 54.9028 17.0094 54.5856 17.0083 54.2684C17.0326 49.539 18.7159 45.4451 22.0312 41.895C22.1384 41.7799 22.2456 41.6648 22.356 41.5463C22.6485 41.2546 22.9509 40.9921 23.2749 40.7312C23.4728 40.5702 23.4728 40.5702 23.6746 40.4059C24.8774 39.498 26.1646 38.8374 27.5279 38.1648C32.0218 35.9388 34.7761 32.9484 36.4225 28.4411C37.0038 26.5083 36.9094 24.4357 36.9555 22.4437C37.9522 22.4437 38.9489 22.4437 39.9759 22.4437C40.113 28.1027 38.9036 32.87 34.6458 37.0737C32.9671 38.685 30.9831 39.7884 28.8604 40.804C25.1605 42.5898 22.3428 45.4284 20.9796 49.144C20.2955 51.1552 20.1699 53.0344 20.185 55.1291C20.1879 55.5989 20.185 56.0685 20.1816 56.5383C20.1764 60.8913 21.4626 64.9763 24.5186 68.3287C24.7621 68.5515 24.7621 68.5515 25.0106 68.7788C25.4069 69.16 25.4069 69.16 25.4069 69.4925C25.51 69.5349 25.6131 69.5774 25.7192 69.6211C26.1573 69.8453 26.4493 70.1016 26.8061 70.4277C27.8321 71.2977 28.9867 71.8878 30.204 72.485C30.4393 72.6033 30.4393 72.6033 30.6794 72.724C34.7499 74.6195 39.7615 74.8556 44.0637 73.5578C45.464 73.1068 46.7868 72.6088 48.0217 71.831C48.3264 71.6537 48.3264 71.6537 48.6817 71.6537C48.6842 71.5545 48.6867 71.4553 48.6893 71.3531C48.9983 66.0949 52.5364 61.4993 56.4992 58.0212C56.6514 57.9262 56.8037 57.8311 56.9605 57.7332C57.4313 57.3893 57.4313 57.3893 57.4968 56.873C57.4956 56.6877 57.4943 56.5023 57.493 56.3113C57.493 56.1046 57.493 55.8978 57.4929 55.6847C57.4878 55.4626 57.4822 55.2405 57.4764 55.0184C57.4729 54.791 57.4694 54.5637 57.466 54.3364C57.3679 49.5121 55.9592 45.4851 52.2351 42.0612C52.1126 41.9468 51.99 41.8324 51.8638 41.7145C50.1863 40.2477 48.1255 39.351 46.0166 38.57C46.1097 37.5944 46.3295 36.8163 46.7273 35.91C50.6014 36.4279 54.2625 39.2991 56.6054 42.0983C59.2202 45.4852 60.4931 49.2355 60.4301 53.4078C60.4285 53.6129 60.4269 53.818 60.4253 54.0293C60.4211 54.5287 60.4153 55.0281 60.4079 55.5275C60.5781 55.4531 60.7482 55.3788 60.9236 55.3022C62.1947 54.7577 63.4635 54.2672 64.8052 53.8962C64.9202 53.8639 65.0352 53.8316 65.1536 53.7983C67.1036 53.2811 69.0136 53.145 71.0348 53.1584C71.2687 53.1591 71.5025 53.1597 71.7435 53.1604C73.3204 53.1735 74.8492 53.2477 76.3982 53.5325C76.3103 53.3473 76.2223 53.1622 76.1317 52.9714C75.5425 51.3042 75.6328 49.2634 76.3163 47.6397C76.5759 47.215 76.5759 47.215 76.8298 46.9768C77.9256 45.8858 77.7881 44.6097 77.7724 43.2055C77.7735 42.9425 77.7751 42.6795 77.7772 42.4164C77.7816 41.725 77.78 41.0337 77.7767 40.3422C77.7726 39.2419 77.7775 38.1417 77.7826 37.0414C77.7835 36.6623 77.7817 36.2832 77.7796 35.904C77.7753 33.5974 77.9592 31.2769 78.5525 29.0314C78.5901 28.8876 78.6277 28.7437 78.6665 28.5955C80.3973 22.3102 84.8484 16.6907 90.7208 13.2454C91.3269 12.9131 91.9411 12.602 92.5662 12.3025C92.6787 12.2471 92.7911 12.1916 92.907 12.1345C95.5633 10.836 98.466 9.96384 101.45 9.64249C101.688 9.61517 101.688 9.61517 101.931 9.58729C104.791 9.30012 107.486 9.33439 109.8 11.1387ZM88.4798 18.4537C88.332 18.5802 88.1843 18.7066 88.0321 18.8369C83.5958 22.8064 80.9551 28.6249 80.7758 34.3395C80.7626 35.075 80.7613 35.8102 80.7629 36.5458C80.7621 36.8661 80.7612 37.1864 80.7601 37.5067C80.7585 38.171 80.7589 38.8353 80.7607 39.4996C80.7628 40.3483 80.7591 41.1969 80.754 42.0456C80.7507 42.7041 80.7508 43.3626 80.7518 44.0211C80.7518 44.3342 80.7507 44.6472 80.7485 44.9603C80.7459 45.3969 80.7478 45.8333 80.7508 46.2699C80.7491 46.3969 80.7474 46.524 80.7456 46.6549C80.7594 47.6046 81.0489 48.2192 81.5506 49.0437C81.6093 49.0437 81.6679 49.0437 81.7283 49.0437C81.7398 48.93 81.7513 48.8163 81.7631 48.6992C82.2122 44.4095 83.3023 40.856 86.9127 37.9323C89.5284 36.0542 92.3502 35.3291 95.5866 35.0787C99.9839 34.7291 103.396 33.3078 106.302 30.1224C107.093 29.1468 107.741 28.0795 108.201 26.9325C108.295 26.7034 108.295 26.7034 108.392 26.4696C109.093 24.4521 109.025 22.3869 109.014 20.2841C109.012 19.6362 109.018 18.9886 109.025 18.3407C109.025 17.9251 109.024 17.5095 109.024 17.0939C109.026 16.9021 109.028 16.7104 109.031 16.5129C109.016 15.3056 108.808 14.4417 108.023 13.4662C107.629 13.1033 107.629 13.1033 107.202 12.8844C107.068 12.8072 106.933 12.7301 106.795 12.6506C101.337 9.97253 92.2955 15.1521 88.4798 18.4537ZM111.755 14.63C111.756 14.7453 111.757 14.8605 111.758 14.9793C111.769 16.077 111.777 17.1747 111.782 18.2725C111.785 18.8365 111.789 19.4006 111.795 19.9646C111.843 24.7293 111.843 24.7293 111.222 26.7662C111.162 26.9878 111.102 27.2094 111.044 27.4312C111.156 27.4337 111.269 27.4361 111.385 27.4386C116.677 27.5658 116.677 27.5658 119.039 29.0937C119.2 29.1932 119.361 29.2926 119.528 29.3951C120.766 30.5217 121.82 32.2524 121.907 33.8921C121.91 34.1645 121.91 34.1645 121.913 34.4423C121.97 37.5973 122.169 40.0587 123.897 42.8168C124.968 44.5278 125.428 46.2183 125.535 48.1813C125.543 48.3124 125.55 48.4434 125.558 48.5784C125.577 48.8998 125.595 49.2211 125.613 49.5425C126.227 48.8383 126.523 48.4906 126.527 47.5826C126.529 47.4144 126.53 47.2462 126.531 47.0729C126.532 46.8876 126.532 46.7023 126.533 46.5114C126.534 46.3167 126.535 46.122 126.536 45.9214C126.54 45.2737 126.542 44.626 126.543 43.9783C126.544 43.7545 126.545 43.5307 126.546 43.3069C126.549 42.2531 126.552 41.1992 126.553 40.1454C126.555 38.9352 126.559 37.7251 126.567 36.515C126.572 35.5765 126.575 34.638 126.575 33.6994C126.576 33.1407 126.578 32.582 126.582 32.0233C126.618 26.8849 125.693 22.748 121.704 18.9525C121.571 18.8261 121.438 18.6996 121.302 18.5693C118.847 16.3717 115.212 14.63 111.755 14.63ZM108.36 31.8587C106.627 34.7435 102.918 36.3378 99.673 37.2088C98.6247 37.4682 97.585 37.5802 96.502 37.6123C92.9029 37.7303 89.8738 38.7847 87.3464 41.2534C85.4065 43.3354 84.6924 45.9388 84.6953 48.6489C84.6945 48.8129 84.6937 48.9769 84.693 49.1458C84.6919 49.4912 84.6918 49.8366 84.6926 50.1819C84.6932 50.7003 84.689 51.2185 84.6845 51.7369C84.6788 53.2997 84.7137 54.8424 84.9632 56.3899C84.9809 56.5103 84.9986 56.6307 85.0168 56.7548C85.1723 57.5839 85.4925 57.9818 86.1701 58.52C88.3874 60.5007 90.3582 62.7301 91.4675 65.4369C92.1036 66.9741 92.5871 67.9473 94.2332 68.7281C94.5514 68.8596 94.5514 68.8596 94.8759 68.9937C95.1052 69.0974 95.3342 69.2015 95.563 69.3061C100.081 71.3138 105.267 71.6286 110.013 70.0926C113.886 68.7471 117.628 66.2235 119.75 62.8425C119.844 62.6925 119.844 62.6925 119.94 62.5395C122.17 58.9421 122.804 55.3473 122.803 51.2152C122.803 50.8728 122.807 50.5304 122.81 50.188C122.823 47.4023 122.308 45.3218 120.805 42.9361C119.886 41.4541 119.384 39.9988 119.357 38.2875C119.352 38.0727 119.347 37.8578 119.342 37.6365C119.334 37.2991 119.328 36.9618 119.323 36.6244C119.296 34.8257 119.201 33.1714 117.952 31.7245C116.479 30.3889 114.887 30.1819 112.926 30.1262C112.665 30.1168 112.404 30.1032 112.143 30.0853C110.256 29.9584 109.307 30.2602 108.36 31.8587ZM78.7079 50.2075C78.7837 51.739 79.1801 52.72 80.3958 53.7715C80.8909 54.1769 81.2508 54.4311 81.906 54.53C81.9247 53.8444 81.9022 53.2032 81.7283 52.535C81.4122 52.234 81.1172 52.0979 80.7109 51.9181C80.0573 51.5713 79.6401 51.0401 79.1639 50.5056C79.0721 50.4072 78.9802 50.3088 78.8856 50.2075C78.827 50.2075 78.7683 50.2075 78.7079 50.2075ZM128.456 50.54C128.263 50.7446 128.075 50.9532 127.889 51.1634C127.216 51.8947 126.607 52.3913 125.613 52.7012C125.613 53.3047 125.613 53.9082 125.613 54.53C126.941 53.9943 127.804 53.3478 128.433 52.109C128.63 51.5454 128.679 51.1278 128.633 50.54C128.575 50.54 128.516 50.54 128.456 50.54ZM20.0768 67.4975C20.0631 68.7182 20.0539 69.9388 20.0475 71.1596C20.0449 71.5734 20.0413 71.9873 20.0366 72.4011C20.0022 75.5343 20.1624 78.4481 21.1428 81.4625C22.1982 81.243 23.2536 81.0236 24.3409 80.7975C24.2524 79.8864 24.1401 78.9889 23.9856 78.0855C23.7754 76.724 23.7289 75.3749 23.6968 74.002C23.69 73.7563 23.6831 73.5106 23.676 73.2649C23.6593 72.6725 23.6442 72.08 23.6302 71.4875C23.513 71.4875 23.3957 71.4875 23.2749 71.4875C23.2298 71.3917 23.1846 71.2959 23.1382 71.1972C22.8952 70.7808 22.6136 70.4905 22.2644 70.1471C21.5667 69.4324 21.0267 68.6728 20.4939 67.8449C20.4149 67.7303 20.3359 67.6156 20.2545 67.4975C20.1959 67.4975 20.1372 67.4975 20.0768 67.4975ZM93.6322 71.4875C93.6043 73.1576 93.6905 74.8094 93.8099 76.475C94.2203 76.3653 94.6307 76.2555 95.0536 76.1425C95.0536 74.8258 95.0536 73.5091 95.0536 72.1525C94.5845 71.933 94.1155 71.7136 93.6322 71.4875ZM108.312 73.2227C105.476 73.7911 102.715 73.7195 99.8557 73.3611C99.2623 73.2872 98.6681 73.219 98.074 73.15C97.8279 75.1788 97.8279 75.1788 98.3301 77.0991C98.7531 77.4468 99.1894 77.7005 99.673 77.9712C100.036 78.219 100.393 78.4742 100.75 78.73C101.112 78.9891 101.479 79.2427 101.846 79.4954C102.444 79.9101 103.015 80.3464 103.582 80.7975C104.441 80.5416 105.031 80.0804 105.714 79.5506C105.949 79.371 106.185 79.1915 106.42 79.0123C106.539 78.9219 106.657 78.8315 106.779 78.7384C107.425 78.2516 108.084 77.7822 108.743 77.3121C109.199 76.9947 109.199 76.9947 109.623 76.6413C109.638 76.3695 109.642 76.0971 109.64 75.8249C109.639 75.6605 109.639 75.496 109.638 75.3265C109.637 75.1535 109.635 74.9804 109.634 74.8021C109.633 74.6284 109.632 74.4547 109.631 74.2758C109.629 73.8451 109.626 73.4144 109.623 72.9837C109.192 72.9837 108.728 73.1346 108.312 73.2227ZM26.4729 73.815C26.4592 74.8173 26.4969 75.791 26.6173 76.7867C26.6326 76.9158 26.6479 77.0449 26.6637 77.1779C26.7944 78.1977 27.0317 79.1512 27.3613 80.1325C28.4167 79.913 29.472 79.6936 30.5594 79.4675C30.5594 78.2605 30.5594 77.0536 30.5594 75.81C30.017 75.5425 29.4747 75.2751 28.9159 74.9995C28.7461 74.9158 28.5764 74.832 28.4015 74.7457C28.2662 74.679 28.1309 74.6123 27.9915 74.5436C27.8538 74.4757 27.7161 74.4078 27.5742 74.3379C27.209 74.1599 26.8418 73.9862 26.4729 73.815ZM46.5497 75.81C46.5497 77.017 46.5497 78.2239 46.5497 79.4675C47.4291 79.6321 47.4291 79.6321 48.3264 79.8C48.3264 78.209 48.3264 76.618 48.3264 74.9787C47.6642 74.9787 47.1285 75.5091 46.5497 75.81ZM98.074 80.2988C98.074 82.7127 98.074 85.1266 98.074 87.6137C98.5556 87.163 98.9171 86.8073 99.2954 86.3006C99.3861 86.1798 99.4768 86.0589 99.5703 85.9344C99.6628 85.8096 99.7553 85.6849 99.8507 85.5564C99.9432 85.433 100.036 85.3095 100.131 85.1823C100.639 84.5024 101.139 83.8175 101.627 83.125C101.377 82.569 101.096 82.2836 100.583 81.9223C100.449 81.8269 100.314 81.7316 100.176 81.6333C100.036 81.5358 99.8952 81.4383 99.7507 81.3378C99.6097 81.2377 99.4688 81.1376 99.3235 81.0345C98.7501 80.549 98.7501 80.549 98.074 80.2988ZM108.257 81.078C107.492 81.6871 106.721 82.2631 105.891 82.7925C106.128 83.2577 106.392 83.674 106.71 84.0939C106.801 84.2133 106.891 84.3327 106.984 84.4557C107.078 84.5789 107.172 84.7021 107.268 84.8291C107.36 84.9497 107.451 85.0704 107.545 85.1947C108.014 85.8137 108.489 86.4288 108.97 87.0397C109.1 87.2051 109.1 87.2051 109.233 87.374C109.303 87.4531 109.373 87.5322 109.445 87.6137C109.503 87.6137 109.562 87.6137 109.623 87.6137C109.623 85.1998 109.623 82.7859 109.623 80.2988C109.037 80.2988 108.681 80.734 108.257 81.078Z" fill="#164A41"/>
<path d="M82.0836 68.8275C83.3355 69.6425 83.5572 70.8219 83.8905 72.1292C84.5529 74.6888 86.2589 76.3889 88.3638 78.0524C89.2304 78.7943 89.6561 79.7272 89.7831 80.806C89.8431 85.4959 87.3901 89.8867 83.9935 93.2143C82.6374 94.4405 81.172 95.502 79.4327 96.1965C78.9129 96.4052 78.4575 96.6137 77.9972 96.9238C77.7401 97.5538 77.7296 98.0881 77.8195 98.7525C78.0142 98.787 78.2089 98.8215 78.4094 98.8571C80.2054 99.1811 81.9944 99.5353 83.7779 99.915C84.1183 99.9872 84.4592 100.058 84.8001 100.128C88.8418 100.999 92.5552 102.966 94.9064 106.236C98.5268 111.767 97.5409 116.591 97.5409 123.524C80.0688 123.524 62.5967 123.524 44.5952 123.524C44.5952 108.889 44.5952 108.889 48.6816 104.571C48.7799 104.465 48.8781 104.36 48.9794 104.25C52.5216 100.681 57.8126 100.004 62.6398 99.0142C62.8317 98.9746 62.8317 98.9746 63.0275 98.9341C63.9196 98.7525 63.9196 98.7525 64.3166 98.7525C64.4489 98.0698 64.4354 97.5652 64.1389 96.9238C63.4891 96.422 62.6879 96.1319 61.9305 95.7996C57.7611 93.9624 54.9109 90.0419 53.3439 86.1119C52.5521 83.9725 52.239 82.2346 53.301 80.1325C53.9666 79.0449 55.1472 78.4799 56.3936 78.1375C57.2674 77.9445 58.1537 77.8252 59.0405 77.6973C61.5089 77.3393 63.8956 76.8799 66.271 76.1425C66.3938 76.1056 66.5166 76.0686 66.6431 76.0305C70.5706 74.8323 74.4329 72.8368 77.0651 69.7977C78.3765 68.2879 80.1925 67.8223 82.0836 68.8275ZM79.5132 71.3628C79.4231 71.4588 79.333 71.5549 79.2402 71.6538C79.1389 71.7595 79.0375 71.8652 78.9332 71.9741C78.8258 72.0879 78.7185 72.2016 78.6079 72.3188C73.5556 77.5066 65.9504 79.6549 58.7086 80.5451C57.5623 80.6972 56.4862 80.8701 55.7107 81.7535C55.4151 82.8598 55.6669 83.8438 56.0549 84.8914C56.1259 85.0859 56.1259 85.0859 56.1983 85.2843C57.6006 88.9611 60.5281 92.1973 64.294 93.917C65.0568 94.244 65.8314 94.5119 66.6263 94.7625C66.8017 94.8191 66.9772 94.8757 67.1579 94.934C69.9927 95.6938 73.2748 95.485 76.0428 94.5963C76.2274 94.538 76.412 94.4797 76.6022 94.4196C80.7622 92.9484 83.6668 89.9668 85.5148 86.2636C86.2583 84.7035 87.3115 82.3208 86.7009 80.6332C86.2415 79.9821 85.6844 79.521 85.0596 79.0103C84.0236 78.1324 83.1391 77.2863 82.4389 76.1425C82.345 75.9934 82.2511 75.8442 82.1544 75.6905C81.5267 74.6142 81.1667 73.552 80.8918 72.3612C80.7446 71.6903 80.7446 71.6903 80.3069 71.155C79.7844 71.1011 79.7844 71.1011 79.5132 71.3628ZM67.337 97.755C67.337 98.3036 67.337 98.8523 67.337 99.4175C67.6771 99.5811 68.0177 99.7437 68.3586 99.9059C68.5482 99.9965 68.7378 100.087 68.9332 100.181C70.2743 100.767 71.6007 100.74 72.9891 100.28C73.6336 100.047 74.2497 99.8127 74.7991 99.4175C74.9062 99.0013 74.9062 99.0013 74.8546 98.5551C74.8466 98.4053 74.8386 98.2555 74.8303 98.1012C74.82 97.9869 74.8097 97.8727 74.7991 97.755C74.6493 97.773 74.6493 97.773 74.4965 97.7914C72.1309 98.0358 69.6993 98.0151 67.337 97.755ZM63.9425 101.594C63.7851 101.628 63.6277 101.662 63.4656 101.697C63.2664 101.74 63.0672 101.783 62.8619 101.828C62.228 101.965 61.594 102.102 60.9409 102.244C60.9409 104.713 60.9409 107.181 60.9409 109.725C67.7421 109.725 74.5433 109.725 81.5506 109.725C81.5506 107.311 81.5506 104.897 81.5506 102.41C78.7941 101.465 78.7941 101.465 75.9852 101.796C75.8466 101.882 75.7081 101.968 75.5653 102.057C73.5648 103.21 71.3033 103.439 69.0054 103.065C67.704 102.728 66.5026 102.111 65.3826 101.413C64.8602 101.413 64.4498 101.485 63.9425 101.594ZM54.9001 103.74C54.9001 109.336 54.9001 114.932 54.9001 120.698C65.6296 120.698 76.3591 120.698 87.4137 120.698C87.4137 115.156 87.4137 109.615 87.4137 103.906C85.912 103.2 85.912 103.2 84.571 103.075C84.571 106.202 84.571 109.329 84.571 112.551C75.7763 112.551 66.9816 112.551 57.9205 112.551C57.9205 109.369 57.9205 106.187 57.9205 102.909C56.871 102.909 55.9017 103.447 54.9001 103.74ZM51.1468 106.203C48.4537 108.759 47.557 111.837 47.5647 115.324C47.5688 115.858 47.5755 116.392 47.5823 116.926C47.585 117.292 47.5874 117.659 47.5896 118.026C47.5949 118.916 47.6054 119.807 47.6156 120.698C49.0814 120.698 50.5472 120.698 52.0574 120.698C52.0574 115.705 52.0574 110.713 52.0574 105.569C51.6922 105.569 51.388 105.984 51.1468 106.203ZM90.4341 105.901C90.4341 110.784 90.4341 115.667 90.4341 120.698C91.7826 120.698 93.1311 120.698 94.5205 120.698C94.5369 119.633 94.551 118.569 94.5595 117.505C94.5631 117.144 94.5679 116.784 94.5741 116.423C94.641 112.434 93.9881 109.178 90.9678 106.214C90.6715 105.882 90.6715 105.882 90.4341 105.901Z" fill="#164A41"/>
<path d="M14.7466 91.4375C25.1243 91.4375 35.502 91.4375 46.1942 91.4375C46.1942 92.3702 46.1942 93.3029 46.1942 94.2638C35.8165 94.2638 25.4388 94.2638 14.7466 94.2638C14.7466 93.3311 14.7466 92.3985 14.7466 91.4375Z" fill="#164A41"/>
<path d="M102.338 91.105C103.335 91.105 104.331 91.105 105.358 91.105C105.358 99.9379 105.358 108.771 105.358 117.871C104.362 117.871 103.365 117.871 102.338 117.871C102.338 109.038 102.338 100.206 102.338 91.105Z" fill="#164A41"/>
<path d="M56.1438 67.83C57.3082 68.7255 58.3598 69.7184 59.4196 70.7186C59.6022 70.8903 59.7849 71.0619 59.9675 71.2336C60.4109 71.6503 60.8537 72.0675 61.2963 72.485C61.1295 72.669 60.9624 72.8527 60.7952 73.0363C60.7022 73.1387 60.6091 73.241 60.5133 73.3465C60.1411 73.7439 59.747 74.112 59.3419 74.48C58.6132 74.2104 58.1281 73.7191 57.5902 73.2058C57.4926 73.1141 57.395 73.0223 57.2945 72.9277C56.9841 72.6354 56.675 72.342 56.3659 72.0486C56.1552 71.8498 55.9445 71.6511 55.7337 71.4524C55.218 70.9662 54.7034 70.479 54.1895 69.9912C54.4908 69.3872 54.8536 69.0028 55.3665 68.5365C55.5117 68.4037 55.6569 68.2708 55.8065 68.1339C55.9735 67.9835 55.9735 67.9835 56.1438 67.83Z" fill="#164A41"/>
<path d="M59.3332 65.2114C59.9397 65.4194 60.3352 65.8729 60.777 66.298C60.9293 66.4416 60.9293 66.4416 61.0847 66.588C61.4081 66.8935 61.7297 67.2007 62.0512 67.5079C62.2704 67.7155 62.4897 67.923 62.7092 68.1303C63.2464 68.6385 63.7819 69.1482 64.3165 69.6587C64.1497 69.8427 63.9826 70.0264 63.8154 70.2101C63.7224 70.3124 63.6294 70.4148 63.5336 70.5202C63.1614 70.9176 62.7673 71.2858 62.3621 71.6537C61.6335 71.3842 61.1484 70.8929 60.6104 70.3796C60.5128 70.2878 60.4153 70.196 60.3147 70.1015C60.0044 69.8092 59.6953 69.5158 59.3862 69.2223C59.1755 69.0235 58.9648 68.8248 58.7539 68.6262C58.2382 68.14 57.7237 67.6528 57.2097 67.165C57.4897 66.6145 57.7981 66.2228 58.2535 65.783C58.4342 65.604 58.4342 65.604 58.6186 65.4213C58.9864 65.17 58.9864 65.17 59.3332 65.2114Z" fill="#164A41"/>
</svg>
