<svg width="236" height="240" viewBox="0 0 236 240" fill="none" xmlns="http://www.w3.org/2000/svg">
<rect x="0.00012207" y="240" width="240" height="181.378" rx="20" transform="matrix(0 -1 1 0 -240 240)" fill="#FFC35B"/>
<ellipse cx="163.001" cy="120" rx="120" ry="72.2242" transform="rotate(-90 163.001 120)" fill="#FFC35B"/>
<g clip-path="url(#clip0_520_343)">
<path d="M134.14 127.623C134.14 133.777 139.202 138.784 145.425 138.784C151.649 138.784 156.711 133.777 156.711 127.623C156.711 126.159 155.511 124.973 154.032 124.973H136.819C135.339 124.973 134.14 126.159 134.14 127.623ZM150.712 130.272C149.733 132.177 147.73 133.485 145.425 133.485C143.12 133.485 141.118 132.177 140.138 130.272H150.712Z" fill="#452D06"/>
<path d="M144.632 122.464H146.218C147.697 122.464 148.897 121.277 148.897 119.815V109.511C148.897 108.047 147.697 106.861 146.218 106.861C144.738 106.861 143.539 108.047 143.539 109.511V117.395C142.604 117.808 141.953 118.736 141.953 119.815C141.953 121.277 143.151 122.464 144.632 122.464Z" fill="#452D06"/>
<path d="M82.3312 126.847C82.3312 125.384 81.1319 124.198 79.6521 124.198H61.2499C59.7706 124.198 58.5708 125.384 58.5708 126.847C58.5708 133.326 63.9004 138.597 70.4503 138.597C77.0021 138.598 82.3312 133.326 82.3312 126.847ZM64.505 129.497H76.3975C75.3736 131.736 73.0933 133.298 70.4508 133.298C67.8092 133.298 65.5288 131.736 64.505 129.497Z" fill="#452D06"/>
<path d="M69.6028 121.149H71.2991C72.7789 121.149 73.9782 119.962 73.9782 118.5V107.484C73.9782 106.02 72.7789 104.834 71.2991 104.834C69.8198 104.834 68.62 106.02 68.62 107.484V116.034C67.6265 116.422 66.9237 117.379 66.9237 118.5C66.9237 119.963 68.1239 121.149 69.6028 121.149Z" fill="#452D06"/>
<path d="M61.2971 104.94C61.2971 103.477 60.0978 102.291 58.6181 102.291H53.2634C51.7837 102.291 50.5844 103.477 50.5844 104.94C50.5844 106.403 51.7832 107.59 53.2634 107.59H58.6181C60.0978 107.59 61.2971 106.403 61.2971 104.94Z" fill="#452D06"/>
<path d="M82.2843 107.59H87.6389C89.1187 107.59 90.318 106.403 90.318 104.94C90.318 103.477 89.1187 102.291 87.6389 102.291H82.2843C80.805 102.291 79.6052 103.477 79.6052 104.94C79.6052 106.403 80.805 107.59 82.2843 107.59Z" fill="#452D06"/>
<path d="M204.221 100.224C206.471 91.9007 205.542 83.3437 201.605 76.13C195.066 64.1483 181.954 58.7055 169.343 62.5581C164.313 58.9042 158.434 56.3619 152.059 55.313C150.3 53.5771 148.337 52.1171 146.221 50.9504C141.427 33.8628 126.775 22.0378 110.19 22.0378H110.141C102.772 22.0484 95.9106 24.4574 90.297 29.0042C85.1165 33.1995 81.1626 39.1692 78.7153 46.4129C61.7959 33.8429 45.2633 38.3067 35.8677 46.4235C29.1597 52.2182 24.8446 60.4419 23.7171 69.5801C22.5102 79.3626 25.0393 89.3518 31.0154 98.5248V104.552C29.9281 106.24 29.2834 108.328 29.2834 110.586C29.2834 116.186 33.2453 120.743 38.1159 120.743C38.8294 120.743 39.5345 120.64 40.2176 120.448C42.1435 134.707 50.2852 146.329 60.9918 150.716V155.947C59.2182 155.293 57.2312 154.866 55.0294 154.844C54.1413 154.767 53.1925 155.056 52.4084 155.661C51.0099 156.738 50.1267 158.767 49.7128 161.918C35.8887 166.945 27.3768 176.5 27.3768 187.152V199.313C27.3768 200.776 28.5761 201.963 30.0558 201.963H180.013C181.493 201.963 182.693 200.776 182.693 199.313V187.153C182.693 186.224 182.629 185.305 182.515 184.396C188.727 183.809 193.659 181.469 197.196 177.409C204.859 168.614 202.917 155.068 202.83 154.495L202.826 154.496C202.635 153.218 201.525 152.237 200.179 152.237C198.7 152.237 197.5 153.423 197.5 154.887C197.5 157.926 195.001 160.398 191.928 160.398C188.855 160.398 186.356 157.925 186.356 154.887V124.923C195.592 117.83 201.764 109.316 204.221 100.224ZM180.998 95.9167V127.947C180.581 124.502 177.614 121.822 174.02 121.822C173.963 121.822 173.907 121.827 173.85 121.829C174.135 119.788 174.287 117.691 174.287 115.548V92.6815C174.287 91.218 173.088 90.0318 171.608 90.0318C171.585 90.0318 171.563 90.0345 171.54 90.0354C148.328 88.715 136.077 82.4728 129.889 77.4681C125.407 73.8434 123.401 70.3383 122.576 68.4694C128.761 63.2319 136.731 60.0692 145.424 60.0692C165.04 60.0692 180.998 76.1508 180.998 95.9167ZM175.695 128.777C175.695 129.69 174.944 130.433 174.02 130.433C173.098 130.433 172.347 129.69 172.347 128.777C172.347 128.703 172.359 128.631 172.369 128.559C172.421 128.392 172.472 128.224 172.521 128.056C172.793 127.505 173.36 127.122 174.02 127.122C174.944 127.122 175.695 127.864 175.695 128.777ZM153.681 107.855C153.833 107.915 153.991 107.966 154.147 108.023L153.344 109.759C152.73 111.09 153.322 112.662 154.668 113.27C155.029 113.433 155.407 113.51 155.779 113.51C156.796 113.51 157.768 112.935 158.218 111.961L159.443 109.309C160.107 109.398 160.781 109.456 161.459 109.497V111.842C161.459 113.305 162.659 114.492 164.138 114.492C165.617 114.492 166.817 113.305 166.817 111.842V109.311C167.533 109.215 168.236 109.084 168.929 108.932V115.549C168.929 132.661 158.385 146.582 145.425 146.582C132.464 146.582 121.92 132.661 121.92 115.549V108.941C122.613 109.091 123.318 109.215 124.033 109.31V111.842C124.033 113.305 125.233 114.492 126.713 114.492C128.192 114.492 129.392 113.305 129.392 111.842V109.497C130.069 109.456 130.742 109.398 131.406 109.309L132.632 111.962C133.083 112.935 134.054 113.51 135.071 113.51C135.443 113.51 135.822 113.433 136.183 113.27C137.528 112.661 138.121 111.089 137.505 109.758L136.703 108.023C136.858 107.966 137.017 107.915 137.17 107.855C138.547 107.32 139.225 105.783 138.684 104.42C138.143 103.058 136.589 102.387 135.211 102.923C132.971 103.793 130.379 104.253 127.717 104.253C125.702 104.253 123.732 103.984 121.92 103.477V92.5618C121.93 89.2895 122.983 82.3796 125.968 81.1612C133.241 87.2497 146.156 93.5289 168.929 95.1761V103.485C167.119 103.989 165.147 104.253 163.133 104.253C160.472 104.253 157.88 103.793 155.639 102.922C154.261 102.387 152.707 103.058 152.167 104.42C151.626 105.782 152.303 107.32 153.681 107.855ZM116.562 92.5539V115.548C116.562 117.692 116.715 119.79 116.999 121.832C116.942 121.831 116.886 121.823 116.828 121.823C113.238 121.823 110.274 124.498 109.852 127.936V95.9167C109.852 86.945 113.147 78.739 118.572 72.4448C119.348 73.8495 120.451 75.5109 122 77.2906C116.781 81.2491 116.566 91.1871 116.562 92.5539ZM118.502 128.777C118.502 129.69 117.751 130.433 116.828 130.433C115.905 130.433 115.154 129.69 115.154 128.777C115.154 127.864 115.905 127.122 116.828 127.122C117.489 127.122 118.056 127.505 118.328 128.057C118.377 128.225 118.429 128.392 118.48 128.559C118.49 128.631 118.502 128.702 118.502 128.777ZM108.864 77.4323C109.778 64.0264 117.663 58.6379 118.009 58.4083C118.072 58.3668 118.135 58.3235 118.195 58.2767C125.638 52.5291 134.819 51.4534 142.266 54.8909C127.651 56.0174 115.161 64.8959 108.864 77.4323ZM31.1002 87.0346C25.3759 71.8402 30.6761 57.9446 39.3925 50.4147C48.1464 42.8522 62.9846 39.5511 78.3728 52.9685L78.3969 52.9668C78.7099 53.2388 79.0908 53.4437 79.523 53.5488C80.9595 53.8955 82.4111 53.0281 82.7638 51.6075C86.532 36.4294 96.7688 27.3561 110.148 27.3371H110.184C120.884 27.3371 133.963 33.9803 139.721 48.4226C137.912 47.9837 136.046 47.7258 134.141 47.671C127.38 47.4802 120.578 49.7395 114.971 54.0425C113.945 54.7407 107.098 59.7596 104.454 70.8183C97.5421 60.5483 84.7383 53.4834 70.4494 53.4834C49.5636 53.4839 32.4201 68.3325 31.1002 87.0346ZM39.7805 114.822C39.3617 115.151 38.7991 115.443 38.1154 115.443C36.2316 115.443 34.6411 113.218 34.6411 110.586C34.6411 107.952 36.232 105.728 38.1154 105.728C38.7991 105.728 39.3621 106.019 39.7805 106.348V114.822ZM39.7805 89.3566V100.614C39.2349 100.493 38.6776 100.429 38.1154 100.429C37.5189 100.429 36.9362 100.498 36.3731 100.628V89.3566C36.3731 72.4978 51.66 58.7832 70.4494 58.7832C88.903 58.7832 104.493 72.1383 104.493 87.9474V100.619C103.936 100.494 103.365 100.429 102.786 100.429C102.224 100.429 101.667 100.493 101.121 100.614V89.4935C101.121 89.4701 101.118 89.4476 101.117 89.4251C101.118 89.4021 101.121 89.3796 101.121 89.3566C101.121 87.8931 99.9216 86.707 98.4419 86.707H71.2223L63.7753 72.6696C63.2516 71.6821 62.1567 71.1257 61.04 71.2754C59.9228 71.4269 59.0204 72.254 58.7837 73.3448L55.8832 86.7074H42.4596C40.9798 86.707 39.7805 87.8927 39.7805 89.3566ZM76.8841 163.934C78.8077 162.209 81.6712 160.381 85.3233 160.164C85.6171 160.876 86.1091 162.693 86.1091 166.877C86.1091 171.061 85.6171 172.878 85.3233 173.59C81.6717 173.372 78.8073 171.545 76.8841 169.82C77.3784 168.948 77.6637 167.946 77.6637 166.877C77.6637 165.808 77.3789 164.805 76.8841 163.934ZM85.872 154.844C83.6707 154.866 81.6837 155.293 79.9102 155.947V150.715C90.6167 146.329 98.7585 134.706 100.684 120.448C101.367 120.64 102.072 120.743 102.786 120.743C103.366 120.743 103.937 120.677 104.493 120.553V154.886C104.493 157.925 101.993 160.397 98.921 160.397C95.8485 160.397 93.3489 157.924 93.3489 154.886C93.3489 153.422 92.1496 152.236 90.6698 152.236C89.3254 152.236 88.2149 153.217 88.0229 154.494L88.0202 154.494C88.0095 154.566 87.9684 154.848 87.9211 155.301C87.2687 154.951 86.5512 154.785 85.872 154.844ZM102.786 115.443C102.103 115.443 101.54 115.151 101.121 114.822V106.348C101.539 106.019 102.102 105.728 102.786 105.728C103.492 105.728 104.067 106.033 104.494 106.382V114.783C104.077 115.123 103.499 115.443 102.786 115.443ZM45.1387 113.939V92.0063H58.0483C59.3115 92.0063 60.4028 91.1336 60.668 89.9126L62.4693 81.613L67.2305 90.5874C67.6931 91.4595 68.6066 92.0063 69.6028 92.0063H95.7632V113.939C95.7632 132.333 84.4083 147.299 70.4507 147.299C56.4936 147.299 45.1387 132.333 45.1387 113.939ZM55.5787 160.164C59.2307 160.382 62.0942 162.209 64.0169 163.934C63.5226 164.805 63.2373 165.808 63.2373 166.877C63.2373 167.946 63.5226 168.949 64.0169 169.82C62.0938 171.545 59.2298 173.372 55.5787 173.59C55.2848 172.878 54.7928 171.06 54.7928 166.877C54.7928 162.693 55.2848 160.876 55.5787 160.164ZM67.7716 196.663H45.1387V190.269C45.1387 188.805 43.9384 187.619 42.4596 187.619C40.9798 187.619 39.7805 188.805 39.7805 190.269V196.663H32.7349V187.151C32.7349 179.312 39.0451 172.081 49.4431 167.72C49.5288 173.294 50.4759 176.604 52.4088 178.093C53.1099 178.633 53.9431 178.922 54.745 178.922C54.8401 178.922 54.9352 178.917 55.0299 178.91C60.7404 178.853 65.0354 176.102 67.7716 173.602V196.663ZM71.559 167.615H69.342C68.9303 167.615 68.5955 167.284 68.5955 166.877C68.5955 166.47 68.9303 166.139 69.342 166.139H71.559C71.9707 166.139 72.3056 166.47 72.3056 166.877C72.3056 167.284 71.9707 167.615 71.559 167.615ZM71.559 160.839H69.342C69.0741 160.839 68.8125 160.862 68.5535 160.895C67.9257 160.267 67.1876 159.603 66.3495 158.953V152.251C67.6913 152.479 69.0598 152.598 70.4503 152.598C71.8407 152.598 73.2097 152.478 74.552 152.251V158.953C73.7139 159.603 72.9753 160.267 72.3471 160.895C72.089 160.862 71.8269 160.839 71.559 160.839ZM108.156 196.663H101.121V190.269C101.121 188.805 99.9221 187.619 98.4423 187.619C96.963 187.619 95.7632 188.805 95.7632 190.269V196.663H73.1298V173.602C75.8661 176.101 80.1615 178.853 85.872 178.91C85.9662 178.918 86.0613 178.922 86.1573 178.922C86.9597 178.922 87.7925 178.633 88.4935 178.093C89.646 177.204 90.4479 175.669 90.9261 173.393C91.6624 174.794 92.5559 176.15 93.6521 177.408C97.1037 181.37 101.883 183.692 107.882 184.348C108.051 185.222 108.15 186.103 108.161 186.985C108.16 187.041 108.156 196.663 108.156 196.663ZM97.7274 173.967C95.2671 171.153 94.0754 167.563 93.5289 164.283C95.1211 165.18 96.9608 165.697 98.9214 165.697C104.948 165.697 109.852 160.847 109.852 154.886V129.618C110.274 133.057 113.238 135.733 116.828 135.733C118.308 135.733 119.677 135.274 120.81 134.497C124.273 141.594 129.619 147.087 135.965 149.867V159.337C123.125 161.919 113.217 169.594 109.625 179.182C104.46 178.842 100.461 177.095 97.7274 173.967ZM163.465 194.27C163.465 194.32 163.461 196.663 163.461 196.663H127.387C127.387 196.663 127.383 194.32 127.383 194.27C127.383 188.857 130.427 185.368 133.677 184.37C137.289 183.261 140.735 184.871 143.132 188.785L143.133 188.784C143.35 189.139 143.652 189.449 144.036 189.679C145.302 190.437 146.949 190.036 147.715 188.785C150.112 184.871 153.558 183.261 157.17 184.37C160.42 185.368 163.465 188.839 163.465 194.27ZM177.334 196.663H168.819V194.494C169.192 187.481 165.064 181.243 158.758 179.308C154.838 178.105 149.597 178.624 145.424 183.025C141.251 178.623 136.012 178.105 132.09 179.309C125.785 181.244 121.657 187.481 122.03 194.494V196.663H113.526C113.526 196.663 113.522 186.999 113.521 186.923C113.668 175.92 124.358 166.373 139.056 164.172C140.455 163.962 141.434 162.718 141.323 161.345V151.508C142.664 151.749 144.032 151.881 145.425 151.881C146.817 151.881 148.185 151.749 149.525 151.508V161.476C149.525 161.476 149.423 163.79 151.98 164.201C166.657 166.562 177.334 176.122 177.334 187.152V196.663H177.334ZM191.928 165.697C193.893 165.697 195.738 165.179 197.334 164.276C196.789 167.544 195.598 171.124 193.137 173.949C190.402 177.089 186.396 178.842 181.22 179.182C177.621 169.605 167.71 161.92 154.883 159.339V149.868C161.229 147.088 166.575 141.597 170.038 134.501C171.17 135.276 172.541 135.733 174.02 135.733C177.614 135.733 180.581 133.052 180.998 129.607V154.886C180.998 160.847 185.901 165.697 191.928 165.697ZM174.344 66.8364C184.56 65.2704 192.841 71.2286 196.89 78.6476C202.181 88.3418 202.209 104.027 186.356 118.041V95.9167C186.356 84.57 181.759 74.2867 174.344 66.8364Z" fill="#452D06"/>
</g>
<defs>
<clipPath id="clip0_520_343">
<rect width="182" height="180" fill="white" transform="translate(23.4233 22)"/>
</clipPath>
</defs>
</svg>
