<svg width="236" height="240" viewBox="0 0 236 240" fill="none" xmlns="http://www.w3.org/2000/svg">
<rect y="240" width="240" height="202.271" rx="20" transform="rotate(-90 0 240)" fill="#FFC35B"/>
<ellipse cx="184.657" cy="120" rx="120" ry="50.5677" transform="rotate(-90 184.657 120)" fill="#FFC35B"/>
<g clip-path="url(#clip0_520_309)">
<path d="M78.7806 136.622C78.779 136.619 78.763 136.591 78.7611 136.588C77.8628 135.042 75.8977 134.534 74.3609 135.436C72.8238 136.337 72.3103 138.334 73.204 139.881C73.2055 139.884 73.2216 139.912 73.2234 139.915C73.8212 140.943 74.8914 141.513 75.9937 141.513C76.5476 141.513 77.1095 141.369 77.6237 141.067C79.1608 140.166 79.6739 138.17 78.7806 136.622Z" fill="#452D06"/>
<path d="M134.949 115.745C134.763 113.962 133.178 112.669 131.407 112.856C128.119 113.202 124.902 112.056 122.572 109.712C120.243 107.368 119.105 104.127 119.448 100.821C119.634 99.0391 118.348 97.4429 116.577 97.2566C114.806 97.069 113.22 98.364 113.035 100.146C112.488 105.407 114.302 110.566 118.013 114.301C121.289 117.598 125.668 119.407 130.246 119.407C130.854 119.407 131.466 119.375 132.078 119.31C133.849 119.124 135.134 117.527 134.949 115.745Z" fill="#452D06"/>
<path d="M134.24 92.3972C134.055 90.6153 132.474 89.3178 130.697 89.5079C129.724 89.6104 128.766 89.2706 128.075 88.5747C127.384 87.8794 127.046 86.9176 127.148 85.936C127.333 84.1534 126.048 82.5575 124.277 82.3712C122.502 82.1858 120.92 83.4783 120.734 85.2605C120.429 88.1977 121.443 91.0786 123.515 93.164C125.345 95.0058 127.79 96.0166 130.347 96.0163C130.686 96.0163 131.027 95.9986 131.369 95.9626C133.14 95.7757 134.425 94.1798 134.24 92.3972Z" fill="#452D06"/>
<path d="M149.741 107.997C149.556 106.215 147.971 104.92 146.199 105.107C145.223 105.21 144.268 104.87 143.576 104.174C142.885 103.479 142.548 102.517 142.649 101.535C142.835 99.7528 141.549 98.1569 139.778 97.9706C138.002 97.7836 136.421 99.0777 136.236 100.86C135.93 103.797 136.944 106.678 139.016 108.763C140.846 110.605 143.292 111.615 145.848 111.615C146.187 111.615 146.528 111.598 146.87 111.562C148.641 111.375 149.927 109.779 149.741 107.997Z" fill="#452D06"/>
<path d="M164.573 67.4455C164.561 67.4331 164.549 67.4216 164.536 67.4095L164.537 67.4092C164.524 67.3967 164.512 67.3859 164.499 67.3738C156.672 59.5346 146.285 55.218 135.238 55.218C124.157 55.218 113.738 59.5607 105.902 67.4458C89.7275 83.7234 89.7275 110.209 105.902 126.487C110.323 130.936 115.567 134.257 121.287 136.306C109.533 135.41 98.6039 130.374 90.1815 121.898C88.9224 120.632 86.881 120.632 85.6211 121.898C84.362 123.165 84.362 125.22 85.6211 126.488C96.1651 137.099 110.185 142.943 125.097 142.942C139.914 142.942 153.848 137.17 164.369 126.687C164.437 126.62 164.506 126.555 164.573 126.487L164.573 126.487C180.748 110.209 180.748 83.7231 164.573 67.4455ZM160.013 121.898C159.805 122.107 159.595 122.31 159.386 122.514C152.844 128.784 144.304 132.226 135.238 132.226C125.879 132.226 117.081 128.558 110.463 121.899C96.802 108.151 96.802 85.782 110.463 72.0351C117.08 65.3757 125.879 61.7081 135.238 61.7081C138.919 61.7081 142.512 62.278 145.922 63.3714C143.619 64.2456 141.506 65.6064 139.714 67.4098C136.941 70.201 135.413 73.9129 135.413 77.8606C135.413 81.8083 136.941 85.5199 139.715 88.3108C142.017 90.6284 144.91 92.0439 147.862 92.2973C148.185 92.3253 148.505 92.3389 148.824 92.3389C151.682 92.3389 154.343 91.2293 156.4 89.1599C160.658 84.874 160.789 79.4671 156.733 75.3852C155.473 74.1185 153.432 74.1185 152.172 75.3852C150.913 76.6523 150.913 78.7072 152.172 79.9745C152.86 80.6661 154.29 82.1052 151.84 84.5712C150.895 85.5218 149.74 85.9466 148.41 85.8311C146.972 85.7078 145.503 84.9588 144.275 83.7222C141.063 80.49 141.063 75.2309 144.274 71.999C148.592 67.6536 155.61 67.6433 159.942 71.9658C159.965 71.9891 159.989 72.0115 160.013 72.0351C173.673 85.7824 173.673 108.151 160.013 121.898Z" fill="#452D06"/>
<path d="M61.0713 154.532L61.0062 154.418C60.0943 152.88 58.1103 152.369 56.5816 153.286C55.0519 154.204 54.5476 156.189 55.4595 157.729C56.0529 158.783 57.1447 159.376 58.2683 159.376C58.8065 159.376 59.3524 159.24 59.8539 158.954C61.4033 158.072 61.9486 156.092 61.0713 154.532Z" fill="#452D06"/>
<path d="M175.647 56.3015C165.201 45.7895 151.312 40.0002 136.539 40.0002C121.766 40.0002 107.877 45.7898 97.4307 56.3021L50.0449 103.988C28.4807 125.689 28.4804 160.998 50.0443 182.699C60.4905 193.211 74.3791 199 89.1521 199C103.925 199 117.814 193.211 128.261 182.698L175.647 135.013C197.211 113.312 197.211 78.0022 175.647 56.3015ZM171.086 130.423L123.7 178.109C114.472 187.396 102.203 192.51 89.1521 192.51C76.1017 192.51 63.8326 187.396 54.6047 178.11C37.1914 160.587 35.6993 133.02 50.1209 113.77C49.8101 114.847 49.524 115.934 49.2772 117.032C47.0204 127.079 47.5373 137.546 50.7723 147.3C51.2228 148.659 52.481 149.518 53.8305 149.518C54.1687 149.518 54.5131 149.464 54.8516 149.35C56.5405 148.783 57.453 146.945 56.8892 145.245C51.0269 127.569 55.3355 108.438 68.1137 95.0602C67.699 96.4157 67.3308 97.788 67.0182 99.1787C64.7615 109.225 65.2784 119.692 68.5134 129.446C68.9639 130.806 70.2217 131.665 71.5715 131.665C71.9097 131.665 72.2538 131.611 72.5927 131.497C74.2816 130.93 75.1941 129.092 74.6303 127.392C68.6618 109.395 73.2293 89.8868 86.551 76.4814C86.5371 76.4768 86.5257 76.4718 86.5124 76.4671L101.991 60.891C111.219 51.6048 123.489 46.4901 136.54 46.4901C149.59 46.4901 161.859 51.6044 171.087 60.8907C190.136 80.0608 190.136 111.253 171.086 130.423Z" fill="#452D06"/>
</g>
<defs>
<clipPath id="clip0_520_309">
<rect width="158" height="159" fill="white" transform="translate(33.8457 40.0002)"/>
</clipPath>
</defs>
</svg>
