<svg width="141" height="124" viewBox="0 0 141 124" fill="none" xmlns="http://www.w3.org/2000/svg">
<g clip-path="url(#clip0_520_239)">
<path d="M81.5624 3.39062C81.8723 3.61014 82.1803 3.83179 82.4861 4.05569C83.6912 4.84408 84.9387 4.75042 86.3863 4.73779C90.9961 4.81488 94.7801 6.00569 98.18 8.86159C101.709 12.1553 102.722 15.9972 102.696 20.3986C102.693 20.9761 102.694 21.5536 102.697 22.1312C102.705 23.7717 102.708 25.4122 102.7 27.0528C102.696 28.0604 102.699 29.0678 102.707 30.0754C102.709 30.457 102.708 30.8387 102.703 31.2204C102.64 33.9477 102.64 33.9477 104.166 36.2302C104.294 36.3425 104.421 36.4547 104.553 36.5703C105.523 38.1231 105.572 40.1405 105.057 41.8284C103.998 44.3819 102.141 45.8373 99.3871 46.9692C98.5318 47.2266 98.5318 47.2266 97.437 47.2266C97.4465 47.3914 97.456 47.5562 97.4658 47.7261C97.648 53.4996 95.099 59.1092 90.8682 63.4531C90.7232 63.6164 90.5782 63.7797 90.4287 63.9479C89.4746 64.9923 88.3891 65.8283 87.1903 66.647C87.0364 66.7522 86.8824 66.8575 86.7238 66.9659C85.8739 67.5328 85.0344 67.9822 84.077 68.3877C83.4048 68.757 83.222 68.9883 82.8999 69.6393C82.7225 70.5655 82.8264 71.0476 83.2046 71.9297C86.3774 75.1327 91.9557 76.0138 96.3981 77.0839C97.9718 77.4644 99.5415 77.8577 101.111 78.2523C101.65 78.3866 102.191 78.5165 102.731 78.6458C107.01 79.7027 110.586 81.2839 113.021 84.6899C114.993 88.0459 115.5 92.0978 116.318 95.7728C116.445 96.3417 116.573 96.9105 116.7 97.4794C116.965 98.6653 117.229 99.8514 117.492 101.038C117.828 102.552 118.169 104.065 118.51 105.579C118.774 106.751 119.034 107.924 119.295 109.096C119.419 109.654 119.544 110.212 119.67 110.77C119.847 111.551 120.02 112.333 120.191 113.114C120.243 113.341 120.295 113.567 120.349 113.8C120.948 116.577 120.977 118.903 119.384 121.381C117.968 122.993 116.382 123.81 114.085 124.067C113.471 124.093 112.863 124.097 112.249 124.092C111.901 124.094 111.901 124.094 111.547 124.096C110.777 124.099 110.007 124.096 109.238 124.094C108.683 124.095 108.129 124.096 107.574 124.098C106.073 124.101 104.573 124.1 103.072 124.098C101.501 124.096 99.93 124.097 98.3589 124.099C95.7227 124.1 93.0865 124.098 90.4503 124.095C87.4003 124.091 84.3504 124.092 81.3005 124.096C78.6816 124.099 76.0626 124.1 73.4436 124.098C71.8795 124.097 70.3154 124.097 68.7512 124.099C67.2824 124.101 65.8137 124.1 64.3449 124.095C63.805 124.094 63.2651 124.095 62.7253 124.096C61.9903 124.098 61.2555 124.096 60.5206 124.092C60.1976 124.095 60.1976 124.095 59.8681 124.097C58.4348 124.083 58.4348 124.083 57.7634 123.674C57.318 123.051 57.2363 122.554 57.2031 121.82C57.5146 121.257 57.7966 120.811 58.2979 120.367C58.8071 120.344 59.3173 120.338 59.8271 120.338C60.1591 120.338 60.4911 120.337 60.8332 120.337C61.2044 120.338 61.5757 120.339 61.947 120.34C62.3353 120.34 62.7237 120.34 63.112 120.34C64.1694 120.339 65.2268 120.341 66.2843 120.343C67.3882 120.344 68.4921 120.344 69.596 120.345C71.6878 120.345 73.7796 120.347 75.8714 120.35C78.2522 120.352 80.6331 120.354 83.0139 120.355C87.9128 120.358 92.8117 120.362 97.7107 120.367C97.7079 120.034 97.7079 120.034 97.7051 119.693C97.6887 117.598 97.6762 115.503 97.6681 113.407C97.6638 112.33 97.658 111.253 97.6487 110.175C97.6398 109.136 97.6349 108.096 97.6327 107.057C97.6312 106.66 97.6283 106.263 97.6238 105.867C97.6179 105.311 97.6171 104.756 97.6174 104.2C97.6147 103.726 97.6147 103.726 97.6119 103.242C97.7165 102.398 97.8491 102.061 98.5318 101.477C99.5001 101.197 99.9795 101.164 100.927 101.507C101.66 102.047 101.809 102.369 102.09 103.172C102.156 103.97 102.156 103.97 102.152 104.888C102.152 105.056 102.152 105.224 102.152 105.397C102.152 105.948 102.148 106.5 102.143 107.052C102.142 107.435 102.142 107.819 102.141 108.203C102.139 109.211 102.133 110.218 102.127 111.226C102.122 112.255 102.119 113.285 102.117 114.314C102.111 116.332 102.101 118.349 102.09 120.367C102.558 120.358 102.558 120.358 103.036 120.349C103.237 120.345 103.438 120.341 103.645 120.337C104.084 120.329 104.523 120.321 104.962 120.312C105.865 120.295 106.768 120.278 107.672 120.262C111.743 120.383 111.743 120.383 115.381 119.156C116.37 117.939 116.166 116.567 115.954 115.125C115.82 114.442 115.67 113.763 115.513 113.084C115.456 112.827 115.399 112.571 115.34 112.307C115.153 111.466 114.962 110.626 114.77 109.787C114.637 109.199 114.505 108.611 114.373 108.023C114.096 106.793 113.816 105.563 113.536 104.334C113.178 102.763 112.824 101.191 112.472 99.6189C112.2 98.4052 111.925 97.1919 111.649 95.9787C111.518 95.3996 111.388 94.8202 111.258 94.2408C111.076 93.429 110.89 92.618 110.704 91.807C110.626 91.4521 110.626 91.4521 110.545 91.0901C109.98 88.6639 109.197 86.4261 107.016 84.7656C104.979 83.5833 102.825 82.9105 100.498 82.3229C100.175 82.239 99.8529 82.155 99.5206 82.0685C98.502 81.8042 97.482 81.5442 96.4619 81.2842C95.7681 81.1044 95.0744 80.9243 94.3808 80.744C92.4897 80.2548 92.4897 80.2548 90.5971 79.7701C90.3448 79.7057 90.0925 79.6412 89.8326 79.5748C89.242 79.4175 89.242 79.4175 88.6786 79.4375C88.5682 79.7173 88.4579 79.9971 88.3442 80.2853C87.9327 81.3266 87.5177 82.3667 87.1016 83.4064C86.9222 83.856 86.7439 84.3058 86.5665 84.756C86.3108 85.4043 86.0517 86.0514 85.7919 86.6984C85.7137 86.8987 85.6356 87.0991 85.555 87.3055C85.0005 88.6732 84.4297 89.7121 82.9993 90.5176C82.1098 90.8203 82.1098 90.8203 81.0588 90.8846C79.8068 91.0131 79.2206 91.4793 78.3293 92.2734C78.0488 92.5162 77.7676 92.7584 77.4858 93C77.2753 93.1826 77.2753 93.1826 77.0606 93.3689C75.9796 94.2789 74.7953 95.0888 73.6251 95.9062C73.4332 96.0411 73.2412 96.176 73.0435 96.3149C72.0978 96.9007 71.2404 96.9205 70.1183 96.9355C69.84 96.9418 69.5616 96.948 69.2748 96.9545C67.6591 96.8034 66.6054 96.0792 65.4483 95.1191C65.2134 94.9268 64.9784 94.7345 64.7363 94.5364C64.5084 94.349 64.2805 94.1617 64.0456 93.9687C63.4829 93.5254 62.9168 93.0866 62.3446 92.6528C61.9092 92.3147 61.4959 91.9547 61.0863 91.5923C60.0325 90.9523 59.1921 90.851 57.9376 90.7361C56.9962 90.5336 56.5453 90.189 55.8346 89.6094C55.4528 89.003 55.4528 89.003 55.1557 88.3161C55.0431 88.0592 54.9304 87.8023 54.8143 87.5376C54.6994 87.2622 54.5845 86.9868 54.4662 86.7031C54.346 86.4193 54.2258 86.1355 54.102 85.843C53.7316 84.9562 53.3706 84.0668 53.0121 83.1763C52.8865 82.8689 52.7609 82.5616 52.6353 82.2543C52.5179 81.9638 52.4006 81.6733 52.2798 81.374C52.1738 81.1122 52.0679 80.8504 51.9587 80.5807C51.7292 79.9219 51.7292 79.9219 51.7292 79.1953C50.1332 79.6213 48.5373 80.0475 46.9414 80.4739C46.4005 80.6184 45.8597 80.7629 45.3187 80.9072C43.7702 81.3205 42.2222 81.735 40.6748 82.1515C40.2126 82.2758 39.7503 82.3998 39.2878 82.5234C38.685 82.6847 38.0828 82.8475 37.4808 83.0107C37.1475 83.1005 36.8143 83.1902 36.471 83.2827C34.007 84.0355 32.2509 85.1914 30.928 87.1875C29.6363 90.0151 29.1395 93.1452 28.469 96.121C28.3418 96.6808 28.2145 97.2407 28.0871 97.8005C27.8218 98.9685 27.5579 100.137 27.2949 101.305C26.9587 102.798 26.6184 104.291 26.277 105.783C26.0136 106.937 25.7526 108.091 25.4924 109.246C25.3679 109.796 25.2426 110.346 25.1165 110.896C24.9404 111.666 24.7677 112.436 24.5958 113.206C24.5437 113.43 24.4917 113.655 24.4381 113.885C24.0769 115.528 23.6816 117.33 24.4276 118.914C25.4717 119.97 26.6766 119.996 28.191 120.125C29.0005 120.167 29.8095 120.186 30.6201 120.202C30.817 120.206 31.0138 120.211 31.2167 120.215C31.9415 120.232 32.6664 120.246 33.3913 120.261C34.2701 120.28 35.149 120.299 36.0278 120.318C36.4644 120.327 36.901 120.337 37.3376 120.346C37.6611 120.353 37.9846 120.36 38.3179 120.367C38.3152 120.034 38.3152 120.034 38.3124 119.693C38.2959 117.598 38.2834 115.503 38.2753 113.407C38.2711 112.33 38.2652 111.253 38.2559 110.175C38.247 109.136 38.2421 108.096 38.24 107.057C38.2385 106.66 38.2355 106.263 38.2311 105.867C38.2251 105.311 38.2243 104.756 38.2247 104.2C38.2219 103.726 38.2219 103.726 38.2191 103.242C38.3237 102.398 38.4563 102.061 39.139 101.477C40.1158 101.195 40.5852 101.159 41.5339 101.522C42.2024 101.998 42.3992 102.227 42.6971 102.93C42.7629 103.708 42.7629 103.708 42.7592 104.64C42.7593 104.811 42.7594 104.981 42.7595 105.156C42.7591 105.717 42.7548 106.278 42.7505 106.839C42.7495 107.228 42.7487 107.618 42.7482 108.007C42.7461 109.031 42.7407 110.056 42.7347 111.08C42.7291 112.125 42.7266 113.171 42.7238 114.216C42.7179 116.266 42.7086 118.317 42.6971 120.367C42.9401 120.362 43.1831 120.357 43.4334 120.352C44.3373 120.335 45.241 120.323 46.145 120.314C46.5359 120.309 46.9266 120.302 47.3174 120.294C47.88 120.282 48.4423 120.277 49.005 120.273C49.3433 120.267 49.6815 120.262 50.03 120.257C50.9081 120.367 50.9081 120.367 51.5658 120.804C52.203 121.579 52.1536 122.097 52.0029 123.031C51.598 123.561 51.598 123.561 50.9081 124C50.0693 124.096 49.3292 124.132 48.4906 124.125C48.2466 124.127 48.0025 124.129 47.7511 124.13C46.9438 124.135 46.1367 124.132 45.3293 124.129C44.7667 124.129 44.2042 124.13 43.6416 124.131C42.4613 124.133 41.281 124.131 40.1007 124.126C38.5932 124.121 37.0859 124.124 35.5785 124.13C34.4157 124.133 33.2529 124.132 32.0901 124.13C31.5347 124.129 30.9793 124.13 30.4239 124.132C23.8178 124.153 23.8178 124.153 21.2031 122.009C19.4262 120.106 19.1834 117.646 19.4326 115.281C19.7594 113.256 20.2496 111.252 20.7113 109.248C20.8439 108.663 20.9763 108.077 21.1085 107.491C21.3852 106.267 21.6643 105.044 21.9451 103.821C22.3035 102.26 22.657 100.699 23.0088 99.1367C23.2815 97.9282 23.5562 96.72 23.8317 95.512C23.9627 94.9366 24.0932 94.361 24.2231 93.7854C24.4057 92.9786 24.591 92.1723 24.777 91.3661C24.8294 91.1324 24.8817 90.8987 24.9357 90.6579C25.8488 86.7442 27.3649 83.2548 31.2017 80.8906C33.3609 79.8062 35.5349 79.0923 37.9268 78.5205C38.4838 78.3868 39.039 78.2484 39.5941 78.1088C41.1699 77.7129 42.7471 77.3221 44.3276 76.9413C51.2453 75.463 51.2453 75.463 56.9294 71.9297C57.3389 70.9944 57.4583 70.4722 57.2897 69.4832C56.7366 68.4054 55.958 68.0403 54.7976 67.5031C49.2207 64.8556 45.5199 59.2415 43.7063 54.0229C43.0483 51.8286 42.6379 49.5 42.6971 47.2266C42.3414 47.1766 41.9858 47.1267 41.6194 47.0752C39.1582 46.5829 37.2864 45.1507 35.8546 43.3516C34.7548 41.7584 34.7546 39.8269 35.0335 38.0234C35.5475 36.7771 36.1537 35.5791 37.2231 34.6328C37.3095 34.1698 37.3095 34.1698 37.3017 33.635C37.3072 33.3254 37.3072 33.3254 37.3128 33.0095C37.3142 32.785 37.3157 32.5605 37.3172 32.3292C37.3212 32.0966 37.3252 31.864 37.3293 31.6243C37.3421 30.8764 37.3514 30.1284 37.3599 29.3804C37.4627 20.6024 37.4627 20.6024 38.8653 18.8906C39.6864 18.4062 39.6864 18.4062 40.6443 18.4517C41.868 18.703 41.868 18.703 42.4234 19.375C42.5132 19.9606 42.5132 19.9606 42.4918 20.6313C42.4876 20.8496 42.4833 21.0678 42.479 21.2926C42.4382 21.8402 42.3693 22.3864 42.2847 22.9301C42.139 23.9467 42.1144 24.9434 42.1229 25.967C42.1233 26.1471 42.1237 26.3271 42.1241 26.5126C42.1256 27.08 42.1291 27.6474 42.1326 28.2148C42.1339 28.6027 42.1352 28.9906 42.1363 29.3785C42.1393 30.3226 42.144 31.2668 42.1497 32.2109C42.4206 32.131 42.6916 32.0511 42.9708 31.9687C43.0442 31.8239 43.1175 31.679 43.1932 31.5298C43.6716 30.7499 44.2979 30.4708 45.1604 30.0312C46.0189 29.8647 46.0189 29.8647 46.9907 29.7891C47.3807 29.7533 47.7706 29.7166 48.1604 29.6793C48.3776 29.6592 48.5949 29.639 48.8187 29.6183C59.4952 28.5604 69.7385 26.0538 79.7745 22.7387C81.7096 22.1378 83.4775 22.0492 85.3824 22.7599C87.5195 23.7073 89.3614 25.0986 91.2199 26.4126C91.9038 26.8954 92.5955 27.3663 93.2962 27.8298C93.4683 27.9451 93.6404 28.0604 93.8177 28.1792C94.1446 28.3978 94.4734 28.6143 94.8044 28.8281C95.9385 29.5939 96.5473 30.3411 97.1633 31.4844C97.1633 31.7241 97.1633 31.9639 97.1633 32.2109C97.4342 32.2109 97.7052 32.2109 97.9844 32.2109C98.0099 30.3034 98.0293 28.3958 98.0411 26.4881C98.0468 25.602 98.0544 24.716 98.0669 23.8299C98.079 22.9725 98.0854 22.1152 98.0882 21.2577C98.0912 20.7764 98.0997 20.2952 98.1084 19.8139C98.1092 16.7874 97.3083 14.148 94.9737 11.8672C93.056 10.3202 90.7083 8.94368 88.0247 8.96649C87.5331 8.98788 87.0415 9.00997 86.5501 9.03265C83.011 9.18808 81.081 8.41941 78.2392 6.61143C73.7004 3.80447 67.1768 3.51997 61.887 4.28558C55.4518 5.41776 49.9652 8.72282 46.221 13.449C45.7078 14.0469 45.7078 14.0469 44.8867 14.5312C44.1201 14.5846 43.4291 14.4951 42.6971 14.2891C41.9686 13.6249 41.8857 13.2238 41.8247 12.3061C42.3088 10.9308 43.274 10.0297 44.3393 8.96093C44.5361 8.75457 44.733 8.54821 44.9359 8.33559C53.8912 -0.843578 69.8984 -2.72996 81.5624 3.39062ZM80.0763 26.7768C79.661 26.9105 79.2456 27.0441 78.8302 27.1774C78.612 27.248 78.3938 27.3185 78.169 27.3912C73.4269 28.9175 68.6878 30.219 63.7719 31.2422C63.2857 31.3436 63.2857 31.3436 62.7897 31.4471C57.5849 32.5111 52.3767 33.1328 47.0763 33.6641C47.0571 35.5865 47.0426 37.5089 47.0337 39.4314C47.0295 40.3245 47.0237 41.2176 47.0143 42.1107C46.936 49.7549 47.8196 56.4083 54.1262 62.1996C58.8672 66.0951 64.7164 68.0144 71.1607 67.8806C77.1187 67.5716 82.2327 65.4629 86.489 61.7578C86.7007 61.5736 86.9124 61.3894 87.1305 61.1996C91.8292 56.8568 93.1385 51.4106 93.1593 45.5625C93.1618 45.2003 93.1643 44.8381 93.1668 44.4759C93.1713 43.723 93.1734 42.9702 93.1742 42.2173C93.1757 41.2541 93.1861 40.2912 93.1985 39.3281C93.2067 38.5829 93.2086 37.8376 93.2089 37.0923C93.2101 36.7371 93.2135 36.3818 93.2192 36.0266C93.2266 35.5311 93.2252 35.0362 93.2218 34.5406C93.2232 34.2595 93.2246 33.9784 93.226 33.6888C93.0075 32.7131 92.5331 32.3596 91.6893 31.7266C91.4662 31.5565 91.4662 31.5565 91.2386 31.383C91.0425 31.2482 91.0425 31.2482 90.8425 31.1107C90.6922 31.0067 90.5418 30.9027 90.3869 30.7956C90.2296 30.6882 90.0723 30.5808 89.9102 30.4702C89.7448 30.3564 89.5794 30.2427 89.4089 30.1254C89.0647 29.8889 88.7201 29.6528 88.3752 29.417C87.8669 29.069 87.3606 28.7188 86.8546 28.3681C86.5389 28.1504 86.2232 27.9328 85.9074 27.7153C85.6244 27.5202 85.3415 27.3251 85.0499 27.124C83.244 25.9608 82.1283 26.0987 80.0763 26.7768ZM41.0549 36.9941C40.8629 37.1178 40.671 37.2414 40.4733 37.3688C39.6116 38.0614 39.3228 38.762 39.2587 39.7793C39.286 40.9951 39.8753 41.6213 40.7758 42.4963C41.4006 42.9715 41.4006 42.9715 42.6971 43.1094C42.6971 40.8716 42.6971 38.6337 42.6971 36.3281C41.9458 36.3281 41.6538 36.6006 41.0549 36.9941ZM97.437 36.3281C97.437 38.6459 97.437 40.9636 97.437 43.3516C99.4317 42.5011 99.4317 42.5011 100.683 40.9647C101.015 40.0394 101.014 39.5392 100.721 38.5835C99.8773 37.3465 99.0637 36.688 97.437 36.3281ZM61.5823 70.4765C61.446 72.158 61.8869 73.3237 62.6408 74.8558C62.7488 75.0825 62.8569 75.3092 62.9682 75.5427C63.3123 76.2622 63.6619 76.9794 64.0114 77.6968C64.2445 78.1834 64.4772 78.6701 64.7096 79.157C65.3492 80.4898 65.3492 80.4898 65.9945 81.8204C66.124 82.0867 66.124 82.0867 66.2561 82.3584C66.5253 82.8874 66.5253 82.8874 67.0563 83.5547C67.7189 83.6555 67.7189 83.6555 68.4868 83.6256C68.7691 83.6233 69.0513 83.6209 69.3421 83.6185C69.7856 83.6094 69.7856 83.6094 70.2381 83.6001C70.5359 83.5968 70.8336 83.5935 71.1404 83.5901C71.8776 83.5816 72.6144 83.5696 73.3514 83.5547C73.4125 83.4253 73.4736 83.2959 73.5366 83.1626C74.1712 81.8189 74.8062 80.4754 75.4412 79.1319C75.6784 78.6301 75.9155 78.1283 76.1525 77.6265C76.4927 76.9063 76.8331 76.1861 77.1736 75.466C77.2799 75.2407 77.3863 75.0154 77.4959 74.7833C77.5945 74.5748 77.6931 74.3664 77.7947 74.1516C77.925 73.8757 77.925 73.8757 78.0581 73.5942C78.2117 73.2773 78.3774 72.9647 78.5517 72.6562C78.5706 72.3236 78.5749 71.9902 78.5688 71.6572C78.5632 71.3475 78.5575 71.0378 78.5517 70.7187C78.3368 70.7509 78.122 70.7831 77.9006 70.8162C77.613 70.8589 77.3255 70.9017 77.0292 70.9458C76.7466 70.9879 76.464 71.0301 76.1729 71.0735C75.874 71.1163 75.5752 71.159 75.2673 71.2031C74.8339 71.2687 74.8339 71.2687 74.3917 71.3356C70.03 71.7957 65.812 71.4652 61.5823 70.4765ZM56.9123 76.6523C56.6608 76.8097 56.4092 76.967 56.15 77.1291C55.9556 77.2515 55.7612 77.3739 55.5609 77.5C56.6744 80.5129 57.8285 83.5036 59.119 86.4609C60.3757 86.4609 60.5784 86.295 61.5139 85.6133C61.7327 85.4559 61.9514 85.2986 62.1768 85.1365C62.3419 85.0141 62.507 84.8917 62.6771 84.7656C61.9901 82.8054 61.0853 80.939 60.1625 79.0591C60.0079 78.7423 59.8534 78.4256 59.699 78.1088C59.3243 77.3403 58.9483 76.5724 58.5716 75.8047C57.983 75.8047 57.3657 76.3679 56.9123 76.6523ZM81.5624 75.8047C80.2076 78.6819 78.8528 81.559 77.4569 84.5234C78.4762 85.4253 79.2609 86.0625 80.4676 86.7031C80.6482 86.7031 80.8289 86.7031 81.015 86.7031C81.5299 85.4758 82.0416 84.2474 82.5502 83.018C82.7237 82.5998 82.8982 82.1818 83.0736 81.7642C83.3252 81.1644 83.5737 80.5636 83.8215 79.9625C83.9007 79.7756 83.98 79.5886 84.0616 79.396C84.5185 78.3423 84.5185 78.3423 84.2994 77.2578C83.3962 76.7783 82.493 76.2987 81.5624 75.8047ZM64.0456 88.6406C65.0362 89.5284 66.0512 90.3861 67.0905 91.229C67.2341 91.3465 67.3777 91.4641 67.5257 91.5852C68.1689 92.1075 68.7914 92.5704 69.5196 93C70.7571 92.9455 71.4204 92.4552 72.3421 91.7588C72.7327 91.4661 72.7327 91.4661 73.1312 91.1675C73.3845 90.973 73.6378 90.7785 73.8988 90.5781C74.1239 90.4061 74.349 90.2341 74.5809 90.0568C75.086 89.668 75.5886 89.2769 76.0884 88.8828C75.8682 88.688 75.6481 88.4932 75.4213 88.2925C75.0962 88.0049 74.7712 87.7173 74.4462 87.4297C73.2674 87.359 72.0869 87.3536 70.9058 87.3449C70.5091 87.3409 70.1126 87.3343 69.7161 87.325C66.6004 87.2237 66.6004 87.2237 64.0456 88.6406Z" fill="#164A41"/>
</g>
<defs>
<clipPath id="clip0_520_239">
<rect width="140.134" height="124" fill="white"/>
</clipPath>
</defs>
</svg>
