<svg width="236" height="240" viewBox="0 0 236 240" fill="none" xmlns="http://www.w3.org/2000/svg">
<rect x="0.00012207" y="240" width="240" height="202.271" rx="20" transform="matrix(0 -1 1 0 -240 240)" fill="#FFC35B"/>
<ellipse cx="184.657" cy="120" rx="120" ry="50.5677" transform="rotate(-90 184.657 120)" fill="#FFC35B"/>
<g clip-path="url(#clip0_520_306)">
<path d="M114.425 144.702C108.681 144.702 104.008 140.084 104.008 134.408C104.008 133.059 105.116 131.965 106.481 131.965H122.371C123.737 131.965 124.844 133.059 124.844 134.408C124.844 140.084 120.17 144.702 114.425 144.702ZM109.546 136.852C110.45 138.609 112.298 139.815 114.425 139.815C116.554 139.815 118.402 138.609 119.307 136.852H109.546Z" fill="#452D06"/>
<path d="M115.157 129.65H113.693C112.327 129.65 111.22 128.557 111.22 127.207C111.22 126.213 111.821 125.357 112.684 124.975V117.704C112.684 116.354 113.791 115.26 115.157 115.26C116.523 115.26 117.63 116.355 117.63 117.704V127.207C117.63 128.557 116.523 129.65 115.157 129.65Z" fill="#452D06"/>
<path d="M183.497 75.7968C174.754 71.4451 164.931 72.6266 156.088 78.96C153.622 71.9961 149.382 66.7374 143.767 63.6662C139.332 47.9236 125.814 37.0332 110.515 37.0332H110.471C103.669 37.0426 97.3341 39.2638 92.1514 43.4571C87.368 47.3274 83.717 52.8353 81.4583 59.519C70.9865 51.7784 59.2625 50.1147 48.8188 55.0235C37.1084 60.5282 29.899 72.9731 30.453 86.7287C30.8322 96.1321 34.8349 105.433 42.0286 113.624C50.005 122.708 61.6515 130.272 76.6416 136.133V159.551C76.6416 162.354 74.3338 164.634 71.4976 164.634C68.6614 164.634 66.354 162.354 66.354 159.551C66.354 158.202 65.2465 157.108 63.881 157.108C62.6395 157.108 61.6148 158.013 61.4376 159.191L61.4347 159.19C61.3552 159.718 59.5605 172.211 66.6335 180.322C69.8992 184.067 74.4512 186.224 80.1846 186.765C80.0799 187.604 80.0218 188.452 80.0218 189.308V200.523C80.0218 201.873 81.1293 202.967 82.4949 202.967H146.354C147.72 202.967 148.827 201.873 148.827 200.523V189.308C148.827 188.452 148.769 187.604 148.664 186.766C154.397 186.225 158.95 184.067 162.216 180.322C169.289 172.211 167.496 159.718 167.416 159.19L167.413 159.191C167.236 158.013 166.211 157.108 164.969 157.108C163.604 157.108 162.496 158.203 162.496 159.551C162.496 162.354 160.189 164.634 157.352 164.634C154.516 164.634 152.209 162.354 152.209 159.551V146.031C166.779 141.425 178.213 135.125 186.197 127.28C193.394 120.208 197.583 111.997 198.313 103.534C199.32 91.8554 193.366 80.7084 183.497 75.7968ZM35.3954 86.5344C34.9202 74.7362 41.0233 64.1 50.9436 59.4371C60.5098 54.9413 71.5178 57.1727 81.1446 65.5588L81.1545 65.5478C81.4455 65.8036 81.8016 65.9962 82.2064 66.0944C83.5311 66.4141 84.8723 65.6146 85.1979 64.304C88.6763 50.3049 98.1271 41.9375 110.478 41.9208H110.51C120.388 41.9208 132.467 48.0409 137.782 61.3603C129.755 59.429 120.876 61.6132 114.084 67.2241C93.4068 67.4082 76.6416 84.3572 76.6416 105.167V130.862C51.0915 120.403 36.1143 104.377 35.3954 86.5344ZM140.822 129.059C140.769 129.059 140.718 129.064 140.665 129.066C140.928 127.183 141.069 125.249 141.069 123.273V102.184C141.069 100.834 139.961 99.7402 138.595 99.7402C138.574 99.7402 138.554 99.743 138.534 99.7434C117.105 98.5257 105.798 92.7689 100.085 88.1533C95.9467 84.8105 94.0944 81.5779 93.3335 79.8544C99.0434 75.0242 106.401 72.1073 114.425 72.1073C132.532 72.1073 147.263 86.938 147.263 105.167V134.707C146.879 131.53 144.14 129.059 140.822 129.059ZM142.368 135.472C142.368 136.315 141.674 137 140.822 137C139.97 137 139.277 136.315 139.277 135.472C139.277 135.403 139.289 135.337 139.298 135.27C139.345 135.116 139.393 134.963 139.438 134.808C139.689 134.3 140.213 133.946 140.822 133.946C141.675 133.946 142.368 134.631 142.368 135.472ZM87.7819 102.066V123.273C87.7819 125.249 87.9233 127.183 88.1854 129.067C88.1326 129.066 88.0807 129.059 88.0275 129.059C84.714 129.059 81.9776 131.526 81.5881 134.697V105.167C81.5881 96.8917 84.6308 89.323 89.6396 83.5182C90.3559 84.8137 91.3711 86.3455 92.803 87.9888C87.9842 91.6387 87.786 100.806 87.7819 102.066ZM89.5732 135.472C89.5732 136.315 88.8799 137 88.0275 137C87.1751 137 86.4819 136.315 86.4819 135.472C86.4819 134.631 87.1751 133.946 88.0275 133.946C88.6376 133.946 89.1614 134.3 89.4124 134.808C89.4578 134.963 89.5056 135.116 89.5526 135.27C89.5612 135.337 89.5732 135.403 89.5732 135.472ZM92.728 117.177C93.3681 117.315 94.0189 117.432 94.6792 117.519V119.854C94.6792 121.203 95.7868 122.297 97.1523 122.297C98.5178 122.297 99.6254 121.202 99.6254 119.854V117.691C100.251 117.654 100.872 117.599 101.485 117.518L102.617 119.964C103.032 120.862 103.93 121.393 104.868 121.393C105.212 121.393 105.561 121.321 105.894 121.171C107.136 120.61 107.683 119.16 107.115 117.932L106.375 116.332C106.518 116.279 106.665 116.232 106.806 116.177C108.077 115.683 108.703 114.265 108.203 113.009C107.704 111.753 106.268 111.135 104.997 111.628C102.93 112.431 100.538 112.855 98.0793 112.855C96.2204 112.855 94.3998 112.611 92.7284 112.146V102.073C92.7379 99.0551 93.7102 92.6834 96.4648 91.5589C103.18 97.1744 115.102 102.966 136.122 104.485V112.138C134.452 112.605 132.634 112.855 130.772 112.855C128.315 112.855 125.923 112.431 123.855 111.628C122.584 111.135 121.148 111.754 120.649 113.009C120.15 114.266 120.776 115.684 122.047 116.177C122.189 116.232 122.334 116.28 122.478 116.332L121.737 117.933C121.169 119.161 121.716 120.61 122.958 121.171C123.292 121.322 123.641 121.393 123.985 121.393C124.923 121.393 125.82 120.862 126.236 119.964L127.367 117.518C127.98 117.6 128.602 117.654 129.227 117.691V119.854C129.227 121.203 130.335 122.298 131.7 122.298C133.066 122.298 134.173 121.203 134.173 119.854V117.52C134.834 117.432 135.484 117.314 136.123 117.174V123.273C136.123 139.054 126.39 151.893 114.426 151.893C102.462 151.893 92.7284 139.054 92.7284 123.273L92.728 117.177ZM81.3775 181.959C76.6098 181.645 72.9188 180.033 70.395 177.149C68.1243 174.553 67.0238 171.243 66.5193 168.218C67.9896 169.046 69.6881 169.521 71.4976 169.521C77.0611 169.521 81.5877 165.049 81.5877 159.551V136.248C81.9772 139.42 84.7136 141.887 88.0271 141.887C89.3927 141.887 90.658 141.465 91.7033 140.75C94.9002 147.294 99.8352 152.359 105.693 154.922V163.655C93.8396 166.036 84.693 173.115 81.3775 181.959ZM131.079 195.873C131.077 195.919 131.075 195.966 131.075 196.013V198.08H97.7751V196.013C97.7751 195.966 97.7735 195.919 97.771 195.873C97.4837 190.912 100.581 187.663 103.581 186.743C106.915 185.721 110.097 187.205 112.309 190.814C113.017 191.969 114.538 192.338 115.706 191.639C116.06 191.427 116.339 191.141 116.539 190.814C118.752 187.204 121.933 185.719 125.269 186.743C128.268 187.663 131.366 190.912 131.079 195.873ZM143.881 198.08H136.021V196.079C136.365 189.612 132.555 183.86 126.734 182.075C123.114 180.965 118.276 181.443 114.425 185.503C110.573 181.443 105.735 180.965 102.116 182.075C96.2954 183.86 92.4848 189.612 92.829 196.079V198.08H84.9688V189.309C84.9688 179.072 94.8853 170.159 108.547 168.115C109.84 167.922 110.743 166.773 110.64 165.505V156.436C111.877 156.659 113.14 156.78 114.426 156.78C115.711 156.78 116.973 156.659 118.211 156.436V165.629C118.211 166.57 118.75 167.385 119.539 167.793C119.816 167.967 120.133 168.089 120.478 168.142C134.039 170.234 143.882 179.136 143.882 189.308L143.881 198.08ZM157.353 169.522C159.167 169.522 160.87 169.044 162.343 168.212C161.84 171.225 160.741 174.527 158.47 177.132C155.944 180.028 152.247 181.645 147.468 181.959C144.147 173.126 134.998 166.038 123.157 163.658V154.923C129.015 152.359 133.95 147.296 137.146 140.752C138.192 141.467 139.458 141.887 140.823 141.887C144.14 141.887 146.879 139.415 147.264 136.238V159.551C147.263 165.049 151.79 169.522 157.353 169.522ZM193.384 103.12C192.728 110.734 187.35 129.328 152.21 140.896V105.167C152.21 86.8122 139.165 71.4597 121.899 67.9666C126.925 65.4655 132.614 64.8436 137.742 66.4137C144.948 68.6198 150.141 74.759 152.363 83.7002C152.64 84.8153 153.65 85.5619 154.763 85.5619C154.958 85.5619 155.156 85.5387 155.354 85.4906C155.759 85.3924 156.114 85.2006 156.405 84.9453L156.413 84.9546C164.384 78.0115 173.445 76.2651 181.272 80.1606C189.354 84.1841 194.222 93.4104 193.384 103.12Z" fill="#452D06"/>
</g>
<defs>
<clipPath id="clip0_520_306">
<rect width="168" height="166" fill="white" transform="translate(30.4233 37.0002)"/>
</clipPath>
</defs>
</svg>
