<svg width="134" height="124" viewBox="0 0 134 124" fill="none" xmlns="http://www.w3.org/2000/svg">
<g clip-path="url(#clip0_520_247)">
<path d="M57.959 -0.0428753C58.1593 -0.0444668 58.3595 -0.0460582 58.5659 -0.0476979C59.2258 -0.0524532 59.8858 -0.0552981 60.5458 -0.0577164C60.7734 -0.0587034 61.001 -0.0596905 61.2356 -0.0607074C62.4433 -0.0657525 63.6511 -0.0692176 64.8588 -0.0714932C66.0924 -0.0741535 67.326 -0.0824642 68.5596 -0.0921207C69.5195 -0.0985276 70.4795 -0.100487 71.4395 -0.10135C71.8933 -0.102513 72.3472 -0.10528 72.801 -0.109836C81.2415 -0.189219 88.5265 2.66138 94.7174 8.0461C97.8111 10.9856 100.058 14.4343 101.633 18.27C101.704 18.4399 101.776 18.6098 101.849 18.7848C103.509 23.0788 103.349 27.5774 103.37 32.0715C103.376 33.4781 103.387 34.8846 103.401 36.291C103.405 36.7738 103.406 37.2565 103.407 37.7392C103.458 43.5541 105.069 48.2147 108.195 53.1885C112.693 60.3626 114.335 68.2708 112.131 76.4404C109.625 84.5387 109.625 84.5387 106.866 86.4609C105.098 86.8329 105.098 86.8329 104.022 86.3852C103.486 85.9765 103.486 85.9765 103.226 85.4922C103.076 83.9004 103.388 83.0637 104.298 81.7383C108.127 75.7775 108.961 68.9922 107.191 62.2876C106.363 59.6229 104.993 57.2654 103.507 54.8791C100.142 49.471 98.5292 44.1552 98.4937 37.8693C98.4905 37.3645 98.4855 36.8597 98.4799 36.3549C98.464 34.9214 98.4498 33.4879 98.4411 32.0543C98.4356 31.1721 98.4264 30.2899 98.4149 29.4078C98.4095 28.9176 98.4081 28.4273 98.4068 27.9371C98.3161 21.4731 95.6793 15.4617 90.745 10.8984C87.4741 8.05895 83.6077 6.1688 79.3044 5.08593C79.1381 5.04404 78.9717 5.00215 78.8003 4.959C76.6106 4.47983 74.4042 4.52207 72.1692 4.52019C71.7288 4.51863 71.2884 4.517 70.848 4.51531C69.9273 4.51242 69.0066 4.51151 68.0859 4.5118C66.9187 4.51185 65.7516 4.50525 64.5844 4.49689C63.6749 4.49145 62.7654 4.49053 61.8558 4.49078C61.4262 4.49022 60.9966 4.48812 60.567 4.48432C53.4852 4.42757 47.2201 6.73292 42.0143 11.2462C37.6472 15.2612 34.8505 21.0313 34.7968 26.7635C34.7933 27.0661 34.7898 27.3686 34.7862 27.6803C34.7849 27.8398 34.7835 27.9993 34.7822 28.1637C34.7779 28.6705 34.7718 29.1773 34.7653 29.6841C34.7471 31.1243 34.7314 32.5645 34.718 34.0047C34.7096 34.8892 34.6988 35.7737 34.6867 36.6581C34.6807 37.1501 34.6772 37.642 34.6738 38.134C34.6326 41.0827 34.4049 44.0919 33.5256 46.939C33.4714 47.1166 33.4172 47.2943 33.3614 47.4774C32.3475 50.6065 30.6775 53.4805 28.8037 56.2282C25.0171 61.8482 24.3267 68.3882 25.6754 74.7877C26.8851 79.5301 29.5844 83.7549 33.2819 87.1875C33.5131 87.4023 33.7444 87.6171 33.9827 87.8384C35.1989 88.9401 35.1989 88.9401 36.7524 89.4116C37.3306 89.3053 37.3306 89.3053 37.8661 89.0955C39.77 88.438 41.8046 88.3216 43.8124 88.1865C45.7306 88.0347 47.4472 87.8596 49.1427 86.9453C49.3083 86.861 49.4739 86.7767 49.6445 86.6899C51.5327 85.5954 52.7785 83.604 53.303 81.6172C53.4296 80.8112 53.5111 80.0083 53.563 79.1953C53.2216 79.1012 53.2216 79.1012 52.8733 79.0051C46.6563 76.9037 41.8899 70.863 39.1484 65.5372C36.6059 60.0725 36.5316 54.3252 36.5603 48.4665C36.5648 47.5374 36.5622 46.6085 36.5576 45.6794C36.5547 44.9557 36.5556 44.2321 36.5577 43.5084C36.5582 43.1656 36.5576 42.8227 36.5557 42.4798C36.5537 42.0033 36.5573 41.5268 36.5611 41.0504C36.5617 40.7807 36.5623 40.511 36.563 40.2331C36.6964 39.2141 37.0289 38.3395 37.8971 37.6753C38.778 37.4702 39.4264 37.5773 40.3022 37.7812C41.0467 38.3073 41.3122 38.5884 41.4737 39.4548C41.4745 39.7285 41.4752 40.0022 41.476 40.2842C41.4794 40.5957 41.4829 40.9072 41.4864 41.2281C41.4851 41.5686 41.4838 41.909 41.4825 42.2494C41.485 42.602 41.4881 42.9545 41.4918 43.3071C41.5002 44.2376 41.5029 45.168 41.5039 46.0985C41.5062 47.5763 41.5157 49.0539 41.5279 50.5316C41.5311 51.0414 41.531 51.5511 41.5304 52.0609C41.5357 53.7739 41.6237 55.4564 41.8322 57.158C41.862 57.4053 41.862 57.4053 41.8924 57.6576C42.6846 63.565 46.2339 69.0042 51.2228 72.6562C55.1923 75.3902 60.0187 77.3089 65.0036 77.5C65.2366 77.5097 65.4695 77.5193 65.7095 77.5293C72.4073 77.6687 78.7853 75.3879 83.7246 71.2031C88.7884 66.6922 91.3468 60.7256 91.5478 54.2435C91.5549 53.4651 91.5544 52.687 91.5505 51.9085C91.5501 51.6274 91.5497 51.3463 91.5493 51.0566C91.5479 50.1684 91.5446 49.2803 91.5413 48.3921C91.54 47.7858 91.5388 47.1796 91.5378 46.5733C91.5349 45.0957 91.5306 43.6182 91.5251 42.1406C91.2781 42.0941 91.0312 42.0477 90.7768 41.9998C90.4512 41.937 90.1257 41.8742 89.7903 41.8095C89.4683 41.748 89.1463 41.6866 88.8145 41.6232C85.754 40.9345 83.3912 39.1221 81.677 36.6914C80.9534 35.5616 80.346 34.4018 79.8244 33.1797C79.5911 33.3145 79.3579 33.4494 79.1175 33.5884C76.8983 34.8581 74.6489 36.0184 72.2968 37.0607C71.9472 37.2156 71.5984 37.3721 71.2504 37.5302C65.8169 39.9877 54.033 45.0756 48.0052 43.1548C47.5826 42.8672 47.5826 42.8672 47.0626 42.1406C46.9819 41.1068 46.9672 40.3532 47.5826 39.4766C49.1633 38.6648 51.1924 38.5014 52.9454 38.2051C59.3969 37.052 65.7307 35.08 71.5395 32.2067C72.0178 31.9718 72.4996 31.7444 72.9828 31.5184C74.4223 30.8353 75.8003 30.1259 77.1268 29.2631C77.3321 29.13 77.5375 28.9969 77.749 28.8598C78.1474 28.598 78.5423 28.3316 78.933 28.0599C80.1279 27.2709 80.9765 26.9814 82.4481 27.0338C83.2093 27.1736 83.5471 27.5164 83.9847 28.0937C84.3278 28.733 84.3598 29.3216 84.4559 30.0312C84.8531 32.4624 85.6034 34.426 87.6249 36.0859C89.357 37.1922 91.3368 37.5784 93.4102 37.5239C94.4756 37.5054 95.1242 37.5725 95.9453 38.2656C96.4489 39.2031 96.531 39.9747 96.5326 41.016C96.5343 41.3226 96.5359 41.6293 96.5376 41.9452C96.5367 42.279 96.5356 42.6128 96.5344 42.9466C96.5348 43.2934 96.5353 43.6402 96.5359 43.987C96.5367 44.715 96.5356 45.443 96.5331 46.171C96.5302 47.0919 96.5319 48.0127 96.5349 48.9336C96.5627 58.8988 94.8778 67.1884 87.2044 74.5171C81.3086 79.7398 73.6616 82.1957 65.5846 82.1574C63.2199 82.0746 60.7931 81.6852 58.5033 81.1328C58.4463 81.3641 58.3893 81.5955 58.3306 81.8338C57.5652 84.7964 56.407 87.8433 53.563 89.6094C55.5468 91.1742 57.5641 92.6828 59.6332 94.1482C60.2137 94.5597 60.793 94.9727 61.3716 95.3866C61.656 95.5899 61.9409 95.7927 62.2262 95.995C62.8949 96.4713 63.5473 96.9574 64.188 97.4663C64.4143 97.6458 64.6405 97.8253 64.8736 98.0102C65.0693 98.171 65.2651 98.3318 65.4668 98.4975C66.02 98.8583 66.02 98.8583 66.6541 98.8238C67.6386 98.4619 68.3453 97.8866 69.1476 97.2534C69.4938 96.9895 69.8405 96.7262 70.1876 96.4635C70.3629 96.3303 70.5382 96.1972 70.7188 96.0601C71.5278 95.4499 72.3448 94.8529 73.1778 94.2715C73.3892 94.1153 73.3892 94.1153 73.6048 93.956C74.7743 93.1533 75.5674 93.1159 76.9643 93.2422C77.8231 93.7549 77.9745 94.1171 78.2643 95.0283C78.2643 96.1465 77.9622 96.4851 77.2243 97.3594C76.6229 97.8575 75.9793 98.2887 75.3229 98.7217C74.9504 98.974 74.5784 99.227 74.2067 99.4804C74.0175 99.6091 73.8284 99.7378 73.6335 99.8704C72.5564 100.618 71.517 101.41 70.4768 102.201C67.5791 104.39 67.5791 104.39 66.1209 104.306C64.8547 103.955 63.8878 103.095 62.883 102.325C62.161 101.777 61.423 101.249 60.6863 100.718C60.0769 100.279 59.4692 99.8377 58.8618 99.3962C57.6582 98.5222 56.4488 97.6556 55.2368 96.7917C54.5331 96.2879 53.8363 95.7762 53.1405 95.2629C52.826 95.0321 52.826 95.0321 52.5051 94.7965C52.0921 94.4931 51.68 94.1885 51.2691 93.8826C49.6265 92.6252 49.6265 92.6252 47.5948 92.315C47.1705 92.3844 47.1705 92.3844 46.7376 92.4551C45.7007 92.6157 44.6766 92.7693 43.6296 92.8571C38.6132 93.2829 33.9525 95.0283 30.6502 98.699C27.6104 102.424 26.3588 106.309 26.3905 110.939C26.3885 111.273 26.386 111.607 26.383 111.941C26.3762 112.808 26.3746 113.674 26.375 114.541C26.3756 115.936 26.3719 117.331 26.3605 118.726C26.358 119.209 26.3604 119.693 26.3628 120.177C26.361 120.47 26.3592 120.764 26.3574 121.066C26.3576 121.324 26.3579 121.581 26.3581 121.846C26.2471 122.651 25.9944 123.107 25.4814 123.758C24.8867 124.035 24.486 124.064 23.8238 124.091C23.6234 124.103 23.423 124.115 23.2165 124.127C22.3203 123.936 22.0784 123.491 21.5812 122.789C21.4491 122.064 21.4491 122.064 21.4466 121.25C21.4434 120.943 21.4401 120.636 21.4367 120.32C21.4386 119.987 21.4407 119.653 21.4431 119.319C21.4424 118.972 21.4414 118.625 21.4401 118.279C21.4385 117.551 21.4407 116.823 21.4456 116.095C21.4515 115.174 21.4481 114.253 21.442 113.332C21.4014 106.043 22.5636 100.044 28.0308 94.4881C29.1047 93.511 30.2776 92.6467 31.4618 91.789C31.2697 91.6361 31.0776 91.4831 30.8798 91.3255C24.3083 85.9774 20.6567 78.5609 20.0211 70.4765C19.624 64.2726 21.5868 58.6444 24.84 53.318C28.1208 47.9374 29.718 43.0569 29.7127 36.8172C29.715 36.4811 29.7176 36.1449 29.7205 35.8088C29.7323 34.4041 29.7389 32.9995 29.7407 31.5948C29.7552 23.4613 30.9417 16.0012 36.9221 9.68749C37.1165 9.47177 37.3109 9.25604 37.5112 9.03378C42.4735 3.68853 50.3146 -0.0161107 57.959 -0.0428753Z" fill="#164A41"/>
<path d="M80.0845 83.3125C80.6465 83.8818 81.1243 84.4884 81.6181 85.11C83.0264 86.7191 85.1405 87.7171 87.3347 88.0163C88.2 88.0966 89.0658 88.1652 89.9325 88.2319C95.1182 88.7023 99.4549 90.0943 103.486 93.2422C103.77 93.4496 103.77 93.4496 104.06 93.6613C108.239 96.8585 110.784 101.895 111.546 106.805C111.573 107.342 111.587 107.88 111.592 108.418C111.597 108.892 111.597 108.892 111.602 109.375C111.604 109.717 111.606 110.059 111.608 110.401C111.609 110.574 111.61 110.748 111.611 110.926C111.617 111.843 111.621 112.76 111.623 113.677C111.626 114.622 111.635 115.567 111.645 116.513C111.652 117.242 111.654 117.971 111.655 118.7C111.656 119.048 111.659 119.397 111.664 119.745C111.67 120.233 111.67 120.72 111.668 121.207C111.67 121.484 111.671 121.761 111.673 122.046C111.518 122.951 111.192 123.355 110.506 124C109.709 124.21 108.975 124.154 108.166 124C107.516 123.546 107.225 123.216 106.866 122.547C106.84 122.081 106.831 121.615 106.829 121.149C106.826 120.708 106.826 120.708 106.824 120.259C106.823 120.101 106.823 119.943 106.822 119.781C106.82 119.284 106.816 118.788 106.811 118.292C106.798 116.879 106.785 115.467 106.781 114.055C106.779 113.191 106.771 112.327 106.76 111.463C106.755 110.98 106.756 110.497 106.757 110.014C106.688 105.166 104.829 100.834 101.146 97.3593C97.5827 94.3381 93.4284 93.089 88.7137 92.7881C84.7368 92.4862 81.0879 91.4119 78.2644 88.6406C77.3074 87.5825 76.5324 86.6738 76.2655 85.2954C76.4754 84.389 76.7734 83.9557 77.4843 83.3125C78.5436 82.9836 79.0058 82.9995 80.0845 83.3125Z" fill="#164A41"/>
</g>
<defs>
<clipPath id="clip0_520_247">
<rect width="133.127" height="124" fill="white"/>
</clipPath>
</defs>
</svg>
