<svg width="236" height="240" viewBox="0 0 236 240" fill="none" xmlns="http://www.w3.org/2000/svg">
<rect y="240" width="240" height="202.271" rx="20" transform="rotate(-90 0 240)" fill="#FFC35B"/>
<ellipse cx="184.657" cy="120" rx="120" ry="50.5677" transform="rotate(-90 184.657 120)" fill="#FFC35B"/>
<g clip-path="url(#clip0_524_429)">
<path d="M189.164 161.094H180.631V83.6923C180.631 50.2262 153.404 23 119.938 23H108.061C74.5955 23 47.3692 50.2262 47.3692 83.6923V161.095H38.836C36.7864 161.095 35.1243 162.757 35.1243 164.807V189.289C35.1243 191.339 36.7864 193 38.836 193H189.164C191.213 193 192.875 191.339 192.875 189.289V164.806C192.876 162.756 191.214 161.094 189.164 161.094ZM54.7928 83.6923C54.7928 54.3198 78.6891 30.4236 108.062 30.4236H119.939C149.311 30.4236 173.207 54.3198 173.207 83.6923V161.095H161.045V89.6307C161.045 63.6901 139.941 42.5855 114 42.5855C88.0593 42.5855 66.9551 63.6898 66.9551 89.6307V161.094H54.7928V83.6923ZM153.622 89.6307V161.094H74.3783V89.6307C74.3783 67.7834 92.1526 50.0091 114 50.0091C135.847 50.0091 153.622 67.783 153.622 89.6307ZM185.452 185.576H42.5478V168.518H185.452L185.452 185.576Z" fill="#452D06"/>
<path d="M101.778 120.326L93.5581 112.106C98.8178 111.32 102.865 106.773 102.865 101.298C102.865 95.2717 97.9619 90.3689 91.9355 90.3689H84.7181C82.6685 90.3689 81.0063 92.0307 81.0063 94.0807V108.515V122.95C81.0063 125 82.6685 126.662 84.7181 126.662C86.7678 126.662 88.4299 125 88.4299 122.95V117.476L96.5278 125.574C97.2526 126.299 98.2026 126.661 99.1525 126.661C100.102 126.661 101.052 126.299 101.777 125.574C103.227 124.126 103.227 121.775 101.778 120.326ZM88.4299 104.804V97.7928H91.9352C93.8682 97.7928 95.4404 99.3656 95.4404 101.298C95.4404 103.23 93.8682 104.803 91.9352 104.803H88.4299V104.804Z" fill="#452D06"/>
<path d="M114 90.3691C111.95 90.3691 110.288 92.031 110.288 94.0809V122.95C110.288 125 111.95 126.662 114 126.662C116.049 126.662 117.712 125 117.712 122.95V94.0809C117.712 92.0306 116.049 90.3691 114 90.3691Z" fill="#452D06"/>
<path d="M128.847 90.3692C126.797 90.3692 125.135 92.031 125.135 94.081V108.516V122.95C125.135 125 126.797 126.662 128.847 126.662C130.897 126.662 132.559 125 132.559 122.95V112.228H136.064C142.09 112.228 146.993 107.325 146.993 101.298C146.993 95.272 142.091 90.3689 136.064 90.3689L128.847 90.3692ZM139.57 101.298C139.57 103.231 137.997 104.804 136.064 104.804H132.559V97.7928H136.064C137.997 97.7928 139.57 99.3653 139.57 101.298Z" fill="#452D06"/>
<path d="M88.0548 142.52C86.0058 142.52 84.343 144.182 84.343 146.231C84.343 148.28 86.0058 149.943 88.0548 149.943C90.1041 149.943 91.7666 148.28 91.7666 146.231C91.7666 144.182 90.1034 142.52 88.0548 142.52Z" fill="#452D06"/>
<path d="M122.648 142.52C120.599 142.52 118.937 144.182 118.937 146.231C118.937 148.28 120.599 149.943 122.648 149.943C124.697 149.943 126.36 148.28 126.36 146.231C126.36 144.182 124.697 142.52 122.648 142.52Z" fill="#452D06"/>
<path d="M105.351 142.52C103.302 142.52 101.64 144.182 101.64 146.231C101.64 148.28 103.302 149.943 105.351 149.943C107.4 149.943 109.063 148.28 109.063 146.231C109.063 144.182 107.4 142.52 105.351 142.52Z" fill="#452D06"/>
<path d="M139.945 142.52C137.896 142.52 136.233 144.182 136.233 146.231C136.233 148.28 137.896 149.943 139.945 149.943C141.994 149.943 143.657 148.28 143.657 146.231C143.657 144.182 141.994 142.52 139.945 142.52Z" fill="#452D06"/>
</g>
<defs>
<clipPath id="clip0_524_429">
<rect width="170" height="170" fill="white" transform="translate(29 23)"/>
</clipPath>
</defs>
</svg>
