<svg width="135" height="124" viewBox="0 0 135 124" fill="none" xmlns="http://www.w3.org/2000/svg">
<g clip-path="url(#clip0_520_215)">
<path d="M63.1015 45.9574C63.6327 45.9551 64.1636 45.9476 64.6947 45.9399C68.5568 45.9102 72.0718 46.7602 75.7169 47.8916C77.5269 48.4552 77.5269 48.4552 79.3768 48.1953C79.9838 47.8101 79.9838 47.8101 80.5229 47.3325C81.2984 46.7471 81.8338 46.3696 82.8478 46.3184C84.0701 46.5443 84.3799 46.8047 85.1401 47.7109C85.3295 47.9362 85.3295 47.9362 85.5228 48.166C88.0353 51.3672 88.9797 55.38 88.4147 59.2688C87.83 62.6533 86.7557 66.3896 83.646 68.5457C82.605 69.284 81.8485 69.8807 81.6108 71.1231C81.498 72.4383 81.5032 73.751 81.5012 75.0696C81.4882 77.8503 80.4551 80.1561 78.5908 82.3437C78.4389 82.4601 78.287 82.5765 78.1304 82.6964C77.3439 83.311 76.8323 83.7519 76.5849 84.6963C76.5187 85.4454 76.5029 86.1786 76.5115 86.9302C76.5072 87.1882 76.503 87.4462 76.4987 87.7121C76.4895 88.3448 76.4885 88.9766 76.4951 89.6094C76.7034 89.654 76.9118 89.6987 77.1265 89.7446C79.5343 90.2803 81.9215 90.8827 84.303 91.5103C84.6609 91.6044 85.0191 91.6976 85.3776 91.7899C89.4986 92.8541 92.5667 94.0979 94.833 97.6016C95.8806 99.5882 96.1813 101.417 96.1892 103.605C96.1909 103.814 96.1926 104.023 96.1944 104.238C96.1995 104.925 96.2026 105.612 96.2052 106.299C96.2063 106.535 96.2074 106.77 96.2085 107.012C96.2139 108.256 96.2177 109.499 96.2201 110.742C96.223 112.027 96.2321 113.311 96.2424 114.596C96.2493 115.584 96.2515 116.572 96.2524 117.56C96.2537 118.034 96.2567 118.508 96.2616 118.981C96.268 119.643 96.2677 120.304 96.2659 120.966C96.2693 121.161 96.2726 121.357 96.2761 121.559C96.2673 122.435 96.2267 122.929 95.6439 123.637C94.8832 124.14 94.4058 124.138 93.4975 124.096C92.729 123.948 92.3982 123.61 91.9513 123.031C91.6305 122.142 91.6494 121.32 91.648 120.393C91.6467 120.198 91.6453 120.004 91.644 119.803C91.6412 119.38 91.6389 118.957 91.6371 118.534C91.634 117.863 91.6289 117.192 91.6232 116.521C91.6071 114.612 91.5929 112.704 91.5842 110.796C91.5787 109.628 91.5694 108.46 91.5578 107.293C91.5541 106.849 91.5518 106.406 91.5509 105.962C91.6057 101.817 91.6057 101.817 89.5905 98.224C88.0804 97.1215 86.2449 96.6216 84.4197 96.1446C84.1842 96.0815 83.9488 96.0184 83.7062 95.9533C82.9622 95.7542 82.2174 95.5577 81.4725 95.3613C80.9645 95.2259 80.4566 95.0903 79.9488 94.9545C78.7108 94.624 77.4722 94.2957 76.2331 93.9687C75.8323 94.4598 75.4377 94.9503 75.0614 95.4578C73.5943 97.3573 71.7535 98.5988 69.2306 98.9951C66.1559 99.3033 63.3559 98.8825 60.8465 97.1276C59.7663 96.2271 58.8103 95.1763 58.1572 93.9687C55.5596 94.5173 52.9912 95.1698 50.4327 95.8564C50.084 95.9494 49.7348 96.041 49.3852 96.131C46.8958 96.7746 44.6939 97.3748 43.3095 99.5178C42.3646 101.344 42.5277 103.32 42.5461 105.3C42.5528 106.027 42.5514 106.754 42.5482 107.481C42.5428 109.021 42.5479 110.562 42.5537 112.103C42.5592 113.894 42.5604 115.685 42.5535 117.476C42.5527 118.192 42.5582 118.907 42.5641 119.623C42.5635 120.061 42.5625 120.499 42.5613 120.937C42.5647 121.135 42.568 121.334 42.5715 121.539C42.5631 122.421 42.526 122.925 41.9402 123.639C41.1774 124.141 40.7007 124.123 39.7938 124.079C39.0997 123.969 38.7238 123.749 38.2476 123.273C37.9087 122.334 37.9426 121.441 37.9392 120.461C37.9375 120.248 37.9358 120.035 37.934 119.815C37.9288 119.109 37.9258 118.402 37.9232 117.696C37.9221 117.454 37.921 117.212 37.9199 116.963C37.9145 115.681 37.9107 114.4 37.9083 113.119C37.9054 111.8 37.8964 110.481 37.8859 109.162C37.8791 108.144 37.8769 107.127 37.876 106.109C37.8747 105.623 37.8717 105.137 37.8668 104.651C37.8308 100.824 38.1908 98.0427 41.12 95.157C43.7638 92.7879 47.4605 92.0972 50.904 91.1826C51.6488 90.9847 52.3929 90.7842 53.1368 90.5833C53.6102 90.4562 54.0837 90.3293 54.5572 90.2025C54.7796 90.1428 55.0019 90.083 55.2311 90.0214C56.7862 89.6094 56.7862 89.6094 57.3713 89.6094C57.5791 86.458 57.5791 86.458 56.6407 83.5244C56.2415 83.1591 55.8292 82.8057 55.4055 82.4648C54.5545 81.6768 54.0919 80.8269 53.5728 79.831C53.4843 79.6636 53.3958 79.4961 53.3046 79.3236C52.6295 78.0089 52.36 77.0848 52.4123 75.6372C52.6338 72.5853 52.6338 72.5853 51.5476 69.8304C50.8157 69.1964 50.8157 69.1964 50.0188 68.6431C47.6877 66.8582 46.5259 63.7244 46.1066 61.0312C45.7731 57.0376 46.7722 53.5788 49.3853 50.3722C52.789 46.8361 58.2669 45.9702 63.1015 45.9574ZM52.5065 53.5603C50.8089 55.5885 50.2824 58.0285 50.5601 60.5469C51.0353 62.8293 52.0357 64.621 53.7038 66.3594C53.9631 66.5192 54.2225 66.6791 54.4897 66.8437C55.6081 65.5641 56.483 64.245 57.2936 62.7805C57.6333 62.2422 57.6333 62.2422 58.1572 62C59.5135 61.8092 60.2716 62.0892 61.481 62.6811C64.4663 64.1278 67.9268 64.7498 71.2547 64.0037C72.6374 63.5251 73.7509 62.8184 74.9233 62C76.077 61.6444 77.1046 61.6497 78.2798 61.9394C78.9718 62.305 79.0552 62.5488 79.3768 63.2109C79.4693 63.3995 79.5618 63.5881 79.6571 63.7823C79.7483 63.9734 79.8395 64.1645 79.9334 64.3613C80.026 64.5549 80.1185 64.7484 80.2138 64.9479C80.2834 65.094 80.353 65.2401 80.4246 65.3906C82.7635 63.8257 83.5141 61.3295 83.9858 58.7882C84.2904 56.1968 83.7777 53.9107 82.5204 51.5859C82.3806 51.6356 82.2408 51.6852 82.0967 51.7363C78.9852 52.7765 76.724 52.4681 73.6134 51.5859C73.0182 51.4216 72.4226 51.2585 71.8268 51.096C71.4448 50.9913 71.0632 50.8854 70.6821 50.7779C68.4424 50.1538 66.3594 50.0813 64.0352 50.0723C63.7209 50.0673 63.4067 50.0623 63.083 50.0571C59.1446 50.0414 55.2726 50.7767 52.5065 53.5603ZM73.8232 67.2581C72.1493 67.9704 70.6142 68.1484 68.7997 68.1455C68.5723 68.1455 68.3448 68.1454 68.1104 68.1454C65.278 68.1001 62.6593 67.4493 59.991 66.6016C59.8299 66.8204 59.6689 67.0392 59.5029 67.2647C59.2891 67.5533 59.0752 67.8418 58.8613 68.1304C58.7554 68.2744 58.6495 68.4185 58.5405 68.567C57.7001 69.6976 57.7001 69.6976 57.2104 70.0816C56.4413 70.9183 56.7253 72.2468 56.7328 73.292C56.7275 73.5477 56.7223 73.8034 56.7169 74.0668C56.7189 77.106 58.1317 79.115 60.3185 81.2842C62.0108 82.7902 64.1903 83.9787 66.5403 84.2812C69.5986 84.214 72.149 82.4345 74.2806 80.5652C76.6936 78.1497 77.1096 75.7991 77.1009 72.6108C77.1051 72.3047 77.1093 71.9986 77.1137 71.6832C77.1147 69.794 76.8958 68.1495 76.2331 66.3594C75.3355 66.3594 74.6032 66.8746 73.8232 67.2581ZM61.8248 87.1875C61.4971 90.0965 61.4971 90.0965 62.5288 92.7275C62.9521 93.1436 62.9521 93.1436 63.3966 93.4844C63.6127 93.6742 63.8289 93.864 64.0515 94.0596C65.3672 94.8501 66.5548 95.0616 68.1121 94.9375C69.8083 94.6025 70.8314 93.8503 71.7796 92.5156C72.0263 91.8316 72.0723 91.4187 72.0672 90.7115C72.0663 90.5062 72.0655 90.301 72.0646 90.0895C72.0624 89.8761 72.0602 89.6627 72.058 89.4429C72.0568 89.2267 72.0556 89.0105 72.0544 88.7877C72.0513 88.2543 72.047 87.7209 72.0416 87.1875C71.7536 87.2602 71.4655 87.333 71.1687 87.4079C67.7348 88.2395 65.2407 88.1587 61.8248 87.1875Z" fill="#164A41"/>
<path d="M120.506 36.3281C124.68 39.2037 126.944 43.2355 127.768 47.9236C127.994 49.5133 127.953 51.1229 127.945 52.7231C127.946 53.1222 127.947 53.5214 127.948 53.9205C127.949 54.7489 127.947 55.5772 127.943 56.4055C127.939 57.4655 127.942 58.5254 127.946 59.5854C127.949 60.4061 127.948 61.2268 127.946 62.0475C127.946 62.4385 127.946 62.8296 127.948 63.2206C127.95 63.7653 127.947 64.3097 127.943 64.8543C127.942 65.1634 127.941 65.4724 127.941 65.7908C127.834 66.6608 127.617 67.1159 127.055 67.8125C126.188 68.3908 125.285 68.3902 124.239 68.4482C123.779 68.4754 123.779 68.4754 123.31 68.5031C123.076 68.515 122.842 68.5268 122.602 68.539C122.772 68.5828 122.942 68.6265 123.117 68.6716C123.902 68.8757 124.684 69.0858 125.467 69.2959C125.735 69.3646 126.002 69.4332 126.278 69.504C128.575 70.1281 130.502 71.0442 132.114 72.7168C132.275 72.8779 132.437 73.039 132.602 73.2049C133.923 75.035 134.284 76.8049 134.268 78.9719C134.27 79.2282 134.273 79.4845 134.275 79.7485C134.281 80.5878 134.279 81.4269 134.277 82.2662C134.278 82.8522 134.28 83.4383 134.282 84.0244C134.284 85.2487 134.283 86.4729 134.279 87.6972C134.275 89.2674 134.281 90.8374 134.29 92.4076C134.296 93.616 134.296 94.8243 134.293 96.0327C134.293 96.6118 134.295 97.191 134.299 97.7702C134.303 98.5778 134.3 99.385 134.294 100.193C134.298 100.552 134.298 100.552 134.303 100.919C134.279 102.533 134.279 102.533 133.512 103.32C132.658 103.734 132.198 103.803 131.247 103.656C130.372 103.135 130.006 102.88 129.675 101.961C129.651 101.621 129.642 101.28 129.642 100.94C129.641 100.731 129.641 100.523 129.64 100.309C129.641 100.081 129.641 99.8538 129.642 99.6193C129.641 99.2588 129.641 99.2588 129.64 98.8911C129.639 98.3686 129.639 97.8461 129.639 97.3235C129.638 96.2121 129.632 95.1007 129.627 93.9892C129.617 91.9194 129.609 89.8495 129.609 87.7796C129.609 86.3403 129.603 84.9012 129.593 83.4619C129.59 82.9139 129.59 82.366 129.592 81.818C129.594 81.0499 129.589 80.2821 129.581 79.5139C129.584 79.2888 129.587 79.0636 129.589 78.8317C129.563 77.2941 129.165 76.2724 128.103 75.0781C126.261 73.7004 123.513 73.2799 121.259 72.7016C120.88 72.6024 120.5 72.5029 120.121 72.4032C119.202 72.1621 118.282 71.9239 117.362 71.6875C117.261 71.8352 117.159 71.9829 117.055 72.135C116.918 72.3298 116.781 72.5246 116.641 72.7253C116.44 73.0143 116.44 73.0143 116.235 73.3091C115.093 74.7432 113.713 75.4054 111.861 75.8047C109.279 76.0265 106.874 75.9678 104.772 74.4452C103.806 73.6076 103.275 72.7894 102.692 71.6875C101.423 72.0062 100.156 72.3291 98.8897 72.6557C98.4596 72.766 98.0292 72.8752 97.5985 72.9833C93.8509 73.7969 93.8509 73.7969 90.9197 75.9409C90.5007 76.8296 90.347 77.6017 90.338 78.569C90.334 78.883 90.334 78.883 90.3299 79.2034C90.328 79.4277 90.3261 79.652 90.3241 79.8831C90.3167 80.36 90.3092 80.837 90.3016 81.314C90.2908 82.0644 90.2811 82.8148 90.2742 83.5653C90.267 84.2906 90.255 85.0157 90.2422 85.741C90.2414 85.9648 90.2405 86.1886 90.2397 86.4192C90.2154 87.5915 90.1717 88.4229 89.3315 89.3672C88.5105 89.7467 87.5942 89.8156 86.7118 89.6094C86.0739 89.0832 85.7095 88.6479 85.5652 87.8577C85.525 87.1803 85.5187 86.5093 85.5247 85.8308C85.5237 85.5809 85.5227 85.3309 85.5217 85.0733C85.521 84.5444 85.5229 84.0155 85.5273 83.4867C85.5329 82.6845 85.5274 81.8829 85.5206 81.0808C85.5213 80.5652 85.5227 80.0496 85.5247 79.534C85.5226 79.2972 85.5205 79.0605 85.5183 78.8166C85.559 75.9986 86.6253 73.7953 88.7001 71.7641C90.9489 69.8025 94.2979 69.296 97.1906 68.539C96.84 68.5212 96.84 68.5212 96.4824 68.5031C96.1758 68.485 95.8692 68.4669 95.5533 68.4482C95.2493 68.4314 94.9454 68.4145 94.6323 68.3971C93.8492 68.3045 93.3845 68.2161 92.7371 67.8125C92.1059 66.9373 92.1356 66.2977 92.137 65.2864C92.1353 65.1035 92.1335 64.9206 92.1317 64.7323C92.1267 64.1258 92.1257 63.5194 92.1251 62.9129C92.1235 62.4888 92.1217 62.0648 92.1199 61.6407C92.1167 60.7492 92.1157 59.8576 92.1161 58.9661C92.1161 57.834 92.109 56.7021 92.0999 55.5701C92.094 54.6922 92.093 53.8143 92.0933 52.9363C92.0927 52.5197 92.0904 52.1031 92.0863 51.6866C92.0431 46.8308 93.1056 42.4994 96.6666 38.75C96.8193 38.5861 96.9719 38.4222 97.1292 38.2533C103.138 32.2433 113.397 31.9211 120.506 36.3281ZM99.8512 41.7508C97.7443 44.108 96.6306 46.7409 96.6369 49.8001C96.6368 49.9562 96.6368 50.1122 96.6368 50.2731C96.6369 50.7854 96.639 51.2978 96.641 51.8101C96.6415 52.1668 96.6419 52.5234 96.6422 52.8801C96.6432 53.8161 96.6457 54.7521 96.6486 55.6882C96.6513 56.6444 96.6525 57.6006 96.6538 58.5569C96.6566 60.4311 96.6612 62.3054 96.6666 64.1797C98.2227 64.1797 99.7788 64.1797 101.382 64.1797C101.139 63.7801 100.896 63.3804 100.645 62.9687C99.1086 60.3586 98.7119 58.1063 98.6969 55.1582C98.6915 54.8963 98.6861 54.6343 98.6805 54.3645C98.6611 50.6448 100.094 48.7405 102.725 46.0922C103.222 45.5241 103.545 44.9769 103.887 44.3203C104.364 43.4661 104.41 43.3872 105.459 43.0639C106.338 43.1083 106.693 43.1559 107.407 43.5937C107.741 44.1112 107.741 44.1112 108.03 44.729C109.544 47.633 112.054 48.9284 115.256 50.0145C116.481 50.4066 117.722 50.7463 118.968 51.0769C119.205 51.14 119.443 51.2031 119.687 51.268C119.892 51.3189 120.096 51.3698 120.307 51.4223C120.768 51.5859 120.768 51.5859 121.03 52.0703C121.109 53.1889 121.103 54.3099 121.112 55.4306C121.123 55.8933 121.123 55.8933 121.135 56.3653C121.157 59.4509 120.377 61.7 118.41 64.1797C120.053 64.1797 121.695 64.1797 123.388 64.1797C123.399 62.2321 123.409 60.2846 123.415 58.337C123.417 57.4325 123.421 56.5279 123.427 55.6234C123.433 54.7487 123.436 53.8741 123.437 52.9994C123.438 52.6675 123.44 52.3355 123.443 52.0036C123.478 47.789 122.632 44.3395 119.458 41.1719C119.253 40.9672 119.253 40.9672 119.045 40.7584C116.613 38.6067 113.224 37.5764 109.929 37.4634C105.992 37.5554 102.527 39.1002 99.8512 41.7508ZM105.574 49.164C105.233 49.5002 104.895 49.8387 104.558 50.1782C104.276 50.4606 104.276 50.4606 103.987 50.7487C102.8 52.1351 102.866 53.4531 102.872 55.1582C102.868 55.3886 102.864 55.619 102.859 55.8564C102.857 58.2978 103.433 59.9861 105.261 61.7701C106.746 62.9912 108.494 63.551 110.478 63.5203C112.432 63.3003 114.252 62.4094 115.528 61.0312C117.118 59.0763 116.979 57.0602 116.838 54.7344C116.537 54.6307 116.236 54.5271 115.926 54.4203C112.1 53.0915 108.64 51.747 105.574 49.164ZM106.883 67.0859C106.668 68.9491 106.668 68.9491 107.157 70.7045C108.043 71.5098 108.774 71.728 109.978 71.748C111.082 71.7362 111.788 71.6554 112.647 70.9609C113.228 70.1343 113.226 69.4501 113.203 68.4785C113.196 68.087 113.196 68.087 113.189 67.6876C113.183 67.489 113.177 67.2905 113.171 67.0859C112.928 67.1259 112.684 67.1658 112.434 67.207C110.572 67.4519 108.729 67.4017 106.883 67.0859Z" fill="#164A41"/>
<path d="M31.3443 33.028C32.3714 33.3532 33.2335 33.5412 34.3179 33.4219C34.8783 33.1175 34.8783 33.1175 35.3494 32.6953C36.1078 32.1307 36.3829 31.9736 37.3797 31.8174C38.6548 32.0398 39.1938 32.4737 39.9502 33.4389C42.2702 36.7741 42.8767 40.4193 42.1115 44.2759C41.4673 46.8039 40.3957 49.0551 38.2556 50.7941C37.1812 51.7162 36.8462 52.3957 36.7592 53.7694C36.7411 54.3121 36.7276 54.8547 36.7155 55.3976C36.6551 57.7926 35.8525 59.8343 34.3179 61.7578C34.0302 62.0066 33.741 62.2539 33.4501 62.4995C32.1679 63.7685 32.4881 65.9435 32.4841 67.5703C32.6318 67.5944 32.7795 67.6185 32.9317 67.6433C34.8833 67.9809 36.7709 68.471 38.6731 68.9932C39.1351 69.1163 39.1351 69.1163 39.6064 69.242C42.6066 70.0616 45.4113 71.0593 47.1196 73.6364C47.917 75.0826 48.4897 76.3013 48.5106 77.9313C48.514 78.1601 48.5173 78.3889 48.5208 78.6246C48.5227 78.87 48.5247 79.1155 48.5267 79.3684C48.5288 79.6222 48.5309 79.876 48.5331 80.1375C48.5367 80.6739 48.5395 81.2103 48.5416 81.7467C48.5461 82.5669 48.5576 83.3869 48.5691 84.207C48.5718 84.7284 48.574 85.2498 48.5758 85.7713C48.5804 86.0163 48.5849 86.2613 48.5897 86.5137C48.5861 87.5735 48.5716 88.2235 47.9978 89.1586C47.3034 89.6969 46.7675 89.7537 45.8701 89.7702C44.9597 89.5037 44.5948 89.0951 44.0108 88.3984C43.8223 87.5638 43.8404 86.7443 43.8532 85.8943C43.8511 85.6521 43.849 85.41 43.8468 85.1606C43.8408 84.388 43.8432 83.6158 43.847 82.8433C43.848 82.0716 43.8471 81.3002 43.8416 80.5286C43.8385 80.049 43.8391 79.5695 43.8442 79.09C43.8385 77.795 43.7098 76.9394 42.9629 75.8047C42.8764 75.5649 42.79 75.3252 42.7009 75.0781C41.7572 74.5111 40.6207 74.2515 39.5573 73.9277C39.2524 73.8343 39.2524 73.8343 38.9414 73.7389C36.5418 73.01 34.1209 72.3468 31.6982 71.6875C31.6229 71.8723 31.5476 72.0571 31.47 72.2476C30.6836 73.9784 29.3052 74.8159 27.5067 75.5625C25.3577 76.2318 22.5201 76.0402 20.4898 75.1595C18.9945 74.3257 17.7913 73.2331 16.7659 71.9297C14.6528 72.2776 12.6041 72.7836 10.5442 73.3374C10.2318 73.4175 9.91943 73.4976 9.59759 73.5801C7.61988 74.1122 6.21159 74.5206 5.07623 76.1859C4.61088 77.2558 4.60389 78.1568 4.61039 79.2987C4.60856 79.5241 4.60673 79.7496 4.60485 79.9819C4.59962 80.725 4.59975 81.4681 4.59971 82.2113C4.59662 82.7301 4.59312 83.249 4.58922 83.7678C4.57975 85.1333 4.57445 86.4988 4.57048 87.8643C4.56398 90.0463 4.55352 92.2283 4.53854 94.4103C4.53429 95.1699 4.53328 95.9294 4.53252 96.6889C4.52995 97.1591 4.52726 97.6293 4.52443 98.0994C4.5251 98.3081 4.52577 98.5168 4.52646 98.7318C4.51368 100.153 4.3947 101.567 3.92944 102.93C3.34 103.459 3.34 103.459 2.61959 103.656C1.7324 103.64 1.22411 103.522 0.484471 103.07C-0.270867 102.097 -0.148306 101.15 -0.139853 99.9804C-0.14211 99.7298 -0.144367 99.4792 -0.146693 99.221C-0.152648 98.391 -0.150859 97.5612 -0.148487 96.7312C-0.149859 96.1531 -0.151503 95.575 -0.153408 94.997C-0.156138 93.7835 -0.154934 92.5702 -0.15111 91.3567C-0.146625 89.8073 -0.152738 88.258 -0.161978 86.7086C-0.167756 85.5135 -0.167353 84.3184 -0.165184 83.1232C-0.16497 82.5524 -0.166752 81.9816 -0.170625 81.4108C-0.209907 74.5669 -0.209908 74.5669 2.42311 72.0536C4.74407 70.2001 7.59168 69.5464 10.4787 68.7813C10.7012 68.7214 10.9238 68.6616 11.153 68.6C11.8009 68.4263 12.4493 68.2549 13.0984 68.085C13.2973 68.0328 13.4962 67.9807 13.7011 67.9269C14.4843 67.7271 15.1635 67.5703 15.98 67.5703C16.1382 64.6895 16.1382 64.6895 14.7357 62.2573C14.5472 62.0956 14.3588 61.9339 14.1647 61.7673C12.4951 60.2471 11.7737 57.9006 11.7445 55.7779C11.744 55.5851 11.7435 55.3924 11.7429 55.1938C11.78 53.4025 11.78 53.4025 11.1766 51.7477C10.7283 51.3664 10.7283 51.3664 10.228 51.0316C8.33622 49.5669 7.13421 47.0349 6.8111 44.8047C6.53508 41.6748 6.90265 38.7124 8.97132 36.1001C14.4509 30.1543 24.0344 30.6635 31.3443 33.028ZM12.7382 38.3262C11.2579 40.0938 10.9873 42.1383 11.2646 44.3203C11.7178 45.9017 12.5397 47.1587 13.6223 48.4375C14.6868 48.1095 14.8078 47.6535 15.3415 46.7573C16.1965 45.3312 16.1965 45.3312 16.7659 44.8047C18.438 44.6115 19.3829 44.99 20.8469 45.7138C22.8216 46.6531 25.0684 46.7564 27.2447 46.5C28.3659 46.1151 29.3638 45.6128 30.3883 45.0469C31.3278 44.5749 31.923 44.4421 33.008 44.5625C34.2876 45.1656 34.8249 45.762 35.3658 46.9844C35.9955 46.7505 36.3484 46.5915 36.7268 46.061C37.9668 43.3636 38.4475 40.6656 37.3142 37.8418C37.1899 37.5821 37.0656 37.3223 36.9376 37.0547C36.6998 37.1346 36.4621 37.2145 36.2172 37.2969C33.5629 37.959 31.3458 37.422 28.816 36.6402C23.889 35.119 16.6716 34.4946 12.7382 38.3262ZM29.6874 49.8973C26.2615 51.2227 22.0202 50.3132 18.5997 49.4063C18.4103 49.6601 18.4103 49.6601 18.217 49.919C17.9688 50.2496 17.9688 50.2496 17.7156 50.5869C17.4694 50.9157 17.4694 50.9157 17.2182 51.251C16.7659 51.8281 16.7659 51.8281 16.242 52.3125C15.9566 55.4997 16.2379 57.7037 18.4994 60.2073C19.9234 61.5345 21.6293 62.4702 23.5771 62.9688C26.5174 62.8811 28.3736 61.4664 30.3883 59.5781C32.0808 57.8093 32.3098 56.0616 32.2876 53.7959C32.2896 53.5908 32.2917 53.3857 32.2938 53.1744C32.2891 51.7704 32.0728 50.5247 31.6982 49.1641C31.0259 49.1641 30.2886 49.6409 29.6874 49.8973ZM20.4335 66.3594C20.2883 68.303 20.2883 68.303 20.892 70.1284C21.7831 71.0209 22.507 71.6007 23.8524 71.7452C25.2964 71.789 26.1184 71.6361 27.2447 70.7188C28.0279 69.7465 28.1191 69.058 28.0797 67.8579C28.0726 67.5766 28.0656 67.2953 28.0583 67.0055C28.0446 66.6857 28.0446 66.6857 28.0306 66.3594C27.8689 66.3943 27.7071 66.4293 27.5405 66.4653C25.0159 66.9769 22.9462 66.9025 20.4335 66.3594Z" fill="#164A41"/>
<path d="M78.2634 3.12763C82.1369 5.86794 84.9004 9.78886 85.6641 14.2891C85.7014 15.0908 85.6971 15.8918 85.6938 16.6942C85.6938 16.9353 85.6939 17.1764 85.6939 17.4249C85.6937 18.2203 85.6917 19.0157 85.6896 19.8111C85.6892 20.3633 85.6888 20.9154 85.6885 21.4675C85.6875 22.9195 85.685 24.3716 85.6821 25.8236C85.6794 27.3058 85.6782 28.788 85.6769 30.2701C85.674 33.1775 85.6696 36.0848 85.6641 38.9922C86.0359 39.1018 86.0359 39.1018 86.4152 39.2136C88.635 39.9249 89.8842 41.7288 90.9035 43.5938C91.2211 44.4748 91.269 45.0898 91.1654 46.0156C90.5236 46.8359 90.1532 47.175 89.0697 47.3628C88.0641 47.1885 87.6799 46.9448 86.9739 46.2578C86.7949 45.9446 86.6263 45.6261 86.4663 45.3042C85.8148 44.0131 84.9239 43.3311 83.4987 42.7764C81.8087 42.2099 80.0628 41.8026 78.3289 41.3687C77.9724 41.2787 77.616 41.1887 77.2596 41.0986C76.3937 40.88 75.5277 40.6623 74.6614 40.4453C74.5398 40.5944 74.4183 40.7435 74.293 40.8971C74.0504 41.1909 74.0504 41.1909 73.8028 41.4907C73.6434 41.6847 73.484 41.8788 73.3198 42.0787C72.1628 43.3627 70.7168 44.1894 68.8917 44.3739C65.6887 44.5293 63.4161 44.2829 60.91 42.3242C60.3801 41.753 60.0709 41.1246 59.7291 40.4453C58.5503 40.7074 57.3745 40.9786 56.2003 41.2576C55.745 41.3651 55.2891 41.4709 54.8329 41.5752C54.1055 41.7429 53.3807 41.9184 52.6559 42.0952C52.4278 42.1465 52.1996 42.1977 51.9645 42.2505C50.2771 42.6735 49.1063 43.3491 47.9405 44.5625C47.4211 45.4082 47.3502 46.1423 47.3019 47.1055C47.2183 48.1299 47.102 48.8349 46.3687 49.6484C45.5489 50.0274 44.6368 50.0594 43.749 49.8906C43.1657 49.5084 43.1657 49.5084 42.7011 48.9219C42.2422 46.2982 42.8277 43.7847 44.453 41.5957C45.3571 40.5637 46.4515 39.6836 47.6785 38.9922C47.9379 38.9922 48.1972 38.9922 48.4644 38.9922C48.4621 38.6974 48.4598 38.4026 48.4574 38.0988C48.436 35.3058 48.4204 32.5128 48.4101 29.7198C48.4047 28.2842 48.3973 26.8487 48.3854 25.4131C48.3739 24.025 48.3677 22.6368 48.365 21.2486C48.3631 20.7219 48.3593 20.1951 48.3536 19.6684C48.2985 14.3611 49.1133 10.003 52.9179 5.81251C53.107 5.57274 53.2961 5.33297 53.491 5.08594C55.1171 3.3353 57.2592 2.14457 59.5163 1.22608C59.684 1.15773 59.8518 1.08938 60.0246 1.01896C66.0204 -1.28858 73.0311 -0.239206 78.2634 3.12763ZM61.3009 5.08594C61.0959 5.17086 60.891 5.25578 60.6798 5.34327C57.0498 7.01831 54.7974 9.88222 53.4275 13.325C52.948 14.7226 52.8814 15.9861 52.8882 17.4406C52.8881 17.6581 52.8881 17.8756 52.888 18.0997C52.8882 18.8165 52.8903 19.5333 52.8923 20.2501C52.8928 20.7479 52.8932 21.2457 52.8934 21.7436C52.8944 23.0523 52.897 24.361 52.8999 25.6697C52.9026 27.0058 52.9038 28.3418 52.9051 29.6779C52.9079 32.2983 52.9124 34.9187 52.9179 37.5391C53.3769 37.4643 53.8358 37.3888 54.2946 37.3131C54.6779 37.2502 54.6779 37.2502 55.069 37.186C55.9685 37.0243 56.8105 36.8001 57.6825 36.54C58.1176 36.4117 58.1176 36.4117 58.5615 36.2808C58.7739 36.2165 58.9863 36.1522 59.2052 36.0859C59.4591 34.1117 59.4591 34.1117 58.7846 32.2828C58.4178 31.8884 58.0433 31.4998 57.662 31.1173C55.6298 28.9046 55.4768 26.4032 55.4603 23.642C55.4572 23.2894 55.4519 22.9368 55.4441 22.5843C55.433 22.0742 55.4287 21.5644 55.4261 21.0542C55.4222 20.7497 55.4184 20.4451 55.4145 20.1313C55.5376 19.375 55.5376 19.375 55.9961 18.9268C56.5833 18.6495 57.104 18.4721 57.7439 18.3277C58.0792 18.2478 58.0792 18.2478 58.4213 18.1663C58.6584 18.1106 58.8954 18.0549 59.1397 17.9976C60.9951 17.5358 62.7296 17.002 64.4445 16.1963C64.612 16.1177 64.7794 16.0391 64.9519 15.9582C66.3934 15.2511 67.5207 14.5053 68.4068 13.2295C68.5389 13.04 68.6709 12.8505 68.807 12.6552C69.1953 12.0719 69.1953 12.0719 69.6021 11.2769C69.9459 10.6563 69.9459 10.6563 70.7318 10.1719C71.644 10.0642 72.1091 10.0396 72.8603 10.5503C73.3515 11.1406 73.3515 11.1406 73.7936 11.8975C74.2742 12.7191 74.8794 13.3595 75.5619 14.0469C78.1997 16.7097 79.0043 18.9572 78.9511 22.6143C78.9483 22.8806 78.9454 23.147 78.9425 23.4214C78.8749 26.604 78.2804 29.0802 76.2332 31.7266C75.9792 31.9214 75.7253 32.1162 75.4636 32.3169C74.5269 33.3929 74.8288 34.759 74.9233 36.0859C75.774 36.3303 76.6257 36.5717 77.4775 36.8125C77.7186 36.8818 77.9598 36.9511 78.2082 37.0225C78.4412 37.0881 78.6742 37.1536 78.9143 37.2212C79.1283 37.2821 79.3423 37.3429 79.5628 37.4057C80.2297 37.5768 80.2297 37.5768 81.2106 37.5391C81.235 34.6568 81.2535 31.7745 81.2649 28.8921C81.2703 27.5534 81.2777 26.2148 81.2896 24.8762C81.3011 23.5822 81.3073 22.2883 81.31 20.9944C81.3119 20.5028 81.3157 20.0113 81.3214 19.5198C81.3686 15.2684 80.8766 11.4093 77.5852 8.14326C74.6165 5.34942 71.2747 4.03719 67.0479 3.9961C64.9778 4.01448 63.1935 4.26386 61.3009 5.08594ZM71.5177 16.2266C71.2573 16.4754 71.0017 16.7286 70.7482 16.9834C67.8415 19.6924 63.5856 20.9246 59.7291 22.0391C59.6227 25.2448 59.5597 27.3433 62.0357 29.7928C63.7127 31.1943 65.5954 31.5767 67.798 31.5497C69.9476 31.3822 71.4612 30.5508 72.9084 29.0994C74.5704 27.1442 74.7131 25.2072 74.7268 22.7959C74.7323 22.5614 74.7377 22.327 74.7432 22.0854C74.7553 20.029 74.3429 18.7552 72.7948 17.2105C72.6104 17.0234 72.4261 16.8364 72.2361 16.6438C71.8556 16.1982 71.8556 16.1982 71.5177 16.2266ZM63.6586 35.1172C63.3823 37.4065 63.3823 37.4065 64.2808 39.4312C65.2703 40.1934 65.7588 40.2413 67.0315 40.2485C67.3064 40.252 67.5813 40.2554 67.8645 40.2589C68.6501 40.2021 69.049 40.1418 69.6839 39.7188C70.4947 38.7705 70.5579 38.0469 70.519 36.8579C70.5119 36.5766 70.5048 36.2953 70.4975 36.0055C70.4838 35.6857 70.4838 35.6857 70.4698 35.3594C70.3101 35.3606 70.1503 35.3619 69.9856 35.3632C69.2574 35.3683 68.5292 35.3714 67.801 35.3745C67.4239 35.3776 67.4239 35.3776 67.0392 35.3807C66.7952 35.3814 66.5512 35.3822 66.2998 35.383C66.0762 35.3843 65.8526 35.3856 65.6222 35.3869C64.9443 35.3584 64.3197 35.2555 63.6586 35.1172Z" fill="#164A41"/>
</g>
<defs>
<clipPath id="clip0_520_215">
<rect width="134.128" height="124" fill="white"/>
</clipPath>
</defs>
</svg>
