<svg width="41" height="41" viewBox="0 0 41 41" fill="none" xmlns="http://www.w3.org/2000/svg">
<path d="M37.2517 7.93593C36.8408 7.93601 36.4329 8.00623 36.0456 8.14357C35.7108 7.49143 35.2047 6.94282 34.5816 6.55671C33.9586 6.17059 33.242 5.96156 32.5091 5.95209C31.8687 5.95579 31.2388 6.11469 30.6733 6.41517C30.1078 6.71565 29.6236 7.14876 29.2622 7.67737C28.6877 7.36097 28.031 7.22566 27.3782 7.2892C26.9775 7.32732 26.5869 7.43778 26.2256 7.61521C25.863 6.92208 25.3196 6.34003 24.6529 5.9308C23.9863 5.52156 23.2213 5.30041 22.4391 5.2908C21.4742 5.29436 20.54 5.63043 19.794 6.24239C19.6999 5.74818 19.4259 5.30642 19.025 5.00248L11.6061 0.109003C11.4981 0.0378966 11.3717 0 11.2424 0C11.1131 0 10.9866 0.0378966 10.8787 0.109003L3.41947 5.03092C3.1793 5.21689 2.98473 5.45519 2.85054 5.72769C2.71636 6.00019 2.6461 6.2997 2.64511 6.60345V7.93593C2.64511 8.46208 2.85412 8.96668 3.22616 9.33872C3.5982 9.71076 4.1028 9.91977 4.62894 9.91977C4.85473 9.91758 5.07844 9.87642 5.29022 9.7981V13.2791C4.18946 13.438 3.1827 13.9879 2.45412 14.8282C1.72554 15.6685 1.32386 16.743 1.32255 17.8552V33.7986C0.474807 34.6615 -0.000143579 35.8227 3.25584e-08 37.0323V40.3387C3.25584e-08 40.5141 0.0696701 40.6823 0.193684 40.8063C0.317697 40.9303 0.485896 41 0.661277 41H40.3379C40.5133 41 40.6815 40.9303 40.8055 40.8063C40.9295 40.6823 40.9992 40.5141 40.9992 40.3387V11.852C41.02 10.8362 40.6372 9.85363 39.9347 9.11957C39.2323 8.38551 38.2675 7.95987 37.2517 7.93593ZM4.62894 8.59721C4.45356 8.59721 4.28536 8.52754 4.16135 8.40353C4.03733 8.27951 3.96766 8.11131 3.96766 7.93593V6.60345C3.96677 6.50981 3.9859 6.41706 4.02376 6.33141C4.06162 6.24576 4.11735 6.16919 4.18721 6.10682L11.2417 1.45537L18.2572 6.08037C18.3374 6.14232 18.4024 6.22176 18.4472 6.31264C18.492 6.40352 18.5155 6.50344 18.5158 6.60477V7.93593C18.5158 8.11131 18.4461 8.27951 18.3221 8.40353C18.1981 8.52754 18.0299 8.59721 17.8545 8.59721C17.6791 8.59721 17.5109 8.52754 17.3869 8.40353C17.2629 8.27951 17.1932 8.11131 17.1932 7.93593V7.27465C17.1932 7.16249 17.1647 7.05218 17.1103 6.95408C17.0559 6.85598 16.9775 6.77332 16.8824 6.71388L11.5922 3.40747C11.4871 3.34179 11.3657 3.30696 11.2417 3.30696C11.1178 3.30696 10.9963 3.34179 10.8912 3.40747L5.60102 6.71388C5.50591 6.77332 5.42748 6.85598 5.37311 6.95408C5.31875 7.05218 5.29022 7.16249 5.29022 7.27465V7.93593C5.29022 8.11131 5.22055 8.27951 5.09654 8.40353C4.97252 8.52754 4.80432 8.59721 4.62894 8.59721ZM12.5643 13.2262H9.91916V9.91977C9.91916 9.56901 10.0585 9.23261 10.3065 8.98458C10.5546 8.73655 10.891 8.59721 11.2417 8.59721C11.5925 8.59721 11.9289 8.73655 12.1769 8.98458C12.4249 9.23261 12.5643 9.56901 12.5643 9.91977V13.2262ZM11.2417 7.27465C10.5402 7.27465 9.86739 7.55333 9.37134 8.04939C8.87529 8.54544 8.59661 9.21824 8.59661 9.91977V13.2262H6.61277V7.641L11.2417 4.74789L15.8707 7.641V13.2262H13.8868V9.91977C13.8868 9.21824 13.6081 8.54544 13.1121 8.04939C12.616 7.55333 11.9432 7.27465 11.2417 7.27465ZM5.9515 14.5487H18.4701C20.0666 14.5699 21.6451 14.8883 23.1249 15.4878L21.9346 16.2727C21.6945 16.4587 21.5001 16.6971 21.366 16.9696C21.2319 17.2421 21.1618 17.5415 21.1609 17.8452V19.1777C21.1609 19.7039 21.3699 20.2085 21.7419 20.5805C22.114 20.9525 22.6186 21.1616 23.1447 21.1616C23.3705 21.1594 23.5942 21.1182 23.806 21.0399V22.7195C22.3516 23.3091 20.9907 24.1073 19.7662 25.0889L11.6253 19.3C11.5133 19.2203 11.3792 19.1775 11.2417 19.1775C11.1042 19.1775 10.9702 19.2203 10.8582 19.3L2.64511 25.1405V17.8552C2.64616 16.9786 2.99485 16.1382 3.61469 15.5183C4.23453 14.8985 5.07491 14.5498 5.9515 14.5487ZM31.08 25.1292H28.4349V21.8228C28.4349 21.4721 28.5743 21.1357 28.8223 20.8876C29.0703 20.6396 29.4067 20.5003 29.7575 20.5003C30.1082 20.5003 30.4446 20.6396 30.6927 20.8876C30.9407 21.1357 31.08 21.4721 31.08 21.8228V25.1292ZM29.7575 19.1777C29.056 19.1777 28.3832 19.4564 27.8871 19.9525C27.3911 20.4485 27.1124 21.1213 27.1124 21.8228V25.1292H25.1285V18.8828L29.7575 15.9897L34.3864 18.8828V25.1292H32.4026V21.8228C32.4026 21.1213 32.1239 20.4485 31.6279 19.9525C31.1318 19.4564 30.459 19.1777 29.7575 19.1777ZM35.3982 17.9557L30.108 14.6493C30.0029 14.5836 29.8814 14.5487 29.7575 14.5487C29.6335 14.5487 29.5121 14.5836 29.407 14.6493L24.1168 17.9557C24.0217 18.0151 23.9432 18.0978 23.8889 18.1959C23.8345 18.294 23.806 18.4043 23.806 18.5164V19.1777C23.806 19.3531 23.7363 19.5213 23.6123 19.6453C23.4883 19.7693 23.3201 19.839 23.1447 19.839C22.9693 19.839 22.8011 19.7693 22.6771 19.6453C22.5531 19.5213 22.4834 19.3531 22.4834 19.1777V17.8452C22.4825 17.7516 22.5017 17.6588 22.5395 17.5732C22.5774 17.4875 22.6331 17.411 22.703 17.3486L29.7575 12.6972L36.773 17.3222C36.8532 17.3841 36.9181 17.4635 36.9629 17.5544C37.0078 17.6453 37.0312 17.7452 37.0315 17.8466V19.1777C37.0315 19.3531 36.9619 19.5213 36.8378 19.6453C36.7138 19.7693 36.5456 19.839 36.3703 19.839C36.1949 19.839 36.0267 19.7693 35.9027 19.6453C35.7786 19.5213 35.709 19.3531 35.709 19.1777V18.5164C35.709 18.4043 35.6805 18.294 35.6261 18.1959C35.5717 18.0978 35.4933 18.0151 35.3982 17.9557ZM2.64511 27.1032C2.64485 27.0059 2.66606 26.9098 2.70721 26.8217C2.74835 26.7335 2.80844 26.6556 2.88317 26.5933L11.2417 20.6504L19.5798 26.5788C19.66 26.6407 19.7249 26.7202 19.7697 26.811C19.8146 26.9019 19.838 27.0018 19.8383 27.1032V28.4357C19.8383 28.611 19.7687 28.7792 19.6446 28.9032C19.5206 29.0273 19.3524 29.0969 19.177 29.0969C19.0017 29.0969 18.8335 29.0273 18.7094 28.9032C18.5854 28.7792 18.5158 28.611 18.5158 28.4357V27.7744C18.5157 27.668 18.49 27.5633 18.4409 27.469C18.3917 27.3747 18.3205 27.2937 18.2334 27.2328L11.6206 22.6038C11.5095 22.5261 11.3773 22.4845 11.2417 22.4845C11.1062 22.4845 10.9739 22.5261 10.8628 22.6038L4.25003 27.2328C4.16289 27.2937 4.09173 27.3747 4.04257 27.469C3.99342 27.5633 3.96772 27.668 3.96766 27.7744V28.4357C3.96766 28.611 3.89799 28.7792 3.77398 28.9032C3.64997 29.0273 3.48177 29.0969 3.30639 29.0969C3.13101 29.0969 2.96281 29.0273 2.83879 28.9032C2.71478 28.7792 2.64511 28.611 2.64511 28.4357V27.1032ZM13.2255 35.7097H9.25788V31.0808C9.25788 30.5546 9.46689 30.05 9.83893 29.678C10.211 29.3059 10.7156 29.0969 11.2417 29.0969C11.7679 29.0969 12.2725 29.3059 12.6445 29.678C13.0165 30.05 13.2255 30.5546 13.2255 31.0808V35.7097ZM11.2417 27.7744C10.3651 27.7754 9.52475 28.1241 8.90491 28.744C8.28507 29.3638 7.93638 30.2042 7.93533 31.0808V35.7097H5.29022V28.1189L11.2417 23.9528L17.1932 28.1189V35.7097H14.5481V31.0808C14.5471 30.2042 14.1984 29.3638 13.5785 28.744C12.9587 28.1241 12.1183 27.7754 11.2417 27.7744ZM3.96766 32.4562C3.50914 32.5221 3.06323 32.657 2.64511 32.8563V30.2978C3.07103 30.4601 3.54174 30.4601 3.96766 30.2978V32.4562ZM1.32255 37.0323C1.32352 36.2704 1.58713 35.5321 2.06895 34.9418C2.55078 34.3516 3.22135 33.9455 3.96766 33.792V36.371C3.96766 36.5464 4.03733 36.7146 4.16135 36.8386C4.28536 36.9626 4.45356 37.0323 4.62894 37.0323H17.8545C18.0299 37.0323 18.1981 36.9626 18.3221 36.8386C18.4461 36.7146 18.5158 36.5464 18.5158 36.371V33.7259C19.0419 33.7259 19.5465 33.9349 19.9185 34.307C20.2906 34.679 20.4996 35.1836 20.4996 35.7097V39.6774H1.32255V37.0323ZM39.6766 39.6774H21.8222V38.3549C21.8081 37.6674 22.0628 37.0017 22.5321 36.4991C23.0014 35.9966 23.6482 35.697 24.335 35.6641C24.5235 35.6694 24.7112 35.6915 24.8958 35.7302C25.0665 35.7585 25.2416 35.7224 25.3872 35.6287C25.5327 35.5351 25.6383 35.3908 25.6834 35.2237C25.8518 34.4425 26.2768 33.7402 26.8907 33.2286C27.5046 32.717 28.272 32.4255 29.0708 32.4007C29.8695 32.3759 30.6536 32.6192 31.298 33.0917C31.9425 33.5643 32.4102 34.2389 32.6268 35.0081C32.6578 35.1002 32.7088 35.1843 32.776 35.2544C32.8432 35.3245 32.9251 35.379 33.0157 35.4139C33.1064 35.4488 33.2036 35.4633 33.3005 35.4564C33.3974 35.4495 33.4916 35.4213 33.5764 35.3738L33.704 35.3024C34.1245 35.0898 34.6001 35.0116 35.0666 35.0784C35.533 35.1452 35.9676 35.3539 36.3114 35.676C36.3941 35.7528 36.4951 35.8072 36.6047 35.834C36.7144 35.8607 36.829 35.859 36.9378 35.8289C37.0466 35.7988 37.1458 35.7413 37.2261 35.662C37.3064 35.5827 37.3651 35.4842 37.3966 35.3758C37.5473 34.8363 37.8373 34.3459 38.2375 33.9539C38.6378 33.5619 39.1341 33.2821 39.6766 33.1427V39.6774ZM39.6766 31.7989C38.993 31.9164 38.3461 32.1915 37.7873 32.6026C37.2285 33.0136 36.7732 33.5493 36.4575 34.167C36.0239 33.9302 35.5461 33.7855 35.0539 33.7421C34.5618 33.6986 34.0659 33.7573 33.5975 33.9144C33.1995 33.0774 32.5752 32.3684 31.7953 31.8677C31.0154 31.3669 30.1109 31.0943 29.1842 31.0808C28.1776 31.1023 27.2007 31.4257 26.38 32.009C25.5594 32.5923 24.9329 33.4086 24.5817 34.3521C24.497 34.3455 24.4124 34.3416 24.3317 34.3416C23.3819 34.3516 22.4721 34.7256 21.7898 35.3864C21.7112 34.5717 21.3326 33.8152 20.7276 33.2639C20.1226 32.7127 19.3343 32.406 18.5158 32.4033V30.2978C18.7275 30.3761 18.9513 30.4173 19.177 30.4195C19.7032 30.4195 20.2078 30.2105 20.5798 29.8384C20.9519 29.4664 21.1609 28.9618 21.1609 28.4357V27.1032C21.1562 26.6918 21.0233 26.2921 20.7806 25.9598C21.7137 25.2457 22.7295 24.6467 23.806 24.1757V25.7905C23.806 25.9659 23.8757 26.1341 23.9997 26.2581C24.1237 26.3821 24.2919 26.4518 24.4673 26.4518H35.0477C35.2231 26.4518 35.3913 26.3821 35.5153 26.2581C35.6393 26.1341 35.709 25.9659 35.709 25.7905V24.2696C38.2106 25.7833 39.6766 27.785 39.6766 29.7582V31.7989ZM35.709 22.7486V21.0399C35.9208 21.1182 36.1445 21.1594 36.3703 21.1616C36.8964 21.1616 37.401 20.9525 37.773 20.5805C38.1451 20.2085 38.3541 19.7039 38.3541 19.1777V17.8452C38.3514 17.5337 38.2765 17.227 38.1354 16.9492C37.9943 16.6715 37.7907 16.4302 37.5407 16.2443L30.1218 11.3508C30.0139 11.2797 29.8874 11.2418 29.7581 11.2418C29.6289 11.2418 29.5024 11.2797 29.3944 11.3508L24.4269 14.6288C22.5707 13.7229 20.5355 13.2437 18.4701 13.2262H17.1932V9.7981C17.405 9.87642 17.6287 9.91758 17.8545 9.91977C18.3207 9.91861 18.7717 9.75327 19.1282 9.45277C19.4846 9.15227 19.7239 8.73581 19.8039 8.27649C20.0494 7.78504 20.4248 7.37021 20.8893 7.07702C21.3539 6.78383 21.8899 6.62348 22.4391 6.61337C23.0864 6.63043 23.7117 6.85133 24.2261 7.24458C24.7405 7.63784 25.1176 8.1834 25.3038 8.80353C25.3362 8.90227 25.3914 8.99198 25.465 9.06539C25.5385 9.13879 25.6283 9.19383 25.7271 9.22604C25.826 9.25824 25.931 9.26671 26.0336 9.25075C26.1363 9.23479 26.2338 9.19485 26.3182 9.13417L26.4101 9.06804C26.7199 8.80845 27.1009 8.64849 27.5032 8.60911C27.7787 8.5844 28.0563 8.61759 28.3183 8.70653C28.5802 8.79547 28.8206 8.93821 29.0241 9.12557C29.1034 9.19186 29.197 9.23894 29.2974 9.26314C29.3979 9.28735 29.5026 9.28802 29.6034 9.26511C29.7062 9.24169 29.8024 9.19532 29.8847 9.12947C29.967 9.06362 30.0334 8.98 30.0789 8.88487C30.2885 8.41288 30.6286 8.01059 31.0591 7.72534C31.4896 7.44008 31.9927 7.28372 32.5091 7.27465C33.0911 7.29055 33.6533 7.48981 34.1155 7.84402C34.5776 8.19824 34.9161 8.68932 35.0828 9.24725C35.116 9.34601 35.1721 9.4355 35.2466 9.50844C35.321 9.58138 35.4116 9.6357 35.511 9.66697C35.6104 9.69823 35.7158 9.70556 35.8186 9.68836C35.9214 9.67116 36.0186 9.62991 36.1024 9.56797C36.4518 9.36587 36.8481 9.25914 37.2517 9.25849C37.917 9.28144 38.546 9.56742 39.0007 10.0537C39.4553 10.5399 39.6984 11.1867 39.6766 11.852V26.0464C38.6152 24.6663 37.2599 23.5398 35.709 22.7486Z" fill="white"/>
</svg>
