<svg width="107" height="74" viewBox="0 0 107 74" fill="none" xmlns="http://www.w3.org/2000/svg">
<path d="M47.688 73.5882L36.3502 62.6785C57.9564 66.2183 64.0291 59.8868 82.3846 50.8142L73.4012 42.8238C89.8328 34.1294 96.0347 24.1546 106.592 5.50796C90.5974 10.9488 81.5455 13.2745 64.4514 9.28361L72.6466 0.0698189C52.7164 -0.471327 42.4194 1.92494 26.765 14.5455L29.175 3.48665C15.9788 16.0686 -0.20752 43.575 0.00196688 46.0264C0.211454 48.4778 41.6424 39.5315 67.2982 30.6673C43.9362 45.1386 0.79242 49.7762 0.0892871 50.1029C-0.613846 50.4296 26.8481 75.6809 47.688 73.5882Z" fill="#4D774F"/>
</svg>
