<svg width="115" height="72" viewBox="0 0 115 72" fill="none" xmlns="http://www.w3.org/2000/svg">
<path d="M24.23 2.96667L21.7785 18.8557C37.1781 2.60087 46.0627 3.98851 66.6577 3.99304e-05L64.3087 12.058C83.1013 8.95323 94.3569 13.2229 114.553 21.8462C98.1401 27.3255 89.3198 31.0389 77.8764 44.867L90.2824 47.2838C74.3833 60.0632 64.5048 64.4902 43.9037 63.9219L52.7443 71.4206C34.1698 69.3617 3.87795 57.0206 2.52411 54.898C1.17027 52.7753 40.4847 34.3975 66.8971 25.7197C38.8662 28.4188 0.836031 51.36 0.0600886 51.5297C-0.715854 51.6995 5.95182 14.1679 24.23 2.96667Z" fill="#15463E"/>
</svg>
