<svg width="49" height="44" viewBox="0 0 49 44" fill="none" xmlns="http://www.w3.org/2000/svg">
<path d="M48.0629 13.2593C48.0629 5.93634 42.1266 2.67029e-05 34.805 2.67029e-05C30.3601 2.67029e-05 26.438 2.19423 24.0315 5.54802C21.6263 2.19423 17.7028 2.67029e-05 13.2593 2.67029e-05C5.93631 2.67029e-05 0 5.93634 0 13.2593C0 14.2966 0.131679 15.3017 0.357415 16.2705C2.19958 27.7077 14.916 39.7765 24.0315 43.09C33.1455 39.7765 45.8647 27.7077 47.7028 16.2705C47.9312 15.3017 48.0629 14.2966 48.0629 13.2593Z" fill="white"/>
<path d="M24 13.09C24 24.9757 24 23.7567 24 21.09M24 21.09H16M24 21.09H32M24 21.09V29.09" stroke="#EFB34A" stroke-width="4.5"/>
</svg>
