<svg width="46" height="55" viewBox="0 0 46 55" fill="none" xmlns="http://www.w3.org/2000/svg">
<path d="M45.1619 14.4006L31.4119 0.670488C30.9822 0.241309 30.3994 0.000129606 29.7917 0L6.875 0C5.05164 0 3.30295 0.723282 2.01364 2.01073C0.724328 3.29818 0 5.04434 0 6.86507V48.0555C0 49.8762 0.724328 51.6223 2.01364 52.9098C3.30295 54.1972 5.05164 54.9205 6.875 54.9205H38.9583C40.7817 54.9205 42.5304 54.1972 43.8197 52.9098C45.109 51.6223 45.8333 49.8762 45.8333 48.0555V16.0185C45.8332 15.4116 45.5917 14.8297 45.1619 14.4006ZM32.0833 7.81244L38.0096 13.7301H32.0833V7.81244ZM38.9583 50.3438H6.875C6.26721 50.3438 5.68432 50.1027 5.25455 49.6736C4.82478 49.2444 4.58333 48.6624 4.58333 48.0555V6.86507C4.58333 6.25816 4.82478 5.6761 5.25455 5.24695C5.68432 4.8178 6.26721 4.57671 6.875 4.57671H27.5V16.0185C27.5 16.6254 27.7414 17.2074 28.1712 17.6366C28.601 18.0657 29.1839 18.3068 29.7917 18.3068H41.25V48.0555C41.25 48.6624 41.0086 49.2444 40.5788 49.6736C40.149 50.1027 39.5661 50.3438 38.9583 50.3438Z" fill="white"/>
<path d="M34.3748 22.8835H16.0415C15.4337 22.8835 14.8508 23.1246 14.4211 23.5538C13.9913 23.9829 13.7498 24.565 13.7498 25.1719C13.7498 25.7788 13.9913 26.3609 14.4211 26.79C14.8508 27.2192 15.4337 27.4603 16.0415 27.4603H34.3748C34.9826 27.4603 35.5655 27.2192 35.9953 26.79C36.4251 26.3609 36.6665 25.7788 36.6665 25.1719C36.6665 24.565 36.4251 23.9829 35.9953 23.5538C35.5655 23.1246 34.9826 22.8835 34.3748 22.8835ZM34.3748 32.037H11.4582C10.8504 32.037 10.2675 32.2781 9.83772 32.7072C9.40795 33.1364 9.1665 33.7184 9.1665 34.3253C9.1665 34.9322 9.40795 35.5143 9.83772 35.9434C10.2675 36.3726 10.8504 36.6137 11.4582 36.6137H34.3748C34.9826 36.6137 35.5655 36.3726 35.9953 35.9434C36.4251 35.5143 36.6665 34.9322 36.6665 34.3253C36.6665 33.7184 36.4251 33.1364 35.9953 32.7072C35.5655 32.2781 34.9826 32.037 34.3748 32.037ZM29.7915 41.1904H11.4582C10.8504 41.1904 10.2675 41.4315 9.83772 41.8606C9.40795 42.2898 9.1665 42.8718 9.1665 43.4787C9.1665 44.0857 9.40795 44.6677 9.83772 45.0969C10.2675 45.526 10.8504 45.7671 11.4582 45.7671H29.7915C30.3993 45.7671 30.9822 45.526 31.412 45.0969C31.8417 44.6677 32.0832 44.0857 32.0832 43.4787C32.0832 42.8718 31.8417 42.2898 31.412 41.8606C30.9822 41.4315 30.3993 41.1904 29.7915 41.1904Z" fill="white"/>
</svg>
