<svg width="48" height="52" viewBox="0 0 48 52" fill="none" xmlns="http://www.w3.org/2000/svg">
<path d="M37.5865 27.9732L22.8173 42.8304C22.625 43.0045 22.4038 43.0915 22.1538 43.0915C21.9038 43.0915 21.6827 43.0045 21.4904 42.8304L13.1827 34.4732C13.0096 34.2798 12.9231 34.0573 12.9231 33.8058C12.9231 33.5543 13.0096 33.3415 13.1827 33.1674L14.5096 31.8326C14.6827 31.6585 14.8942 31.5714 15.1442 31.5714C15.3942 31.5714 15.6154 31.6585 15.8077 31.8326L22.1538 38.2165L34.9615 25.3326C35.1538 25.1585 35.375 25.0714 35.625 25.0714C35.875 25.0714 36.0865 25.1585 36.2596 25.3326L37.5865 26.6674C37.7596 26.8415 37.8462 27.0543 37.8462 27.3058C37.8462 27.5573 37.7596 27.7798 37.5865 27.9732ZM3.69231 48.2857H44.3077V18.5714H3.69231V48.2857ZM14.7692 13V4.64286C14.7692 4.37202 14.6827 4.14955 14.5096 3.97545C14.3365 3.80134 14.1154 3.71429 13.8462 3.71429H12C11.7308 3.71429 11.5096 3.80134 11.3365 3.97545C11.1635 4.14955 11.0769 4.37202 11.0769 4.64286V13C11.0769 13.2708 11.1635 13.4933 11.3365 13.6674C11.5096 13.8415 11.7308 13.9286 12 13.9286H13.8462C14.1154 13.9286 14.3365 13.8415 14.5096 13.6674C14.6827 13.4933 14.7692 13.2708 14.7692 13ZM36.9231 13V4.64286C36.9231 4.37202 36.8365 4.14955 36.6635 3.97545C36.4904 3.80134 36.2692 3.71429 36 3.71429H34.1538C33.8846 3.71429 33.6635 3.80134 33.4904 3.97545C33.3173 4.14955 33.2308 4.37202 33.2308 4.64286V13C33.2308 13.2708 33.3173 13.4933 33.4904 13.6674C33.6635 13.8415 33.8846 13.9286 34.1538 13.9286H36C36.2692 13.9286 36.4904 13.8415 36.6635 13.6674C36.8365 13.4933 36.9231 13.2708 36.9231 13ZM48 11.1429V48.2857C48 49.2917 47.6346 50.1622 46.9038 50.8973C46.1731 51.6324 45.3077 52 44.3077 52H3.69231C2.69231 52 1.82692 51.6324 1.09615 50.8973C0.365385 50.1622 0 49.2917 0 48.2857V11.1429C0 10.1369 0.365385 9.26637 1.09615 8.53125C1.82692 7.79613 2.69231 7.42857 3.69231 7.42857H7.38462V4.64286C7.38462 3.36607 7.83654 2.27307 8.74039 1.36384C9.64423 0.454613 10.7308 0 12 0H13.8462C15.1154 0 16.2019 0.454613 17.1058 1.36384C18.0096 2.27307 18.4615 3.36607 18.4615 4.64286V7.42857H29.5385V4.64286C29.5385 3.36607 29.9904 2.27307 30.8942 1.36384C31.7981 0.454613 32.8846 0 34.1538 0H36C37.2692 0 38.3558 0.454613 39.2596 1.36384C40.1635 2.27307 40.6154 3.36607 40.6154 4.64286V7.42857H44.3077C45.3077 7.42857 46.1731 7.79613 46.9038 8.53125C47.6346 9.26637 48 10.1369 48 11.1429Z" fill="white"/>
</svg>
