<svg width="46" height="46" viewBox="0 0 46 46" fill="none" xmlns="http://www.w3.org/2000/svg">
<path d="M23.0324 27.5988C22.5781 27.5988 22.1341 27.7337 21.7564 27.9864C21.3787 28.2391 21.0843 28.5983 20.9104 29.0185C20.7366 29.4388 20.6911 29.9012 20.7797 30.3474C20.8684 30.7935 21.0871 31.2033 21.4083 31.5249C21.7295 31.8466 22.1388 32.0656 22.5843 32.1544C23.0298 32.2431 23.4916 32.1976 23.9113 32.0235C24.331 31.8494 24.6897 31.5546 24.9421 31.1764C25.1944 30.7982 25.3291 30.3536 25.3291 29.8987C25.3291 29.2887 25.0872 28.7037 24.6564 28.2724C24.2257 27.8411 23.6415 27.5988 23.0324 27.5988ZM23.0324 0C20.0162 0 17.0296 0.594886 14.243 1.75069C11.4565 2.9065 8.92454 4.60059 6.7918 6.73625C2.48453 11.0494 0.0647374 16.8993 0.0647374 22.999C0.0446587 28.3098 1.881 33.4602 5.25542 37.5573L0.661896 42.1571C0.343202 42.4806 0.127315 42.8913 0.0414758 43.3374C-0.0443637 43.7836 0.00369066 44.2452 0.179575 44.664C0.37034 45.0778 0.67959 45.4256 1.06807 45.6631C1.45655 45.9006 1.90674 46.0171 2.3615 45.998H23.0324C29.1238 45.998 34.9657 43.5749 39.2729 39.2617C43.5802 34.9486 46 29.0987 46 22.999C46 16.8993 43.5802 11.0494 39.2729 6.73625C34.9657 2.4231 29.1238 0 23.0324 0ZM23.0324 41.3982H7.8967L10.0327 39.2593C10.2497 39.0463 10.4224 38.7922 10.5406 38.5119C10.6589 38.2316 10.7205 37.9306 10.7217 37.6263C10.7131 37.0197 10.4654 36.441 10.0327 36.0164C7.02528 33.0082 5.15247 29.049 4.73335 24.8131C4.31423 20.5773 5.37472 16.327 7.73415 12.7863C10.0936 9.24568 13.606 6.63373 17.6729 5.3955C21.7398 4.15727 26.1097 4.36936 30.038 5.99564C33.9663 7.62191 37.2099 10.5618 39.2164 14.3143C41.2228 18.0669 41.8678 22.4 41.0416 26.5753C40.2153 30.7507 37.9689 34.5101 34.6851 37.2129C31.4012 39.9157 27.2831 41.3948 23.0324 41.3982ZM23.0324 13.7994C22.4232 13.7994 21.839 14.0417 21.4083 14.473C20.9776 14.9043 20.7356 15.4893 20.7356 16.0993V22.999C20.7356 23.609 20.9776 24.1939 21.4083 24.6253C21.839 25.0566 22.4232 25.2989 23.0324 25.2989C23.6415 25.2989 24.2257 25.0566 24.6564 24.6253C25.0872 24.1939 25.3291 23.609 25.3291 22.999V16.0993C25.3291 15.4893 25.0872 14.9043 24.6564 14.473C24.2257 14.0417 23.6415 13.7994 23.0324 13.7994Z" fill="white"/>
</svg>
