<svg width="50" height="50" viewBox="0 0 50 50" fill="none" xmlns="http://www.w3.org/2000/svg">
<path d="M46.45 16.8335H2.05C1.60817 16.8335 1.25 16.4753 1.25 16.0335V12.436C1.25 12.121 1.43477 11.8354 1.72202 11.7063L24.8285 1.32033C25.0449 1.22305 25.2933 1.22686 25.5067 1.33075L46.8002 11.6994C47.0754 11.8334 47.25 12.1126 47.25 12.4187V16.0335C47.25 16.4753 46.8918 16.8335 46.45 16.8335Z" fill="white"/>
<path d="M6.46333 41.5302V21.9341C6.46333 21.4923 6.82151 21.1341 7.26333 21.1341H10.8767C11.3185 21.1341 11.6767 21.4923 11.6767 21.9341V41.5302C11.6767 41.972 12.0348 42.3302 12.4767 42.3302H21.61C22.0518 42.3302 22.41 41.972 22.41 41.5302V21.6269C22.41 21.1851 22.7682 20.8269 23.21 20.8269H26.8233C27.2652 20.8269 27.6233 21.1851 27.6233 21.6269V41.5302C27.6233 41.972 27.9815 42.3302 28.4233 42.3302H36.9433C37.3852 42.3302 37.7433 41.972 37.7433 41.5302V21.6269C37.7433 21.1851 38.1015 20.8269 38.5433 20.8269H41.85C42.2918 20.8269 42.65 21.1851 42.65 21.6269V41.5302C42.65 41.972 43.0082 42.3302 43.45 42.3302H46.6659C47.0139 42.3302 47.3247 42.555 47.4179 42.8902C47.9057 44.644 47.8465 45.8304 47.4062 47.5782C47.3183 47.9269 47.001 48.1668 46.6413 48.1668H2.4369C2.09403 48.1668 1.78708 47.9483 1.68596 47.6207C1.13559 45.8376 1.08445 44.6416 1.6779 42.8535C1.78293 42.537 2.08425 42.3302 2.41773 42.3302H5.66333C6.10516 42.3302 6.46333 41.972 6.46333 41.5302Z" fill="white"/>
<path d="M46.45 16.8335H2.05C1.60817 16.8335 1.25 16.4753 1.25 16.0335V12.436C1.25 12.121 1.43477 11.8354 1.72202 11.7063L24.8285 1.32033C25.0449 1.22305 25.2933 1.22686 25.5067 1.33075L46.8002 11.6994C47.0754 11.8334 47.25 12.1126 47.25 12.4187V16.0335C47.25 16.4753 46.8918 16.8335 46.45 16.8335Z" stroke="white" stroke-width="2.5"/>
<path d="M6.46333 41.5302V21.9341C6.46333 21.4923 6.82151 21.1341 7.26333 21.1341H10.8767C11.3185 21.1341 11.6767 21.4923 11.6767 21.9341V41.5302C11.6767 41.972 12.0348 42.3302 12.4767 42.3302H21.61C22.0518 42.3302 22.41 41.972 22.41 41.5302V21.6269C22.41 21.1851 22.7682 20.8269 23.21 20.8269H26.8233C27.2652 20.8269 27.6233 21.1851 27.6233 21.6269V41.5302C27.6233 41.972 27.9815 42.3302 28.4233 42.3302H36.9433C37.3852 42.3302 37.7433 41.972 37.7433 41.5302V21.6269C37.7433 21.1851 38.1015 20.8269 38.5433 20.8269H41.85C42.2918 20.8269 42.65 21.1851 42.65 21.6269V41.5302C42.65 41.972 43.0082 42.3302 43.45 42.3302H46.6659C47.0139 42.3302 47.3247 42.555 47.4179 42.8902C47.9057 44.644 47.8465 45.8304 47.4062 47.5782C47.3183 47.9269 47.001 48.1668 46.6413 48.1668H2.4369C2.09403 48.1668 1.78708 47.9483 1.68596 47.6207C1.13559 45.8376 1.08445 44.6416 1.6779 42.8535C1.78293 42.537 2.08425 42.3302 2.41773 42.3302H5.66333C6.10516 42.3302 6.46333 41.972 6.46333 41.5302Z" stroke="white" stroke-width="2.5"/>
</svg>
