<svg width="25" height="19" viewBox="0 0 25 19" fill="none" xmlns="http://www.w3.org/2000/svg">
<path d="M2.34375 0C1.0498 0 0 1.0638 0 2.375C0 3.12214 0.34668 3.82474 0.9375 4.275L11.5625 12.35C12.1191 12.7706 12.8809 12.7706 13.4375 12.35L24.0625 4.275C24.6533 3.82474 25 3.12214 25 2.375C25 1.0638 23.9502 0 22.6562 0H2.34375ZM0 5.54167V15.8333C0 17.5799 1.40137 19 3.125 19H21.875C23.5986 19 25 17.5799 25 15.8333V5.54167L14.375 13.6167C13.2617 14.4628 11.7383 14.4628 10.625 13.6167L0 5.54167Z" fill="white"/>
</svg>
