<svg width="21" height="21" viewBox="0 0 21 21" fill="none" xmlns="http://www.w3.org/2000/svg">
<path d="M17.0625 0C18.1471 0 19.0745 0.385091 19.8447 1.15527C20.6149 1.92546 21 2.85286 21 3.9375V17.0625C21 18.1471 20.6149 19.0745 19.8447 19.8447C19.0745 20.6149 18.1471 21 17.0625 21H14.4922V12.8652H17.2129L17.623 9.69336H14.4922V7.66992C14.4922 7.15951 14.5993 6.77669 14.8135 6.52148C15.0277 6.26628 15.4447 6.13867 16.0645 6.13867L17.7324 6.125V3.29492C17.1582 3.21289 16.347 3.17188 15.2988 3.17188C14.0592 3.17188 13.068 3.53646 12.3252 4.26562C11.5824 4.99479 11.2109 6.02474 11.2109 7.35547V9.69336H8.47656V12.8652H11.2109V21H3.9375C2.85286 21 1.92546 20.6149 1.15527 19.8447C0.385091 19.0745 0 18.1471 0 17.0625V3.9375C0 2.85286 0.385091 1.92546 1.15527 1.15527C1.92546 0.385091 2.85286 0 3.9375 0H17.0625Z" fill="white"/>
</svg>
