<svg width="22" height="22" viewBox="0 0 22 22" fill="none" xmlns="http://www.w3.org/2000/svg">
<path d="M10.7356 5.23005C7.68884 5.23005 5.2313 7.68759 5.2313 10.7344C5.2313 13.7811 7.68884 16.2387 10.7356 16.2387C13.7824 16.2387 16.2399 13.7811 16.2399 10.7344C16.2399 7.68759 13.7824 5.23005 10.7356 5.23005ZM10.7356 14.3129C8.76671 14.3129 7.15709 12.7081 7.15709 10.7344C7.15709 8.76067 8.76192 7.15584 10.7356 7.15584C12.7093 7.15584 14.3141 8.76067 14.3141 10.7344C14.3141 12.7081 12.7045 14.3129 10.7356 14.3129ZM17.7489 5.0049C17.7489 5.71869 17.1741 6.28876 16.4651 6.28876C15.7513 6.28876 15.1812 5.7139 15.1812 5.0049C15.1812 4.2959 15.7561 3.72104 16.4651 3.72104C17.1741 3.72104 17.7489 4.2959 17.7489 5.0049ZM21.3945 6.30792C21.3131 4.58812 20.9203 3.06474 19.6604 1.80962C18.4052 0.554503 16.8819 0.16168 15.1621 0.0754507C13.3896 -0.0251502 8.07688 -0.0251502 6.30438 0.0754507C4.58937 0.15689 3.06599 0.549712 1.80608 1.80483C0.546173 3.05995 0.15814 4.58333 0.0719107 6.30313C-0.0286903 8.07562 -0.0286903 13.3883 0.0719107 15.1608C0.15335 16.8806 0.546173 18.404 1.80608 19.6591C3.06599 20.9142 4.58458 21.307 6.30438 21.3933C8.07688 21.4939 13.3896 21.4939 15.1621 21.3933C16.8819 21.3118 18.4052 20.919 19.6604 19.6591C20.9155 18.404 21.3083 16.8806 21.3945 15.1608C21.4951 13.3883 21.4951 8.08042 21.3945 6.30792ZM19.1047 17.0626C18.731 18.0016 18.0076 18.725 17.0639 19.1034C15.6507 19.6639 12.2973 19.5346 10.7356 19.5346C9.17391 19.5346 5.81575 19.6591 4.40733 19.1034C3.46839 18.7297 2.74502 18.0064 2.36657 17.0626C1.80608 15.6494 1.93542 12.2961 1.93542 10.7344C1.93542 9.17265 1.81087 5.8145 2.36657 4.40608C2.74023 3.46714 3.4636 2.74377 4.40733 2.36532C5.82054 1.80483 9.17391 1.93417 10.7356 1.93417C12.2973 1.93417 15.6555 1.80962 17.0639 2.36532C18.0028 2.73898 18.7262 3.46235 19.1047 4.40608C19.6652 5.81929 19.5358 9.17265 19.5358 10.7344C19.5358 12.2961 19.6652 15.6542 19.1047 17.0626Z" fill="white"/>
</svg>
