<svg width="42" height="42" viewBox="0 0 42 42" fill="none" xmlns="http://www.w3.org/2000/svg">
<path d="M38.0546 8.10696C37.6348 8.10704 37.2181 8.17878 36.8224 8.31908C36.4805 7.65288 35.9635 7.09245 35.3269 6.69801C34.6904 6.30358 33.9584 6.09005 33.2097 6.08036C32.5555 6.08415 31.9121 6.24647 31.3344 6.55343C30.7567 6.86039 30.2621 7.30282 29.8928 7.84283C29.306 7.51961 28.6351 7.38138 27.9683 7.44629C27.5589 7.48524 27.1599 7.59808 26.7908 7.77933C26.4204 7.07127 25.8653 6.47667 25.1842 6.05862C24.5032 5.64056 23.7218 5.41464 22.9227 5.40483C21.937 5.40846 20.9827 5.75178 20.2206 6.37692C20.1244 5.87206 19.8445 5.42078 19.435 5.1103L11.8562 0.111352C11.7459 0.0387133 11.6167 0 11.4847 0C11.3526 0 11.2234 0.0387133 11.1131 0.111352L3.49316 5.13934C3.24782 5.32932 3.04905 5.57276 2.91198 5.85113C2.7749 6.1295 2.70312 6.43547 2.70212 6.74576V8.10696C2.70212 8.64445 2.91563 9.15992 3.29569 9.53998C3.67575 9.92004 4.19122 10.1336 4.7287 10.1336C4.95936 10.1313 5.18789 10.0893 5.40423 10.0093V13.5653C4.27975 13.7276 3.25129 14.2893 2.50701 15.1477C1.76273 16.0061 1.35239 17.1038 1.35106 18.24V34.5271C0.48504 35.4085 -0.000146673 36.5948 3.32601e-08 37.8304V41.2081C3.32601e-08 41.3872 0.0711716 41.5591 0.197858 41.6858C0.324544 41.8124 0.496368 41.8836 0.675529 41.8836H41.2073C41.3864 41.8836 41.5583 41.8124 41.6849 41.6858C41.8116 41.5591 41.8828 41.3872 41.8828 41.2081V12.1075C41.904 11.0698 41.513 10.066 40.7954 9.31611C40.0778 8.56623 39.0922 8.13142 38.0546 8.10696ZM4.7287 8.78249C4.54954 8.78249 4.37772 8.71132 4.25103 8.58463C4.12435 8.45795 4.05317 8.28612 4.05317 8.10696V6.74576C4.05226 6.6501 4.0718 6.55535 4.11048 6.46786C4.14916 6.38036 4.20609 6.30214 4.27745 6.23844L11.484 1.48674L18.6507 6.21142C18.7326 6.2747 18.799 6.35585 18.8448 6.44869C18.8905 6.54153 18.9145 6.6436 18.9148 6.74711V8.10696C18.9148 8.28612 18.8436 8.45795 18.717 8.58463C18.5903 8.71132 18.4184 8.78249 18.2393 8.78249C18.0601 8.78249 17.8883 8.71132 17.7616 8.58463C17.6349 8.45795 17.5638 8.28612 17.5638 8.10696V7.43143C17.5638 7.31685 17.5346 7.20416 17.4791 7.10395C17.4235 7.00374 17.3434 6.9193 17.2463 6.85858L11.842 3.48091C11.7347 3.41381 11.6106 3.37823 11.484 3.37823C11.3574 3.37823 11.2333 3.41381 11.126 3.48091L5.72173 6.85858C5.62457 6.9193 5.54446 7.00374 5.48891 7.10395C5.43337 7.20416 5.40423 7.31685 5.40423 7.43143V8.10696C5.40423 8.28612 5.33306 8.45795 5.20637 8.58463C5.07969 8.71132 4.90787 8.78249 4.7287 8.78249ZM12.8351 13.5112H10.1329V10.1336C10.1329 9.77524 10.2753 9.43159 10.5287 9.17821C10.782 8.92484 11.1257 8.78249 11.484 8.78249C11.8423 8.78249 12.186 8.92484 12.4393 9.17821C12.6927 9.43159 12.8351 9.77524 12.8351 10.1336V13.5112ZM11.484 7.43143C10.7673 7.43143 10.0801 7.71612 9.57331 8.22286C9.06656 8.72961 8.78188 9.41691 8.78188 10.1336V13.5112H6.75529V7.80567L11.484 4.85022L16.2127 7.80567V13.5112H14.1861V10.1336C14.1861 9.41691 13.9014 8.72961 13.3947 8.22286C12.8879 7.71612 12.2006 7.43143 11.484 7.43143ZM6.07976 14.8623H18.8682C20.499 14.8839 22.1116 15.2092 23.6233 15.8215L22.4073 16.6234C22.1621 16.8135 21.9634 17.0569 21.8265 17.3353C21.6895 17.6137 21.6179 17.9196 21.6169 18.2298V19.591C21.6169 20.1285 21.8304 20.644 22.2105 21.024C22.5906 21.4041 23.106 21.6176 23.6435 21.6176C23.8742 21.6154 24.1027 21.5733 24.319 21.4933V23.2092C22.8333 23.8115 21.4431 24.6269 20.1922 25.6296L11.8758 19.716C11.7614 19.6345 11.6244 19.5908 11.484 19.5908C11.3435 19.5908 11.2066 19.6345 11.0922 19.716L2.70212 25.6823V18.24C2.70319 17.3445 3.05939 16.486 3.69259 15.8528C4.32579 15.2196 5.18428 14.8634 6.07976 14.8623ZM31.7499 25.6708H29.0478V22.2932C29.0478 21.9348 29.1901 21.5912 29.4435 21.3378C29.6968 21.0844 30.0405 20.9421 30.3988 20.9421C30.7571 20.9421 31.1008 21.0844 31.3542 21.3378C31.6075 21.5912 31.7499 21.9348 31.7499 22.2932V25.6708ZM30.3988 19.591C29.6822 19.591 28.9949 19.8757 28.4881 20.3825C27.9814 20.8892 27.6967 21.5765 27.6967 22.2932V25.6708H25.6701V19.2897L30.3988 16.3343L35.1275 19.2897V25.6708H33.1009V22.2932C33.1009 21.5765 32.8162 20.8892 32.3095 20.3825C31.8027 19.8757 31.1155 19.591 30.3988 19.591ZM36.1611 18.3426L30.7568 14.965C30.6495 14.8979 30.5254 14.8623 30.3988 14.8623C30.2722 14.8623 30.1481 14.8979 30.0408 14.965L24.6365 18.3426C24.5394 18.4034 24.4593 18.4878 24.4037 18.588C24.3482 18.6882 24.319 18.8009 24.319 18.9155V19.591C24.319 19.7702 24.2479 19.942 24.1212 20.0687C23.9945 20.1954 23.8227 20.2666 23.6435 20.2666C23.4644 20.2666 23.2925 20.1954 23.1658 20.0687C23.0392 19.942 22.968 19.7702 22.968 19.591V18.2298C22.9671 18.1342 22.9866 18.0394 23.0253 17.9519C23.064 17.8644 23.1209 17.7862 23.1923 17.7225L30.3988 12.9708L37.5655 17.6955C37.6474 17.7588 37.7138 17.8399 37.7596 17.9328C37.8053 18.0256 37.8293 18.1277 37.8296 18.2312V19.591C37.8296 19.7702 37.7585 19.942 37.6318 20.0687C37.5051 20.1954 37.3333 20.2666 37.1541 20.2666C36.9749 20.2666 36.8031 20.1954 36.6764 20.0687C36.5497 19.942 36.4786 19.7702 36.4786 19.591V18.9155C36.4786 18.8009 36.4494 18.6882 36.3939 18.588C36.3383 18.4878 36.2582 18.4034 36.1611 18.3426ZM2.70212 27.6873C2.70186 27.5879 2.72352 27.4897 2.76555 27.3997C2.80759 27.3097 2.86896 27.23 2.94531 27.1665L11.484 21.0954L20.0017 27.1516C20.0837 27.2149 20.15 27.296 20.1958 27.3889C20.2416 27.4817 20.2656 27.5838 20.2659 27.6873V29.0485C20.2659 29.2276 20.1947 29.3995 20.068 29.5262C19.9413 29.6528 19.7695 29.724 19.5903 29.724C19.4112 29.724 19.2394 29.6528 19.1127 29.5262C18.986 29.3995 18.9148 29.2276 18.9148 29.0485V28.373C18.9148 28.2643 18.8885 28.1573 18.8383 28.061C18.7881 27.9647 18.7154 27.8819 18.6264 27.8197L11.8711 23.091C11.7576 23.0116 11.6225 22.9691 11.484 22.9691C11.3455 22.9691 11.2104 23.0116 11.0969 23.091L4.34163 27.8197C4.25261 27.8819 4.17991 27.9647 4.1297 28.061C4.07948 28.1573 4.05324 28.2643 4.05317 28.373V29.0485C4.05317 29.2276 3.982 29.3995 3.85532 29.5262C3.72863 29.6528 3.55681 29.724 3.37765 29.724C3.19848 29.724 3.02666 29.6528 2.89997 29.5262C2.77329 29.3995 2.70212 29.2276 2.70212 29.0485V27.6873ZM13.5106 36.4794H9.45741V31.7506C9.45741 31.2131 9.67092 30.6977 10.051 30.3176C10.431 29.9375 10.9465 29.724 11.484 29.724C12.0215 29.724 12.5369 29.9375 12.917 30.3176C13.2971 30.6977 13.5106 31.2131 13.5106 31.7506V36.4794ZM11.484 28.373C10.5885 28.374 9.73002 28.7302 9.09682 29.3634C8.46362 29.9966 8.10742 30.8551 8.10635 31.7506V36.4794H5.40423V28.7249L11.484 24.469L17.5638 28.7249V36.4794H14.8616V31.7506C14.8606 30.8551 14.5044 29.9966 13.8712 29.3634C13.238 28.7302 12.3795 28.374 11.484 28.373ZM4.05317 33.1557C3.58477 33.223 3.12925 33.3608 2.70212 33.5644V30.9508C3.13722 31.1165 3.61807 31.1165 4.05317 30.9508V33.1557ZM1.35106 37.8304C1.35204 37.0521 1.62133 36.2978 2.11354 35.6949C2.60575 35.0919 3.29078 34.6771 4.05317 34.5203V37.1549C4.05317 37.334 4.12435 37.5059 4.25103 37.6326C4.37772 37.7592 4.54954 37.8304 4.7287 37.8304H18.2393C18.4184 37.8304 18.5903 37.7592 18.717 37.6326C18.8436 37.5059 18.9148 37.334 18.9148 37.1549V34.4528C19.4523 34.4528 19.9678 34.6663 20.3478 35.0463C20.7279 35.4264 20.9414 35.9419 20.9414 36.4794V40.5325H1.35106V37.8304ZM40.5317 40.5325H22.2925V39.1815C22.2781 38.4792 22.5383 37.7991 23.0177 37.2858C23.4971 36.7724 24.1579 36.4664 24.8595 36.4327C25.0521 36.4381 25.2438 36.4607 25.4323 36.5003C25.6067 36.5292 25.7856 36.4922 25.9343 36.3966C26.083 36.301 26.1908 36.1535 26.2369 35.9828C26.4089 35.1848 26.8431 34.4673 27.4702 33.9447C28.0973 33.4221 28.8813 33.1244 29.6973 33.099C30.5132 33.0737 31.3142 33.3222 31.9725 33.8049C32.6309 34.2876 33.1087 34.9768 33.3299 35.7626C33.3616 35.8566 33.4137 35.9425 33.4824 36.0142C33.551 36.0858 33.6347 36.1415 33.7273 36.1771C33.8199 36.2128 33.9192 36.2276 34.0182 36.2205C34.1172 36.2135 34.2134 36.1847 34.3 36.1362L34.4304 36.0632C34.8599 35.846 35.3458 35.7661 35.8223 35.8344C36.2988 35.9027 36.7427 36.1158 37.094 36.4449C37.1784 36.5234 37.2816 36.5789 37.3936 36.6062C37.5056 36.6336 37.6228 36.6318 37.7339 36.601C37.845 36.5703 37.9464 36.5116 38.0284 36.4306C38.1105 36.3496 38.1704 36.2489 38.2025 36.1382C38.3565 35.587 38.6528 35.0861 39.0616 34.6856C39.4705 34.2852 39.9775 33.9994 40.5317 33.8569V40.5325ZM40.5317 32.4842C39.8333 32.6042 39.1725 32.8853 38.6017 33.3052C38.0308 33.7251 37.5657 34.2723 37.2433 34.9033C36.8003 34.6614 36.3121 34.5137 35.8094 34.4693C35.3066 34.4249 34.8001 34.4848 34.3216 34.6453C33.915 33.7902 33.2772 33.066 32.4805 32.5545C31.6838 32.0429 30.7598 31.7645 29.8131 31.7506C28.7849 31.7726 27.7869 32.103 26.9486 32.6988C26.1103 33.2947 25.4702 34.1286 25.1114 35.0925C25.025 35.0857 24.9385 35.0817 24.8561 35.0817C23.8858 35.092 22.9564 35.474 22.2594 36.149C22.1791 35.3167 21.7924 34.544 21.1743 33.9808C20.5563 33.4177 19.751 33.1044 18.9148 33.1017V30.9508C19.1312 31.0308 19.3597 31.0728 19.5903 31.0751C20.1278 31.0751 20.6433 30.8616 21.0234 30.4815C21.4034 30.1014 21.6169 29.586 21.6169 29.0485V27.6873C21.6121 27.267 21.4763 26.8587 21.2285 26.5193C22.1817 25.7898 23.2194 25.1778 24.319 24.6967V26.3464C24.319 26.5255 24.3902 26.6973 24.5169 26.824C24.6436 26.9507 24.8154 27.0219 24.9946 27.0219H35.803C35.9822 27.0219 36.154 26.9507 36.2807 26.824C36.4074 26.6973 36.4786 26.5255 36.4786 26.3464V24.7926C39.0341 26.3389 40.5317 28.3838 40.5317 30.3996V32.4842ZM36.4786 23.2389V21.4933C36.6949 21.5733 36.9235 21.6154 37.1541 21.6176C37.6916 21.6176 38.2071 21.4041 38.5871 21.024C38.9672 20.644 39.1807 20.1285 39.1807 19.591V18.2298C39.1779 17.9116 39.1015 17.5983 38.9573 17.3145C38.8131 17.0308 38.6052 16.7843 38.3498 16.5944L30.771 11.5954C30.6607 11.5228 30.5316 11.4841 30.3995 11.4841C30.2674 11.4841 30.1382 11.5228 30.0279 11.5954L24.9534 14.944C23.0572 14.0187 20.9781 13.5291 18.8682 13.5112H17.5638V10.0093C17.7801 10.0893 18.0086 10.1313 18.2393 10.1336C18.7156 10.1324 19.1762 9.96347 19.5404 9.6565C19.9046 9.34952 20.149 8.92408 20.2307 8.45486C20.4815 7.95282 20.865 7.52905 21.3395 7.22954C21.8141 6.93003 22.3616 6.76622 22.9227 6.7559C23.5839 6.77333 24.2228 6.99898 24.7482 7.40072C25.2737 7.80245 25.6589 8.35976 25.8491 8.99326C25.8822 9.09413 25.9386 9.18577 26.0138 9.26076C26.0889 9.33575 26.1807 9.39197 26.2816 9.42487C26.3825 9.45777 26.4898 9.46642 26.5947 9.45011C26.6996 9.43381 26.7992 9.39301 26.8854 9.33103L26.9793 9.26347C27.2958 8.99829 27.685 8.83488 28.0959 8.79465C28.3774 8.76941 28.661 8.80331 28.9286 8.89417C29.1961 8.98503 29.4418 9.13084 29.6496 9.32224C29.7307 9.38996 29.8262 9.43806 29.9288 9.46278C30.0315 9.4875 30.1385 9.48819 30.2414 9.46478C30.3464 9.44086 30.4447 9.39349 30.5288 9.32623C30.6129 9.25896 30.6807 9.17354 30.7271 9.07635C30.9413 8.59419 31.2887 8.18324 31.7285 7.89183C32.1683 7.60042 32.6822 7.44069 33.2097 7.43143C33.8043 7.44767 34.3786 7.65123 34.8507 8.01307C35.3228 8.37492 35.6686 8.87659 35.8388 9.44654C35.8728 9.54743 35.9302 9.63885 36.0062 9.71336C36.0822 9.78788 36.1748 9.84336 36.2763 9.87531C36.3779 9.90725 36.4856 9.91473 36.5905 9.89716C36.6955 9.87958 36.7949 9.83745 36.8805 9.77418C37.2374 9.56772 37.6423 9.45869 38.0546 9.45803C38.7342 9.48147 39.3768 9.77362 39.8412 10.2703C40.3056 10.7671 40.554 11.4278 40.5317 12.1075V26.6078C39.4474 25.1979 38.0629 24.0472 36.4786 23.2389Z" fill="#EFB34A"/>
</svg>
