<svg width="16" height="16" viewBox="0 0 16 16" fill="none" xmlns="http://www.w3.org/2000/svg">
<path d="M11.735 9.60799C11.5742 9.52809 10.5293 9.04869 10.3686 8.96879C10.2078 8.88889 10.0471 8.88889 9.88632 9.04869C9.72557 9.20849 9.40406 9.68789 9.24331 9.84769C9.16293 10.0075 9.00218 10.0075 8.84143 9.92759C8.27879 9.68789 7.71616 9.36829 7.2339 8.96879C6.83201 8.56929 6.43013 8.08989 6.10862 7.61049C6.02825 7.45069 6.10862 7.29089 6.189 7.21099C6.26938 7.13109 6.34975 6.97129 6.51051 6.89139C6.59088 6.81149 6.67126 6.65169 6.67126 6.57178C6.75164 6.49188 6.75164 6.33209 6.67126 6.25219C6.59088 6.17229 6.189 5.21348 6.02825 4.81398C5.94787 4.25468 5.78712 4.25468 5.62636 4.25468H5.22448C5.06373 4.25468 4.8226 4.41448 4.74222 4.49438C4.25996 4.97378 4.01883 5.53308 4.01883 6.17228C4.09921 6.89139 4.34034 7.61049 4.8226 8.24969C5.70674 9.52809 6.83201 10.5668 8.19841 11.206C8.6003 11.3658 8.92181 11.5256 9.32369 11.6055C9.72557 11.7653 10.1275 11.7653 10.6097 11.6854C11.1723 11.6055 11.6546 11.206 11.9761 10.7266C12.1369 10.407 12.1369 10.0874 12.0565 9.76779L11.735 9.60799ZM13.7444 2.33708C10.6097 -0.779026 5.54599 -0.779026 2.4113 2.33708C-0.160753 4.89388 -0.643013 8.80899 1.12527 11.9251L0 16L4.25996 14.8814C5.46561 15.5206 6.75164 15.8402 8.03766 15.8402C12.4584 15.8402 15.9949 12.3246 15.9949 7.93009C16.0753 5.85268 15.1912 3.85518 13.7444 2.33708ZM11.5742 13.5231C10.5293 14.1623 9.32369 14.5618 8.03766 14.5618C6.83201 14.5618 5.70674 14.2422 4.66184 13.6829L4.42071 13.5231L1.92904 14.1623L2.57205 11.7653L2.4113 11.5256C0.48226 8.32959 1.44678 4.33458 4.58147 2.33708C7.71616 0.339576 11.735 1.37828 13.664 4.41448C15.5931 7.53059 14.7089 11.6055 11.5742 13.5231Z" fill="white"/>
</svg>
